<svg width="35" height="40" viewBox="0 0 35 40" fill="none" xmlns="http://www.w3.org/2000/svg">
<path fill-rule="evenodd" clip-rule="evenodd" d="M29.1793 17.2709C29.2349 17.3091 29.2888 17.3543 29.3322 17.4065C29.3687 17.443 30.5863 34.9341 27.8627 37.4508C27.6317 37.6628 26.3845 39.4284 13.2909 39.498C9.05617 39.5223 3.21474 39.3259 2.52684 38.9731C2.35488 38.881 2.06652 38.9245 1.71394 35.8051C0.755151 27.2775 0.678712 7.28879 1.99881 3.43964C2.10303 3.13899 2.31842 2.52553 4.25341 2.08065C4.28642 1.67921 4.35589 1.25516 4.35937 1.25169C4.48443 1.06748 4.69287 0.95452 4.81791 0.770324C4.95166 0.949319 5.16183 1.05359 5.29557 1.22909C5.29905 1.23257 5.36158 1.53842 5.42063 1.86688C6.70946 1.67919 8.49685 1.55754 10.9825 1.55754C10.9843 1.35769 10.9895 1.18565 10.993 1.05705C11.0121 0.309774 11.4654 0.356709 11.924 0.945827C11.9275 0.949302 11.99 1.21867 12.0664 1.56622C12.3999 1.56796 12.7438 1.57665 13.0999 1.58534C14.6146 1.62183 16.1258 1.69308 17.576 1.78866C17.5742 1.55406 17.576 1.35247 17.576 1.21343C17.5829 0.85717 17.7688 0.956228 17.9789 0.672978C18.1266 0.843285 18.3628 0.918012 18.5105 1.08832C18.5139 1.09006 18.6164 1.45674 18.7154 1.86687C20.8345 2.02154 22.7713 2.21618 24.3156 2.40558C24.3277 2.09972 24.3521 1.81299 24.3277 1.47759C24.3243 1.44979 24.3086 1.42198 24.319 1.39592C24.425 1.20128 24.564 1.02923 24.6699 0.834605C24.8419 0.977106 25.0642 1.05357 25.2362 1.19607C25.2692 1.22388 25.4446 1.77999 25.5332 2.56201C26.7508 2.72884 27.5741 2.87829 27.8312 2.9704C29.5196 3.57691 29.3494 5.32171 28.9655 7.24895C29.1913 6.99349 29.3528 6.82666 29.4431 6.76234C29.7662 6.53121 30.1553 6.43389 30.567 6.44779C30.9282 5.81174 32.356 3.61511 33.5685 4.736C34.7183 5.80128 32.9866 7.60516 32.9675 7.60863C32.9536 7.61037 32.9397 7.61384 32.9258 7.61558C33.0178 7.71985 33.1047 7.83107 33.1811 7.94403L33.195 7.9336C33.2037 7.94403 33.2124 7.95272 33.2211 7.96315C33.4521 8.23946 33.8238 8.75909 32.9206 10.8306C33.0282 10.8862 33.1481 10.9592 33.2853 11.0565C35.1717 12.3703 32.8893 15.1908 31.4389 17.4014C31.4111 17.4397 31.3972 17.4119 30.8883 17.5683C30.8501 17.3875 30.7893 17.2155 30.7528 17.0348C30.725 16.901 32.9709 13.5087 33.0838 12.4818C33.1429 11.9518 32.8372 11.6824 32.5923 11.5399C32.1285 12.4801 31.4528 13.6722 30.4749 15.2015C30.0667 15.8411 29.6327 16.5358 29.1793 17.2709ZM28.521 9.09258C27.081 10.9868 25.483 13.3242 23.9769 15.7329C26.44 17.2622 26.3653 17.4239 27.3258 18.0703C27.4075 18.1259 27.4874 18.1763 27.5568 18.218C28.262 17.0832 28.9933 15.9241 29.7628 14.7406C29.9382 14.473 31.0273 12.8012 31.8333 11.2285C31.5414 11.126 30.8032 10.8218 30.1414 10.3822C29.4988 9.95815 28.5609 9.13427 28.521 9.09258ZM31.42 6.60923C31.75 6.72567 32.0766 6.89945 32.3684 7.1132C32.3927 7.06801 33.3828 5.79242 32.8756 5.4362C32.7297 5.33019 32.1791 5.69514 31.5364 6.46847C31.4947 6.51539 31.4565 6.56578 31.42 6.60923ZM23.5498 16.4194C22.1325 18.7238 20.8176 21.0578 19.8205 23.098C17.3262 28.1986 17.3349 30.0164 17.519 30.7861C18.0835 30.6419 19.659 30.0666 20.7724 28.5982C22.9957 25.6734 24.9637 22.408 27.14 18.8907C26.7926 18.7274 26.1847 18.3989 25.3249 17.7907C25.1703 17.676 24.8144 17.4239 23.5498 16.4194ZM4.34062 3.22943C3.7622 3.37367 3.35052 3.5492 3.15078 3.75427C2.85028 4.05665 2.03391 9.33269 2.27532 22.4813C2.28921 23.3328 2.3778 28.025 2.65919 32.2443C2.90584 35.972 3.16117 37.3707 3.28448 37.8957C6.89394 38.424 25.6255 38.8619 27.2428 36.4672C28.9189 33.9838 28.6515 22.4257 28.4239 18.5014C26.0181 22.4393 23.2666 27.0361 21.3354 29.4638C20.3592 30.6838 17.6079 32.3295 16.8296 31.6205C16.6993 31.5006 15.9403 30.5257 17.0763 27.0724C16.001 27.0933 12.7581 27.1298 12.4246 27.135C9.91292 27.1628 7.65463 27.0603 6.23214 27.1889C6.18003 27.1941 6.19392 27.161 5.70236 26.7996C5.84827 26.6345 5.94554 26.4259 6.09318 26.2626C6.16092 26.1896 9.09469 25.8924 11.6324 25.8872C14.0034 25.882 17.1854 26.0575 17.4322 26.0732C17.5851 25.6752 17.764 25.2477 17.9637 24.7924C18.3962 23.7983 18.8861 22.7904 19.4106 21.7773C18.2087 21.8868 15.8116 22.0136 12.4471 21.9354C9.74613 21.8728 6.98261 21.7251 5.89361 21.9632C5.87625 21.9632 5.86061 21.9841 5.84672 21.9719C5.6487 21.8728 5.46805 21.7477 5.27176 21.6469C5.41767 21.4662 5.50104 21.2385 5.64869 21.0543C5.64869 21.0543 6.8802 20.526 14.1249 20.7207C15.2627 20.752 18.5004 20.8597 19.9839 20.7016C20.8281 19.141 21.7452 17.5926 22.6623 16.1277C22.0092 16.2059 20.9045 16.3189 19.8623 16.3675C14.745 16.6091 11.2433 16.3328 6.65253 16.7481C6.55004 16.7568 6.43888 16.8194 6.34334 16.7759C6.14359 16.6838 6.022 16.4614 5.8205 16.3693C5.99594 16.2337 6.05673 15.9852 6.23043 15.8462C6.24085 15.8357 9.0096 15.4047 12.2472 15.2848C16.3465 15.1354 19.8831 15.4013 23.046 15.0815C23.0738 15.0798 23.1068 15.0572 23.1294 15.0711C23.1763 15.1041 23.2249 15.1371 23.2683 15.1736C25.0922 12.3375 26.8656 9.88527 28.0538 8.36465C27.9687 8.26907 27.8767 8.17523 27.8437 8.05532C27.7898 7.86415 28.8181 4.77255 27.8385 4.06349C27.6787 3.94879 27.6717 3.85147 25.5943 3.58212C25.6064 4.03568 25.6168 4.65786 25.6151 4.66306C25.4953 4.86986 25.3025 5.02453 25.1861 5.23131C25.0228 5.06101 24.797 4.955 24.6354 4.78643C24.6285 4.77774 24.4496 4.00094 24.3662 3.42917C22.5823 3.22237 20.7342 3.05554 18.9052 2.93041C18.9504 3.49346 18.966 4.30155 18.9643 4.31027C18.8479 4.51533 18.6586 4.67521 18.5387 4.88026C18.3755 4.71342 18.1531 4.60742 17.9864 4.44058C17.9777 4.43189 17.7432 3.46566 17.6668 3.02772C17.6581 2.97037 17.6494 2.91128 17.6407 2.85393C15.7787 2.74792 13.9565 2.6871 12.2629 2.67493C12.2629 2.6871 12.2664 2.69405 12.2664 2.70622C12.3272 3.29533 12.3167 4.57785 12.3098 4.5883C12.1882 4.79163 11.9884 4.93935 11.8651 5.14094C11.7105 4.96368 11.4847 4.85593 11.3301 4.67693C11.3215 4.66824 11.1095 3.5265 11.0488 3.08682C11.0314 2.95648 11.0175 2.81745 11.0071 2.67842C8.80805 2.69406 6.89042 2.80355 5.48518 3.01209C5.46781 3.36834 5.43828 3.71243 5.43133 3.72115C5.29585 3.91057 5.10652 4.06002 4.96755 4.25118C4.80948 4.0774 4.60625 3.9488 4.44817 3.77329C4.4447 3.77329 4.39273 3.52315 4.34062 3.22943ZM16.2599 32.0358C16.0758 32.1765 15.9126 32.3469 15.7284 32.4876C15.718 32.4946 14.6932 32.4164 11.7577 32.3712C8.28892 32.319 7.11624 32.2356 5.69375 32.3017C5.68853 32.3017 5.17437 31.9941 5.12924 31.9663C5.25777 31.782 5.3481 31.5735 5.47664 31.3893C5.50443 31.3476 8.18111 31.0278 10.9185 31.1095C13.1853 31.179 15.8098 31.504 15.8098 31.504C15.9679 31.6743 16.1019 31.8655 16.2599 32.0358ZM25.2125 10.0976C24.9693 10.174 24.8338 10.4695 24.5924 10.5477C24.4395 10.5981 23.1281 10.3339 16.3749 10.5216C8.23702 10.7527 5.7082 10.97 5.68908 10.9526C5.50843 10.8257 5.36079 10.6554 5.18189 10.5286C5.37469 10.4173 5.41812 10.1323 5.61092 10.0211C5.61613 10.0194 9.87346 9.54322 13.6514 9.36593C19.738 9.07572 24.6449 9.55536 24.6587 9.56578C24.8706 9.71002 25.004 9.95161 25.2125 10.0976ZM32.1706 10.5425C32.5684 9.67703 32.815 8.92108 32.69 8.55089C32.6848 8.53351 32.6761 8.51787 32.6622 8.50397C32.5771 8.40665 32.5406 8.33713 32.5232 8.28674C31.7207 7.28922 30.3086 6.86867 29.7354 7.55859C29.4974 7.84708 29.249 8.15292 28.9989 8.47617C29.1796 8.55959 31.9067 10.3999 32.1568 10.5355C32.1603 10.539 32.1654 10.539 32.1706 10.5425Z" fill="#39A7EA" stroke="#39A7EA" stroke-width="0.6"/>
</svg>
