<svg width="14" height="20" viewBox="0 0 14 20" fill="none" xmlns="http://www.w3.org/2000/svg">
<path d="M12.5405 10.9293C12.5405 10.6262 12.3619 10.349 12.0778 10.1993V7.54167C12.3619 7.39198 12.5405 7.11472 12.5405 6.81177C12.5405 6.50772 12.361 6.22977 12.0754 6.08049C12.0254 5.18222 11.2082 4.46564 10.2109 4.46564H8.62199C8.16715 4.46564 7.79696 4.12822 7.79696 3.71335V3.15456C7.8822 3.15456 7.95118 3.09166 7.95118 3.01393V1.42188C7.95118 1.18924 7.74364 1 7.48851 1H5.87143C5.6163 1 5.40876 1.18924 5.40876 1.42188V3.01393C5.40876 3.09166 5.47774 3.15456 5.56298 3.15456V3.71335C5.56298 4.12822 5.19294 4.46564 4.73795 4.46564H3.14904C2.15186 4.46564 1.33481 5.18222 1.28466 6.08049C0.999256 6.22963 0.81958 6.50772 0.81958 6.81177C0.81958 7.11485 0.998201 7.39198 1.28225 7.54167V10.1993C0.998201 10.349 0.81958 10.6262 0.81958 10.9293C0.81958 11.2324 0.998201 11.5097 1.28225 11.6593V16.3803C0.998201 16.5299 0.81958 16.8071 0.81958 17.1104C0.81958 17.4145 0.999557 17.6928 1.28556 17.842C1.33526 18.4882 1.9276 19 2.64872 19H10.7115C11.4326 19 12.0248 18.4882 12.0745 17.842C12.3604 17.6928 12.5405 17.4145 12.5405 17.1104C12.5405 16.8071 12.3619 16.5299 12.0778 16.3803V11.6593C12.3619 11.5097 12.5405 11.2324 12.5405 10.9293ZM5.71721 1.42188C5.71721 1.34428 5.78634 1.28125 5.87143 1.28125H7.48851C7.57345 1.28125 7.64273 1.34428 7.64273 1.42188V2.87331H5.71721V1.42188ZM11.8826 11.4325H4.86175V11.7137H11.7694V16.3259H8.91959V16.6072H11.8826C12.0947 16.7011 12.2321 16.8948 12.2321 17.1104C12.2321 17.3332 12.0866 17.5354 11.8619 17.6252C11.8055 17.6476 11.7694 17.6981 11.7694 17.754C11.7694 18.286 11.295 18.7188 10.7115 18.7188H2.64872C2.11807 18.7188 1.68168 18.3597 1.60628 17.8946H4.32395V17.6134H1.47762C1.26557 17.5194 1.12803 17.3258 1.12803 17.1104C1.12803 16.8872 1.27336 16.685 1.49822 16.5954C1.5544 16.573 1.59069 16.5224 1.59069 16.4666V11.7137H4.86175L4.93219 11.5L4.86175 11.4325H1.47762C1.26557 11.3384 1.12803 11.1448 1.12803 10.9293C1.12803 10.7063 1.27336 10.5041 1.49837 10.4143C1.5544 10.3919 1.59069 10.3414 1.59069 10.2855V7.59605H6.17988V7.3148H1.47762C1.26557 7.22079 1.12803 7.02722 1.12803 6.81177C1.12803 6.5962 1.26557 6.40251 1.47747 6.30859H4.45332V6.02734H1.60628C1.68501 5.31049 2.34262 4.74689 3.14904 4.74689H4.73795C5.36298 4.74689 5.87143 4.28326 5.87143 3.71335V3.15456H7.48851V3.71335C7.48851 4.28326 7.99696 4.74689 8.62199 4.74689H10.2109C11.0703 4.74689 11.7694 5.38437 11.7694 6.16797C11.7694 6.22386 11.8055 6.2744 11.8619 6.29678C12.0869 6.38646 12.2321 6.58861 12.2321 6.81177C12.2321 7.02708 12.0944 7.22077 11.8826 7.3148H6.17988V7.59605H11.7694V10.1449H8.71506V10.4261H11.8826C12.0944 10.5202 12.2321 10.7139 12.2321 10.9293C12.2321 11.1448 12.0944 11.3384 11.8826 11.4325Z" fill="#39A7EA"/>
<path d="M4.86175 11.4325H11.8826C12.0944 11.3384 12.2321 11.1448 12.2321 10.9293C12.2321 10.7139 12.0944 10.5202 11.8826 10.4261H8.71506V10.1449H11.7694V7.59605H6.17988M4.86175 11.4325V11.7137M4.86175 11.4325H1.47762C1.26557 11.3384 1.12803 11.1448 1.12803 10.9293C1.12803 10.7063 1.27336 10.5041 1.49837 10.4143C1.5544 10.3919 1.59069 10.3414 1.59069 10.2855V7.59605H6.17988M4.86175 11.4325L4.93219 11.5L4.86175 11.7137M4.86175 11.7137H11.7694V16.3259H8.91959V16.6072H11.8826C12.0947 16.7011 12.2321 16.8948 12.2321 17.1104C12.2321 17.3332 12.0866 17.5354 11.8619 17.6252C11.8055 17.6476 11.7694 17.6981 11.7694 17.754C11.7694 18.286 11.295 18.7188 10.7115 18.7188H2.64872C2.11807 18.7188 1.68168 18.3597 1.60628 17.8946H4.32395V17.6134H1.47762C1.26557 17.5194 1.12803 17.3258 1.12803 17.1104C1.12803 16.8872 1.27336 16.685 1.49822 16.5954C1.5544 16.573 1.59069 16.5224 1.59069 16.4666V11.7137H4.86175ZM6.17988 7.59605V7.3148M6.17988 7.3148H1.47762C1.26557 7.22079 1.12803 7.02722 1.12803 6.81177C1.12803 6.5962 1.26557 6.40251 1.47747 6.30859H4.45332V6.02734H1.60628C1.68501 5.31049 2.34262 4.74689 3.14904 4.74689H4.73795C5.36298 4.74689 5.87143 4.28326 5.87143 3.71335V3.15456H7.48851V3.71335C7.48851 4.28326 7.99696 4.74689 8.62199 4.74689H10.2109C11.0703 4.74689 11.7694 5.38437 11.7694 6.16797C11.7694 6.22386 11.8055 6.2744 11.8619 6.29678C12.0869 6.38646 12.2321 6.58861 12.2321 6.81177C12.2321 7.02708 12.0944 7.22077 11.8826 7.3148H6.17988ZM12.5405 10.9293C12.5405 10.6262 12.3619 10.349 12.0778 10.1993V7.54167C12.3619 7.39198 12.5405 7.11472 12.5405 6.81177C12.5405 6.50772 12.361 6.22977 12.0754 6.08049C12.0254 5.18222 11.2082 4.46564 10.2109 4.46564H8.62199C8.16715 4.46564 7.79696 4.12822 7.79696 3.71335V3.15456C7.8822 3.15456 7.95118 3.09166 7.95118 3.01393V1.42188C7.95118 1.18924 7.74364 1 7.48851 1H5.87143C5.6163 1 5.40876 1.18924 5.40876 1.42188V3.01393C5.40876 3.09166 5.47774 3.15456 5.56298 3.15456V3.71335C5.56298 4.12822 5.19294 4.46564 4.73795 4.46564H3.14904C2.15186 4.46564 1.33481 5.18222 1.28466 6.08049C0.999256 6.22963 0.81958 6.50772 0.81958 6.81177C0.81958 7.11485 0.998201 7.39198 1.28225 7.54167V10.1993C0.998201 10.349 0.81958 10.6262 0.81958 10.9293C0.81958 11.2324 0.998201 11.5097 1.28225 11.6593V16.3803C0.998201 16.5299 0.81958 16.8071 0.81958 17.1104C0.81958 17.4145 0.999557 17.6928 1.28556 17.842C1.33526 18.4882 1.9276 19 2.64872 19H10.7115C11.4326 19 12.0248 18.4882 12.0745 17.842C12.3604 17.6928 12.5405 17.4145 12.5405 17.1104C12.5405 16.8071 12.3619 16.5299 12.0778 16.3803V11.6593C12.3619 11.5097 12.5405 11.2324 12.5405 10.9293ZM5.71721 1.42188C5.71721 1.34428 5.78634 1.28125 5.87143 1.28125H7.48851C7.57345 1.28125 7.64273 1.34428 7.64273 1.42188V2.87331H5.71721V1.42188Z" stroke="#39A7EA" stroke-width="0.4"/>
<path d="M11.9694 17.6133H4.27258V17.8948L11.9236 17.8752L11.9694 17.6133Z" fill="#39A7EA" stroke="#39A7EA" stroke-width="0.4"/>
<path d="M12.392 11.7219C12.8274 11.7219 13.1804 11.3689 13.1804 10.9335C13.1804 10.498 12.8274 10.145 12.392 10.145C11.9565 10.145 11.6035 10.498 11.6035 10.9335C11.6035 11.3689 11.9565 11.7219 12.392 11.7219Z" fill="#39A7EA"/>
</svg>
