<svg width="17" height="16" viewBox="0 0 17 16" fill="none" xmlns="http://www.w3.org/2000/svg">
<path fill-rule="evenodd" clip-rule="evenodd" d="M6.72222 7.11111C8.6859 7.11111 10.2778 5.51923 10.2778 3.55556C10.2778 1.59188 8.6859 0 6.72222 0C4.75854 0 3.16667 1.59188 3.16667 3.55556C3.16667 5.51923 4.75854 7.11111 6.72222 7.11111ZM6.72222 16C10.1587 16 12.9444 14.4081 12.9444 12.4444C12.9444 10.4808 10.1587 8.88889 6.72222 8.88889C3.28578 8.88889 0.5 10.4808 0.5 12.4444C0.5 14.4081 3.28578 16 6.72222 16ZM10.2435 6.94708C11.0903 6.06802 11.6111 4.87264 11.6111 3.55563C11.6111 2.92932 11.4933 2.33052 11.2787 1.78016C12.6995 1.83893 13.8333 3.00932 13.8333 4.44452C13.8333 5.91728 12.6394 7.11118 11.1666 7.11118C10.8421 7.11118 10.5311 7.05322 10.2435 6.94708ZM14.2777 12.4444C14.2777 12.9233 14.1713 13.3862 13.9729 13.8236C15.4897 13.3534 16.4999 12.5134 16.4999 11.5555C16.4999 10.2166 14.5266 9.10825 11.9549 8.91775C13.3866 9.8074 14.2777 11.0586 14.2777 12.4444Z" fill="#C8C8C8"/>
</svg>
