<svg width="24" height="24" viewBox="0 0 24 24" fill="none" xmlns="http://www.w3.org/2000/svg">
<path d="M23 18.875C23 21.1532 21.1532 23 18.875 23C16.5968 23 14.75 21.1532 14.75 18.875C14.75 16.5968 16.5968 14.75 18.875 14.75C21.1532 14.75 23 16.5968 23 18.875Z" stroke="#808080" stroke-width="1.5"/>
<path d="M14.75 3.75C14.75 2.23122 15.9812 1 17.5 1H20.25C21.7688 1 23 2.23122 23 3.75V6.5C23 8.01878 21.7688 9.25 20.25 9.25H17.5C15.9812 9.25 14.75 8.01878 14.75 6.5V3.75Z" stroke="#808080" stroke-width="1.5"/>
<path d="M1 3.75C1 2.23122 2.23122 1 3.75 1H6.5C8.01878 1 9.25 2.23122 9.25 3.75V6.5C9.25 8.01878 8.01878 9.25 6.5 9.25H3.75C2.23122 9.25 1 8.01878 1 6.5V3.75Z" stroke="#808080" stroke-width="1.5"/>
<path d="M1 17.5C1 15.9812 2.23122 14.75 3.75 14.75H6.5C8.01878 14.75 9.25 15.9812 9.25 17.5V20.25C9.25 21.7688 8.01878 23 6.5 23H3.75C2.23122 23 1 21.7688 1 20.25V17.5Z" stroke="#808080" stroke-width="1.5"/>
</svg>
