<svg width="32" height="24" viewBox="0 0 32 24" fill="none" xmlns="http://www.w3.org/2000/svg">
<path d="M24.5555 16.8889C22.8749 16.8889 21.4999 18.2639 21.4999 19.9444C21.4999 21.625 22.8749 23 24.5555 23C26.2361 23 27.6111 21.625 27.6111 19.9444C27.6111 18.2639 26.2361 16.8889 24.5555 16.8889ZM24.5555 18.1111C25.5748 18.1111 26.3888 18.9251 26.3888 19.9444C26.3888 20.9638 25.5748 21.7778 24.5555 21.7778C23.5362 21.7778 22.7222 20.9638 22.7222 19.9444C22.7222 18.9251 23.5362 18.1111 24.5555 18.1111ZM8.66661 16.8889C6.98606 16.8889 5.61106 18.2639 5.61106 19.9444C5.61106 21.625 6.98606 23 8.66661 23C10.3472 23 11.7222 21.625 11.7222 19.9444C11.7222 18.2639 10.3472 16.8889 8.66661 16.8889ZM8.66661 18.1111C9.68595 18.1111 10.4999 18.9251 10.4999 19.9444C10.4999 20.9638 9.68595 21.7778 8.66661 21.7778C7.64728 21.7778 6.83328 20.9638 6.83328 19.9444C6.83328 18.9251 7.64728 18.1111 8.66661 18.1111ZM2.5555 1C1.55084 1 0.722168 1.82867 0.722168 2.83333V16.2778C0.722168 17.2824 1.55084 18.1111 2.5555 18.1111H4.99995C5.82617 18.1233 5.82617 16.8767 4.99995 16.8889H2.5555C2.20595 16.8889 1.94439 16.6273 1.94439 16.2778V2.83333C1.94439 2.48378 2.20595 2.22222 2.5555 2.22222H18.4444C18.7939 2.22222 19.0555 2.48378 19.0555 2.83333V16.8889H12.3333C11.5266 16.8889 11.5413 18.1233 12.3333 18.1111H20.8888C21.6955 18.1111 21.6882 16.8889 20.8888 16.8889H20.2777V5.88889H25.4441L30.0555 13.0951V16.2778C30.0555 16.6273 29.7939 16.8889 29.4444 16.8889H28.2222C27.4228 16.8889 27.4228 18.1111 28.2222 18.1111H29.4444C30.4491 18.1111 31.2777 17.2824 31.2777 16.2778V12.9167C31.2777 12.8006 31.2447 12.6844 31.1824 12.5867L26.2935 4.94778C26.1811 4.773 25.9879 4.66667 25.7777 4.66667H20.2777V2.83333C20.2777 1.82867 19.4491 1 18.4444 1H2.5555Z" fill="#808080" stroke="#808080" stroke-width="0.2"/>
<path d="M8.31745 9.03147H4.65078C4.31223 9.03147 4.03967 9.30402 4.03967 9.64258C4.03967 9.98113 4.31223 10.2537 4.65078 10.2537H8.31745C8.65601 10.2537 8.92856 9.98113 8.92856 9.64258C8.92856 9.30402 8.65601 9.03147 8.31745 9.03147Z" fill="#808080"/>
<path d="M8.31745 4.14258H4.65078C4.31223 4.14258 4.03967 4.41513 4.03967 4.75369C4.03967 5.09224 4.31223 5.3648 4.65078 5.3648H8.31745C8.65601 5.3648 8.92856 5.09224 8.92856 4.75369C8.92856 4.41513 8.65601 4.14258 8.31745 4.14258Z" fill="#808080"/>
<path d="M8.31745 9.03147H4.65078C4.31223 9.03147 4.03967 9.30402 4.03967 9.64258C4.03967 9.98113 4.31223 10.2537 4.65078 10.2537H8.31745C8.65601 10.2537 8.92856 9.98113 8.92856 9.64258C8.92856 9.30402 8.65601 9.03147 8.31745 9.03147Z" stroke="#808080" stroke-width="0.2"/>
<path d="M8.31745 4.14258H4.65078C4.31223 4.14258 4.03967 4.41513 4.03967 4.75369C4.03967 5.09224 4.31223 5.3648 4.65078 5.3648H8.31745C8.65601 5.3648 8.92856 5.09224 8.92856 4.75369C8.92856 4.41513 8.65601 4.14258 8.31745 4.14258Z" stroke="#808080" stroke-width="0.2"/>
</svg>
