<svg width="24" height="18" viewBox="0 0 24 18" fill="none" xmlns="http://www.w3.org/2000/svg">
<path d="M18.2222 12.5556C17 12.5556 16 13.5556 16 14.7778C16 16 17 17 18.2222 17C19.4445 17 20.4445 16 20.4445 14.7778C20.4445 13.5556 19.4445 12.5556 18.2222 12.5556ZM18.2222 13.4444C18.9636 13.4444 19.5556 14.0364 19.5556 14.7778C19.5556 15.5191 18.9636 16.1111 18.2222 16.1111C17.4809 16.1111 16.8889 15.5191 16.8889 14.7778C16.8889 14.0364 17.4809 13.4444 18.2222 13.4444ZM6.66669 12.5556C5.44447 12.5556 4.44447 13.5556 4.44447 14.7778C4.44447 16 5.44447 17 6.66669 17C7.88892 17 8.88892 16 8.88892 14.7778C8.88892 13.5556 7.88892 12.5556 6.66669 12.5556ZM6.66669 13.4444C7.40803 13.4444 8.00003 14.0364 8.00003 14.7778C8.00003 15.5191 7.40803 16.1111 6.66669 16.1111C5.92536 16.1111 5.33336 15.5191 5.33336 14.7778C5.33336 14.0364 5.92536 13.4444 6.66669 13.4444ZM2.22225 1C1.49158 1 0.888916 1.60267 0.888916 2.33333V12.1111C0.888916 12.8418 1.49158 13.4444 2.22225 13.4444H4.00003C4.60092 13.4533 4.60092 12.5467 4.00003 12.5556H2.22225C1.96803 12.5556 1.77781 12.3653 1.77781 12.1111V2.33333C1.77781 2.07911 1.96803 1.88889 2.22225 1.88889H13.7778C14.032 1.88889 14.2222 2.07911 14.2222 2.33333V12.5556H9.33336C8.74669 12.5556 8.75736 13.4533 9.33336 13.4444H15.5556C16.1423 13.4444 16.1369 12.5556 15.5556 12.5556H15.1111V4.55556H18.8685L22.2222 9.79644V12.1111C22.2222 12.3653 22.032 12.5556 21.7778 12.5556H20.8889C20.3076 12.5556 20.3076 13.4444 20.8889 13.4444H21.7778C22.5085 13.4444 23.1111 12.8418 23.1111 12.1111V9.66667C23.1111 9.58222 23.0871 9.49778 23.0418 9.42667L19.4862 3.87111C19.4045 3.744 19.264 3.66667 19.1111 3.66667H15.1111V2.33333C15.1111 1.60267 14.5085 1 13.7778 1H2.22225Z" fill="#39A7EA" stroke="#39A7EA" stroke-width="0.2"/>
<path d="M6.41275 6.8412H3.74608C3.49986 6.8412 3.30164 7.03942 3.30164 7.28565C3.30164 7.53187 3.49986 7.73009 3.74608 7.73009H6.41275C6.65897 7.73009 6.85719 7.53187 6.85719 7.28565C6.85719 7.03942 6.65897 6.8412 6.41275 6.8412Z" fill="#39A7EA"/>
<path d="M6.41275 3.28564H3.74608C3.49986 3.28564 3.30164 3.48387 3.30164 3.73009C3.30164 3.97631 3.49986 4.17453 3.74608 4.17453H6.41275C6.65897 4.17453 6.85719 3.97631 6.85719 3.73009C6.85719 3.48387 6.65897 3.28564 6.41275 3.28564Z" fill="#39A7EA"/>
<path d="M6.41275 6.8412H3.74608C3.49986 6.8412 3.30164 7.03942 3.30164 7.28565C3.30164 7.53187 3.49986 7.73009 3.74608 7.73009H6.41275C6.65897 7.73009 6.85719 7.53187 6.85719 7.28565C6.85719 7.03942 6.65897 6.8412 6.41275 6.8412Z" stroke="#39A7EA" stroke-width="0.2"/>
<path d="M6.41275 3.28564H3.74608C3.49986 3.28564 3.30164 3.48387 3.30164 3.73009C3.30164 3.97631 3.49986 4.17453 3.74608 4.17453H6.41275C6.65897 4.17453 6.85719 3.97631 6.85719 3.73009C6.85719 3.48387 6.65897 3.28564 6.41275 3.28564Z" stroke="#39A7EA" stroke-width="0.2"/>
</svg>
