<svg width="14" height="21" viewBox="0 0 14 21" fill="none" xmlns="http://www.w3.org/2000/svg">
<path d="M10.1621 2.87695H7.75397C6.98309 2.87695 6.35596 3.50409 6.35596 4.27496C6.35596 4.6723 6.67929 4.99548 7.07663 4.99548H10.8394C11.2368 4.99548 11.5601 4.6723 11.5601 4.27496C11.5601 3.50409 10.933 2.87695 10.1621 2.87695ZM10.8394 4.68298H7.07663C6.85156 4.68298 6.66846 4.49988 6.66846 4.27496C6.66846 3.67651 7.15536 3.18945 7.75397 3.18945H10.1621C10.7607 3.18945 11.2476 3.67651 11.2476 4.27496C11.2476 4.49988 11.0645 4.68298 10.8394 4.68298Z" fill="#808080" stroke="#808080" stroke-width="0.4"/>
<path d="M12.9636 4.69281C12.942 4.31073 12.8297 3.2536 12.242 2.27002C11.9942 1.85529 11.5337 1.59741 11.0402 1.59741H6.87561C6.38229 1.59741 5.92163 1.85529 5.67368 2.27002C5.56137 2.45801 5.45944 2.66187 5.37003 2.87701H5.20279V2.72076C5.28915 2.72076 5.35904 2.65088 5.35904 2.56451V2.1333C5.35904 2.00604 5.28244 1.89618 5.17288 1.84735L5.06622 0.835693C5.04608 0.644348 4.88571 0.5 4.6933 0.5H2.58713C2.39471 0.5 2.23434 0.644348 2.2142 0.835693L2.10754 1.84766C1.99799 1.89618 1.92154 2.00604 1.92154 2.1333V2.56451C1.92154 2.65088 1.99142 2.72076 2.07779 2.72076V2.88495C1.7926 2.92615 1.54877 3.12329 1.45187 3.4007L0.857391 5.1048C0.735931 5.453 0.674438 5.81677 0.674438 6.18573V17.3765C0.674438 17.6964 0.76355 18.0095 0.932007 18.2817L1.98532 19.9824C2.18628 20.3065 2.53387 20.5 2.91534 20.5H11.5585C11.94 20.5 12.2876 20.3065 12.4886 19.9824L13.5419 18.2817C13.7103 18.0095 13.7994 17.6964 13.7994 17.3765V5.65625C13.7994 5.16614 13.4354 4.75964 12.9636 4.69281ZM2.25098 2.1333H2.69363V1.8208H2.42451L2.52487 0.868652C2.52823 0.836609 2.55508 0.8125 2.58713 0.8125H2.81937H3.13187H3.48404H3.79654H4.14871H4.46121H4.6933C4.72534 0.8125 4.7522 0.836609 4.75555 0.868652L4.85592 1.8208H2.69363V2.1333H5.02945H5.04654V2.40826H2.23404L2.25098 2.1333ZM13.4869 17.3765C13.4869 17.6381 13.414 17.8944 13.2761 18.1169L12.2227 19.8176C12.0795 20.0493 11.8311 20.1875 11.5585 20.1875H2.91534C2.64282 20.1875 2.39441 20.0493 2.25113 19.8176L1.19781 18.1169C1.05988 17.8944 0.986938 17.6381 0.986938 17.3765V6.18573C0.986938 5.85187 1.04263 5.52289 1.1525 5.20795L1.74698 3.50385C1.81259 3.31586 1.99036 3.18951 2.18948 3.18951H2.23404C2.3204 3.18951 2.39029 3.11963 2.39029 3.03326V2.72076H4.89029V3.03326C4.89029 3.11963 4.96017 3.18951 5.04654 3.18951H5.47546C5.53986 3.18951 5.59753 3.15015 5.62103 3.09033C5.71335 2.85413 5.82123 2.63226 5.94193 2.43054C6.13388 2.1095 6.49155 1.90991 6.87561 1.90991H11.0402C11.4243 1.90991 11.7819 2.1095 11.9737 2.43054C12.6465 3.55634 12.6561 4.82678 12.6561 4.83929C12.6562 4.92566 12.7261 4.99554 12.8123 4.99554H12.8262C13.1906 4.99554 13.4869 5.29187 13.4869 5.65625V17.3765Z" fill="#808080"/>
<path d="M2.69363 2.1333H2.25098L2.23404 2.40826H5.04654V2.1333H5.02945H2.69363ZM2.69363 2.1333V1.8208M2.69363 1.8208H2.42451L2.52487 0.868652C2.52823 0.836609 2.55508 0.8125 2.58713 0.8125H2.81937H3.13187H3.48404H3.79654H4.14871H4.46121H4.6933C4.72534 0.8125 4.7522 0.836609 4.75555 0.868652L4.85592 1.8208H2.69363ZM12.9636 4.69281C12.942 4.31073 12.8297 3.2536 12.242 2.27002C11.9942 1.85529 11.5337 1.59741 11.0402 1.59741H6.87561C6.38229 1.59741 5.92163 1.85529 5.67368 2.27002C5.56137 2.45801 5.45944 2.66187 5.37003 2.87701H5.20279V2.72076C5.28915 2.72076 5.35904 2.65088 5.35904 2.56451V2.1333C5.35904 2.00604 5.28244 1.89618 5.17288 1.84735L5.06622 0.835693C5.04608 0.644348 4.88571 0.5 4.6933 0.5H2.58713C2.39471 0.5 2.23434 0.644348 2.2142 0.835693L2.10754 1.84766C1.99799 1.89618 1.92154 2.00604 1.92154 2.1333V2.56451C1.92154 2.65088 1.99142 2.72076 2.07779 2.72076V2.88495C1.7926 2.92615 1.54877 3.12329 1.45187 3.4007L0.857391 5.1048C0.735931 5.453 0.674438 5.81677 0.674438 6.18573V17.3765C0.674438 17.6964 0.76355 18.0095 0.932007 18.2817L1.98532 19.9824C2.18628 20.3065 2.53387 20.5 2.91534 20.5H11.5585C11.94 20.5 12.2876 20.3065 12.4886 19.9824L13.5419 18.2817C13.7103 18.0095 13.7994 17.6964 13.7994 17.3765V5.65625C13.7994 5.16614 13.4354 4.75964 12.9636 4.69281ZM13.4869 17.3765C13.4869 17.6381 13.414 17.8944 13.2761 18.1169L12.2227 19.8176C12.0795 20.0493 11.8311 20.1875 11.5585 20.1875H2.91534C2.64282 20.1875 2.39441 20.0493 2.25113 19.8176L1.19781 18.1169C1.05988 17.8944 0.986938 17.6381 0.986938 17.3765V6.18573C0.986938 5.85187 1.04263 5.52289 1.1525 5.20795L1.74698 3.50385C1.81259 3.31586 1.99036 3.18951 2.18948 3.18951H2.23404C2.3204 3.18951 2.39029 3.11963 2.39029 3.03326V2.72076H4.89029V3.03326C4.89029 3.11963 4.96017 3.18951 5.04654 3.18951H5.47546C5.53986 3.18951 5.59753 3.15015 5.62103 3.09033C5.71335 2.85413 5.82123 2.63226 5.94193 2.43054C6.13388 2.1095 6.49155 1.90991 6.87561 1.90991H11.0402C11.4243 1.90991 11.7819 2.1095 11.9737 2.43054C12.6465 3.55634 12.6561 4.82678 12.6561 4.83929C12.6563 4.92566 12.7261 4.99554 12.8123 4.99554H12.8262C13.1906 4.99554 13.4869 5.29187 13.4869 5.65625V17.3765Z" stroke="#808080" stroke-width="0.4"/>
<path d="M1.29944 18.8335C1.29944 18.8335 12.6752 18.8335 12.9661 18.8335" stroke="#808080"/>
</svg>
