<svg width="134" height="180" viewBox="0 0 134 180" fill="none" xmlns="http://www.w3.org/2000/svg">
<path d="M87.8972 0H8.70882C4.28682 0 0.698639 3.64908 0.698639 8.16008V171.179C0.698639 175.681 4.28682 179.339 8.70882 179.339H87.8972C92.3239 179.339 95.9167 175.681 95.9167 171.179V8.16008C95.9167 3.64908 92.3239 0 87.8972 0ZM90.9092 166.139C90.9092 170.429 87.6958 173.901 83.7328 173.901H12.8872C8.91493 173.901 5.70149 170.429 5.70149 166.139V14.3387C5.70149 5.59776 8.91493 5.17149 12.8872 5.17149H27.076C27.9005 5.17149 28.575 6.10835 28.575 7.27006V7.77128C28.575 10.4929 30.0646 10.5022 31.8962 10.5022H64.7145C66.5601 10.5022 68.0357 10.4929 68.0357 7.77128V7.27006C68.0357 6.10835 68.7009 5.17149 69.5394 5.17149H83.7328C87.6958 5.17149 90.9092 6.3332 90.9092 14.3387V166.139Z" fill="#E1E1E1"/>
<path d="M52.7817 7.10281H43.83C43.5246 7.10281 43.2772 6.85548 43.2772 6.55006C43.2772 6.24465 43.5246 5.99731 43.83 5.99731H52.7817C53.0871 5.99731 53.3344 6.24465 53.3344 6.55006C53.3349 6.85548 53.0871 7.10281 52.7817 7.10281Z" fill="white"/>
<path d="M90.9102 14.3387V166.139C90.9102 170.43 87.6967 173.901 83.7338 173.901H12.8882C8.91589 173.901 5.70245 170.43 5.70245 166.139V14.3387C5.70245 5.59778 8.91589 5.17151 12.8882 5.17151H27.077C27.9014 5.17151 28.576 6.10837 28.576 7.27008V7.77131C28.576 10.4929 30.0656 10.5023 31.8972 10.5023H64.7155C66.5611 10.5023 68.0367 10.4929 68.0367 7.77131V7.27008C68.0367 6.10837 68.7018 5.17151 69.5403 5.17151H83.7338C87.6967 5.17151 90.9102 6.33322 90.9102 14.3387Z" fill="white"/>
<path d="M14.3262 24.4728L11.8089 22.1143L14.3262 19.7557L14.7169 20.1717L12.6436 22.1143L14.7169 24.0569L14.3262 24.4728Z" fill="#C7C7C7"/>
<path d="M84.3113 20.6452C84.3113 20.9187 84.0897 21.1403 83.8161 21.1403C83.5426 21.1403 83.321 20.9187 83.321 20.6452C83.321 20.3716 83.5426 20.15 83.8161 20.15C84.0897 20.15 84.3113 20.3716 84.3113 20.6452Z" fill="#C7C7C7"/>
<path d="M84.3113 22.4065C84.3113 22.6801 84.0897 22.9016 83.8161 22.9016C83.5426 22.9016 83.321 22.6801 83.321 22.4065C83.321 22.1329 83.5426 21.9114 83.8161 21.9114C84.0897 21.9114 84.3113 22.1329 84.3113 22.4065Z" fill="#C7C7C7"/>
<path d="M84.3113 24.1677C84.3113 24.4413 84.0897 24.6629 83.8161 24.6629C83.5426 24.6629 83.321 24.4408 83.321 24.1677C83.321 23.8942 83.5426 23.6726 83.8161 23.6726C84.0897 23.6726 84.3113 23.8946 84.3113 24.1677Z" fill="#C7C7C7"/>
<path d="M41.6021 23.5974C41.6611 23.5253 41.7698 23.5154 41.8419 23.5745C41.9862 23.6925 42.2359 23.8302 42.4687 23.8269C42.6326 23.8269 42.7802 23.7778 42.8786 23.7056C42.9769 23.6335 43.02 23.551 43.02 23.4695C43.02 23.4269 43.0102 23.3974 42.9905 23.3646C42.9709 23.3318 42.9413 23.299 42.8922 23.2658C42.7971 23.2035 42.6359 23.1477 42.4425 23.1116H42.4359C42.2818 23.0821 42.137 23.0428 42.0129 22.9838C41.8878 22.9247 41.7801 22.8428 41.708 22.728C41.6588 22.6493 41.6325 22.5575 41.6325 22.4591C41.6325 22.2624 41.744 22.0914 41.8953 21.9799C42.0494 21.8684 42.2495 21.8057 42.4626 21.8057C42.7779 21.8057 43.0107 21.9602 43.1779 22.0685C43.2533 22.1209 43.2763 22.2258 43.2238 22.3013C43.1751 22.38 43.0697 22.4029 42.991 22.3504C42.8238 22.239 42.6631 22.1406 42.4626 22.1406C42.3155 22.1406 42.1839 22.1865 42.0954 22.2521C42.0068 22.3177 41.9707 22.3898 41.9707 22.4587C41.9707 22.498 41.9773 22.5242 41.9937 22.5505C42.0101 22.5767 42.0396 22.6062 42.0822 22.6357C42.168 22.6947 42.3155 22.7472 42.4926 22.7805H42.4991C42.6664 22.8133 42.821 22.8559 42.9521 22.9182C43.0866 22.9838 43.2046 23.069 43.28 23.1908C43.3292 23.2695 43.3587 23.3679 43.3587 23.4695C43.3587 23.6794 43.2407 23.8602 43.0767 23.9783C42.9156 24.0963 42.7024 24.1652 42.4696 24.1652C42.115 24.1619 41.8166 23.9848 41.6297 23.8368C41.5567 23.7778 41.5463 23.6696 41.6021 23.5974Z" fill="#C7C7C7"/>
<path d="M43.8848 22.0519C43.8848 21.9503 43.9635 21.8716 44.0656 21.8716C44.164 21.8716 44.2493 21.9503 44.2493 22.0519V23.9875C44.2493 24.0891 44.164 24.1678 44.0656 24.1678C43.9635 24.1678 43.8848 24.0891 43.8848 23.9875V22.0519Z" fill="#C7C7C7"/>
<path d="M44.7602 22.9903C44.7602 22.3308 45.3045 21.8057 45.9707 21.8057C46.2498 21.8057 46.5154 21.9008 46.7187 22.0614C46.8045 22.1237 46.8176 22.2455 46.7548 22.327C46.6925 22.4057 46.5712 22.4221 46.4892 22.3565C46.3482 22.2483 46.1679 22.1795 45.9711 22.1795C45.735 22.1795 45.5285 22.268 45.3804 22.4188C45.2263 22.5664 45.1345 22.7664 45.1345 22.9899C45.1345 23.2063 45.2263 23.4063 45.3804 23.5543C45.528 23.7052 45.735 23.7937 45.9711 23.7937C46.1355 23.7937 46.2897 23.7445 46.4208 23.6691V23.2199H45.9514C45.8498 23.2199 45.7641 23.1346 45.7641 23.033C45.7641 22.928 45.8498 22.8493 45.9514 22.8493H46.5979C46.6012 22.8493 46.6012 22.8493 46.6012 22.8493C46.6044 22.8493 46.6044 22.8493 46.6044 22.8493C46.7098 22.8493 46.7946 22.928 46.7946 23.033V23.7581C46.7946 23.781 46.7881 23.7942 46.7848 23.8138C46.7815 23.8204 46.7815 23.8237 46.7778 23.8302V23.8335C46.7684 23.863 46.7482 23.8892 46.7155 23.9122C46.5089 24.0729 46.2498 24.168 45.9707 24.168C45.3045 24.168 44.7602 23.6466 44.7602 22.9903Z" fill="#C7C7C7"/>
<path d="M47.8917 23.9876C47.8917 24.086 47.8097 24.1679 47.7146 24.1679C47.6125 24.1679 47.5338 24.086 47.5338 23.9876V22.0815C47.5338 22.0815 47.5338 22.0815 47.5338 22.0783C47.5305 22.0225 47.5567 21.9635 47.6059 21.9274C47.6879 21.8717 47.7994 21.8881 47.8551 21.9668L48.9147 23.4334V22.0815C48.9147 21.9865 48.9939 21.9045 49.0923 21.9045C49.1906 21.9045 49.2726 21.9865 49.2726 22.0815V23.9876C49.2726 24.086 49.1906 24.1679 49.0923 24.1679C49.0398 24.1679 48.9901 24.1417 48.9578 24.1024C48.9508 24.0958 48.9447 24.0892 48.9414 24.0827L47.8917 22.6259V23.9876Z" fill="#C7C7C7"/>
<path d="M51.9942 24.1678C51.4658 24.1678 51.0461 23.7411 51.0461 23.2197V22.0514C51.0461 21.9498 51.1248 21.8711 51.2269 21.8711C51.3253 21.8711 51.4105 21.9498 51.4105 22.0514V23.2197C51.4105 23.5411 51.6733 23.8038 51.9947 23.8038C52.3193 23.8038 52.5783 23.5411 52.5783 23.2197V22.0514C52.5783 21.9498 52.6608 21.8711 52.7624 21.8711C52.8641 21.8711 52.9428 21.9498 52.9428 22.0514V23.2197C52.9423 23.7415 52.5188 24.1678 51.9942 24.1678Z" fill="#C7C7C7"/>
<path d="M54.4792 23.2755H54.0759V23.9875C54.0759 24.0859 53.9939 24.1678 53.8918 24.1678C53.7935 24.1678 53.7115 24.0859 53.7115 23.9875V22.0519C53.7115 21.9503 53.7935 21.8716 53.8918 21.8716H53.8956H54.4792C54.8699 21.8716 55.1847 22.1864 55.1847 22.577C55.1847 22.9607 54.8699 23.2755 54.4792 23.2755ZM54.0754 22.9115H54.4788C54.669 22.9115 54.817 22.7607 54.8198 22.577C54.8165 22.3869 54.669 22.236 54.4788 22.236H54.0754V22.9115Z" fill="#C7C7C7"/>
<path d="M24.6289 8.58121C24.583 8.62665 24.5376 8.67162 24.4917 8.71752C24.4655 8.74329 24.4397 8.76952 24.4139 8.79575C24.0457 8.43834 23.6068 8.24769 23.0934 8.24722C22.58 8.24722 22.1416 8.4374 21.7701 8.79716C21.7457 8.77186 21.7214 8.74563 21.6961 8.71986C21.6511 8.67443 21.6061 8.62899 21.5607 8.58402C21.5598 8.58308 21.5579 8.58262 21.5565 8.58168C21.5565 8.58074 21.5565 8.57934 21.5565 8.5784C21.5598 8.57559 21.5635 8.57325 21.5668 8.56997C21.6244 8.51891 21.6806 8.46551 21.7401 8.41632C21.8633 8.31467 21.9978 8.23082 22.1411 8.16056C22.3102 8.07764 22.4873 8.01581 22.6728 7.98209C22.7604 7.96569 22.8498 7.95773 22.9384 7.94696C22.9683 7.94321 23.1646 7.94227 23.1707 7.94274C23.2311 7.94742 23.2916 7.95023 23.352 7.95632C23.5192 7.97459 23.6813 8.01488 23.8396 8.07249C23.9539 8.11418 24.064 8.16618 24.1694 8.22661C24.2809 8.29078 24.3863 8.36339 24.4842 8.44724C24.5334 8.4894 24.5807 8.5339 24.6289 8.57746C24.6289 8.57887 24.6289 8.5798 24.6289 8.58121Z" fill="#C7C7C7"/>
<path d="M22.2052 9.22618C22.1326 9.15451 22.0614 9.08378 21.9883 9.01117C22.2352 8.76899 22.527 8.61488 22.8699 8.5685C23.3824 8.49917 23.8227 8.65469 24.196 9.00789C24.1225 9.08144 24.0508 9.15264 23.9787 9.22431C23.7337 8.98634 23.4381 8.85753 23.0924 8.85799C22.7472 8.85846 22.4521 8.98681 22.2052 9.22618Z" fill="#C7C7C7"/>
<path d="M23.7623 9.44215C23.6911 9.51382 23.6194 9.58502 23.5468 9.65763C23.4222 9.5363 23.2704 9.46932 23.0924 9.46932C22.9149 9.46979 22.7641 9.53631 22.638 9.65857C22.5659 9.58643 22.4942 9.51476 22.423 9.44356C22.7659 9.08427 23.3828 9.05569 23.7623 9.44215Z" fill="#C7C7C7"/>
<path d="M23.2873 9.85356C23.2873 9.9613 23.2002 10.0484 23.0924 10.0484C22.9852 10.0484 22.898 9.9613 22.898 9.85356C22.898 9.74629 22.9852 9.65869 23.0924 9.65869C23.2002 9.65916 23.2873 9.74629 23.2873 9.85356Z" fill="#C7C7C7"/>
<path d="M11.258 8.99525C11.258 8.68327 11.511 8.43079 11.823 8.43079C12.1349 8.43079 12.3879 8.68374 12.3879 8.99525C12.3879 9.30722 12.1349 9.5597 11.823 9.5597C11.511 9.56017 11.258 9.30722 11.258 8.99525Z" fill="#C7C7C7"/>
<path d="M13.0366 8.99525C13.0366 8.68327 13.2895 8.43079 13.6015 8.43079C13.9135 8.43079 14.166 8.68374 14.166 8.99525C14.166 9.30722 13.913 9.5597 13.6015 9.5597C13.2895 9.56017 13.0366 9.30722 13.0366 8.99525Z" fill="#C7C7C7"/>
<path d="M14.8153 8.99525C14.8153 8.68327 15.0683 8.43079 15.3802 8.43079C15.6922 8.43079 15.9452 8.68374 15.9452 8.99525C15.9452 9.30722 15.6922 9.5597 15.3802 9.5597C15.0683 9.5597 14.8153 9.30722 14.8153 8.99525Z" fill="#C7C7C7"/>
<path d="M16.5939 8.99525C16.5939 8.68327 16.8468 8.43079 17.1583 8.43079C17.4698 8.43079 17.7233 8.68374 17.7233 8.99525C17.7233 9.30722 17.4703 9.5597 17.1583 9.5597C16.8464 9.5597 16.5939 9.30722 16.5939 8.99525Z" fill="#C7C7C7"/>
<path d="M18.3726 8.99525C18.3726 8.68327 18.6255 8.43079 18.9375 8.43079C19.2495 8.43079 19.502 8.68374 19.502 8.99525C19.502 9.30722 19.249 9.5597 18.9375 9.5597C18.6255 9.56017 18.3726 9.30722 18.3726 8.99525Z" fill="#C7C7C7"/>
<path d="M84.5202 10.2314H79.9169V8.09534H84.5202V10.2314ZM80.1577 9.99061H84.2794V8.33611H80.1577V9.99061Z" fill="#C7C7C7"/>
<path d="M83.2654 8.46033H80.3021V9.86656H83.2654V8.46033Z" fill="#C7C7C7"/>
<path d="M84.9291 8.59387H84.5202V9.7331H84.9291V8.59387Z" fill="#C7C7C7"/>
<path d="M16.5561 165.7H16.1396V167.612H15.3616V166.638H13.9839V167.612H13.2058V165.7H12.7894L14.6725 163.754L16.5561 165.7Z" fill="#EBEBEB"/>
<path d="M84.0007 163.754H79.4607V164.403H84.0007V163.754Z" fill="#EBEBEB"/>
<path d="M84.0007 165.359H79.4607V166.007H84.0007V165.359Z" fill="#EBEBEB"/>
<path d="M84.0007 166.964H79.4607V167.612H84.0007V166.964Z" fill="#EBEBEB"/>
<path d="M49.7299 165.75L48.4389 167.128L47.1484 165.75L47.376 165.536L48.4389 166.671L49.5022 165.536L49.7299 165.75Z" fill="#EBEBEB"/>
<path d="M48.4388 168.551C47.1459 168.551 46.0938 167.498 46.0938 166.206C46.0938 164.913 47.1459 163.861 48.4388 163.861C49.7317 163.861 50.7838 164.913 50.7838 166.206C50.7838 167.498 49.7317 168.551 48.4388 168.551ZM48.4388 164.171C47.3164 164.171 46.4035 165.084 46.4035 166.206C46.4035 167.328 47.3164 168.241 48.4388 168.241C49.5612 168.241 50.4741 167.328 50.4741 166.206C50.4741 165.083 49.5612 164.171 48.4388 164.171Z" fill="#EBEBEB"/>
<path d="M21.3701 66.8415C20.8637 66.8415 20.4614 66.4326 20.4614 65.9328V64.8132C20.4614 64.7158 20.5368 64.6404 20.6342 64.6404C20.7288 64.6404 20.8103 64.7158 20.8103 64.8132V65.9328C20.8103 66.241 21.0619 66.4926 21.3701 66.4926C21.6816 66.4926 21.9299 66.241 21.9299 65.9328V64.8132C21.9299 64.7158 22.0086 64.6404 22.106 64.6404C22.2035 64.6404 22.2789 64.7158 22.2789 64.8132V65.9328C22.2794 66.4326 21.8732 66.8415 21.3701 66.8415Z" fill="#263238"/>
<path d="M22.908 66.3918C22.9646 66.3164 23.0747 66.3066 23.1436 66.3665C23.2256 66.4354 23.367 66.508 23.4893 66.5047C23.5746 66.5047 23.6532 66.4761 23.7034 66.4447C23.7474 66.4068 23.76 66.3754 23.76 66.3501C23.76 66.3342 23.7568 66.3281 23.7507 66.3187C23.7474 66.3094 23.7348 66.2967 23.7099 66.2808C23.6659 66.2494 23.5717 66.2147 23.4584 66.1927H23.4551C23.3577 66.174 23.263 66.1487 23.1815 66.1108C23.0967 66.07 23.0213 66.0133 22.9647 65.9281C22.93 65.8714 22.9112 65.8021 22.9112 65.7299C22.9112 65.5852 22.9932 65.4629 23.0967 65.3842C23.2068 65.3088 23.3389 65.2676 23.4837 65.2676C23.7006 65.2676 23.8551 65.3716 23.9554 65.4404C24.0308 65.4906 24.0528 65.5945 24.0055 65.6732C23.9554 65.7487 23.8514 65.7707 23.7727 65.7173C23.672 65.6512 23.5839 65.6006 23.4832 65.6006C23.4045 65.6006 23.3357 65.6259 23.2944 65.6573C23.2537 65.6859 23.2443 65.714 23.2443 65.7295C23.2443 65.7421 23.2443 65.7454 23.2509 65.7548C23.2537 65.7613 23.263 65.774 23.2855 65.7861C23.3263 65.8147 23.4083 65.8428 23.5151 65.8616L23.5183 65.8648H23.5216C23.6256 65.8836 23.723 65.9121 23.8139 65.9557C23.8987 65.9937 23.9835 66.0531 24.0374 66.1412C24.0753 66.204 24.0973 66.2766 24.0973 66.3487C24.0973 66.5028 24.0125 66.6317 23.8992 66.7136C23.7858 66.7923 23.6443 66.8396 23.4902 66.8396C23.2452 66.8364 23.0565 66.723 22.9305 66.6228C22.8607 66.5679 22.8513 66.4607 22.908 66.3918Z" fill="#263238"/>
<path d="M24.4204 66.0551C24.4232 65.6274 24.7567 65.269 25.1877 65.269C25.5966 65.269 25.9203 65.574 25.9456 65.9989C25.9456 66.0021 25.9456 66.0082 25.9456 66.0148C25.9456 66.0209 25.9456 66.0368 25.9423 66.0434C25.933 66.1188 25.8669 66.1689 25.7789 66.1689H24.7788C24.7947 66.241 24.8289 66.323 24.8856 66.3764C24.9516 66.4518 25.0776 66.5085 25.1877 66.5179C25.3011 66.5273 25.4364 66.4991 25.5147 66.4392C25.5807 66.3699 25.7095 66.3792 25.7508 66.4298C25.7915 66.4738 25.8229 66.568 25.7508 66.6341C25.5966 66.7755 25.4111 66.8416 25.1877 66.8416C24.7567 66.8383 24.4232 66.4827 24.4204 66.0551ZM24.7628 65.901H25.6529C25.6215 65.7754 25.4608 65.5899 25.1872 65.5674C24.9202 65.5801 24.7881 65.7721 24.7628 65.901Z" fill="#263238"/>
<path d="M27.3482 65.4357C27.3482 65.5238 27.2761 65.602 27.1814 65.602C27.1093 65.602 27.0461 65.6212 26.9927 65.6619C26.9332 65.6994 26.8854 65.7528 26.8479 65.8128C26.7725 65.9135 26.7346 66.0329 26.7191 66.077V66.6742C26.7191 66.7656 26.6404 66.841 26.5462 66.841C26.4549 66.841 26.3795 66.7656 26.3795 66.6742V65.4352C26.3795 65.3439 26.4549 65.2717 26.5462 65.2717C26.6404 65.2717 26.7191 65.3439 26.7191 65.4352V65.4572C26.7378 65.4352 26.7631 65.4099 26.7851 65.3945C26.8891 65.3251 27.0245 65.2685 27.1814 65.2717C27.2761 65.2717 27.3482 65.3444 27.3482 65.4357Z" fill="#263238"/>
<path d="M29.0715 65.923V66.6743C29.0715 66.7657 28.9994 66.8411 28.9081 66.8411C28.82 66.8411 28.7413 66.7657 28.7413 66.6743V65.923C28.7413 65.7468 28.5933 65.6054 28.4143 65.6054C28.2382 65.6054 28.1 65.7468 28.1 65.923V66.6743C28.1 66.6837 28.1 66.6935 28.0935 66.7057C28.078 66.7811 28.0087 66.8411 27.9272 66.8411C27.8325 66.8411 27.7604 66.7657 27.7604 66.6743V65.923V65.4358C27.7604 65.3445 27.8325 65.269 27.9272 65.269C27.9932 65.269 28.0532 65.307 28.0813 65.3665C28.1759 65.307 28.2921 65.269 28.4148 65.269C28.7788 65.269 29.0715 65.5674 29.0715 65.923Z" fill="#263238"/>
<path d="M31.0179 66.0583V66.6748C31.0179 66.7662 30.9425 66.8416 30.8512 66.8416C30.7697 66.8416 30.7064 66.7816 30.6877 66.7062C30.5682 66.791 30.4268 66.8416 30.2694 66.8416C30.0558 66.8416 29.8698 66.7535 29.7349 66.612C29.5995 66.4673 29.5208 66.2724 29.5208 66.0583C29.5208 65.8415 29.5995 65.6466 29.7349 65.5047C29.8698 65.3599 30.0558 65.269 30.2694 65.269C30.4268 65.269 30.5682 65.3224 30.6877 65.4072C30.7069 65.3285 30.7697 65.269 30.8512 65.269C30.9425 65.269 31.0179 65.3445 31.0179 65.4391V66.0583ZM30.6849 66.0583C30.6849 65.9263 30.6376 65.8129 30.5621 65.7347C30.4867 65.6499 30.3799 65.6058 30.2698 65.6058C30.1569 65.6058 30.0497 65.6499 29.9775 65.7347C29.9021 65.8134 29.8581 65.9267 29.8581 66.0583C29.8581 66.1872 29.9021 66.3005 29.9775 66.382C30.0497 66.4607 30.1569 66.5048 30.2698 66.5048C30.3799 66.5048 30.4867 66.4607 30.5621 66.382C30.6376 66.3005 30.6849 66.1872 30.6849 66.0583Z" fill="#263238"/>
<path d="M32.9487 65.9196C32.9487 65.9228 32.9487 65.9261 32.9487 65.9289V66.6742C32.9487 66.7655 32.8733 66.841 32.782 66.841C32.6939 66.841 32.6119 66.7655 32.6119 66.6742V65.9289C32.6119 65.9261 32.6119 65.9228 32.6119 65.9196C32.6087 65.7467 32.4639 65.6052 32.2878 65.6052C32.1145 65.6052 31.9702 65.75 31.9702 65.9289V66.6742C31.9702 66.6808 31.9669 66.6901 31.9669 66.6962C31.9669 66.699 31.9669 66.7056 31.9669 66.7056C31.9636 66.7117 31.9636 66.7182 31.9575 66.7243C31.9575 66.7276 31.9575 66.7337 31.9575 66.7402C31.929 66.7969 31.8662 66.841 31.8001 66.841C31.7875 66.841 31.7781 66.8377 31.7688 66.8377C31.6933 66.8189 31.6339 66.7562 31.6339 66.6742V65.9289C31.6339 65.9261 31.6339 65.9261 31.6339 65.9261V65.4385C31.6339 65.341 31.7093 65.2684 31.8006 65.2684C31.8667 65.2684 31.9266 65.3031 31.9514 65.3631C32.0522 65.3031 32.1683 65.2684 32.2878 65.2684C32.4859 65.2684 32.6621 65.3499 32.7815 65.4853C32.8977 65.3499 33.0771 65.2684 33.2752 65.2684C33.6369 65.2684 33.9292 65.564 33.9292 65.9289V66.6742C33.9292 66.7655 33.8537 66.841 33.7629 66.841C33.6715 66.841 33.5928 66.7655 33.5928 66.6742V65.9289C33.5928 65.75 33.4481 65.6052 33.2752 65.6052C33.0963 65.6052 32.9553 65.7467 32.9487 65.9196Z" fill="#263238"/>
<path d="M34.5147 66.0551C34.518 65.6274 34.8515 65.269 35.2825 65.269C35.6909 65.269 36.0151 65.574 36.0404 65.9989C36.0404 66.0021 36.0404 66.0082 36.0404 66.0148C36.0404 66.0209 36.0404 66.0368 36.0376 66.0434C36.0282 66.1188 35.9622 66.1689 35.8736 66.1689H34.8735C34.8895 66.241 34.9237 66.323 34.9808 66.3764C35.0469 66.4518 35.1724 66.5085 35.2829 66.5179C35.3958 66.5273 35.5312 66.4991 35.6099 66.4392C35.676 66.3699 35.8048 66.3792 35.8455 66.4298C35.8863 66.4738 35.9177 66.568 35.8455 66.6341C35.6914 66.7755 35.5059 66.8416 35.2825 66.8416C34.851 66.8383 34.5175 66.4827 34.5147 66.0551ZM34.8576 65.901H35.7476C35.7162 65.7754 35.556 65.5899 35.2825 65.5674C35.015 65.5801 34.8824 65.7721 34.8576 65.901Z" fill="#263238"/>
<path d="M76.6857 69.2412H19.9291V75.9838H76.6857V69.2412Z" fill="#EBEBEB"/>
<path d="M20.458 82.8249V80.9695C20.458 80.872 20.5334 80.7966 20.6309 80.7966H20.6341C20.6341 80.7966 20.6341 80.7966 20.6402 80.7966H21.6595C21.7504 80.7966 21.8324 80.872 21.8324 80.9695C21.8324 81.0669 21.7504 81.1456 21.6595 81.1456H20.807V81.7213H21.5396C21.6342 81.7213 21.7125 81.8028 21.7125 81.8942C21.7125 81.9916 21.6342 82.0703 21.5396 82.0703H20.807V82.6488H21.6595C21.7504 82.6488 21.8324 82.7275 21.8324 82.8249C21.8324 82.9191 21.7504 82.9978 21.6595 82.9978H20.6402C20.6341 82.9978 20.6341 82.9945 20.6341 82.9945L20.6309 82.9978C20.5334 82.9978 20.458 82.9191 20.458 82.8249Z" fill="#263238"/>
<path d="M23.603 82.0764C23.603 82.0797 23.603 82.083 23.603 82.0858V82.8311C23.603 82.9224 23.5276 82.9978 23.4367 82.9978C23.3487 82.9978 23.2667 82.9224 23.2667 82.8311V82.0858C23.2667 82.083 23.2667 82.0797 23.2667 82.0764C23.2634 81.9036 23.1191 81.7621 22.943 81.7621C22.7697 81.7621 22.6254 81.9068 22.6254 82.0858V82.8311C22.6254 82.8376 22.6221 82.847 22.6221 82.8531C22.6221 82.8559 22.6221 82.8624 22.6221 82.8624C22.6189 82.8685 22.6188 82.8751 22.6128 82.8812C22.6128 82.8845 22.6128 82.8905 22.6128 82.8971C22.5842 82.9538 22.5214 82.9978 22.4554 82.9978C22.4427 82.9978 22.4334 82.9945 22.424 82.9945C22.3486 82.9758 22.2886 82.913 22.2886 82.8311V82.0858C22.2886 82.083 22.2886 82.083 22.2886 82.083V81.5953C22.2886 81.4979 22.364 81.4253 22.4554 81.4253C22.5214 81.4253 22.5814 81.46 22.6062 81.5199C22.7069 81.46 22.8231 81.4253 22.9425 81.4253C23.1407 81.4253 23.3168 81.5068 23.4363 81.6422C23.5524 81.5068 23.7318 81.4253 23.93 81.4253C24.2916 81.4253 24.5839 81.7209 24.5839 82.0858V82.8311C24.5839 82.9224 24.5085 82.9978 24.4176 82.9978C24.3263 82.9978 24.2476 82.9224 24.2476 82.8311V82.0858C24.2476 81.9068 24.1028 81.7621 23.93 81.7621C23.7506 81.7616 23.6091 81.9031 23.603 82.0764Z" fill="#263238"/>
<path d="M26.609 82.2146V82.8311C26.609 82.9224 26.5336 82.9978 26.4423 82.9978C26.3608 82.9978 26.2975 82.9379 26.2788 82.8624C26.1594 82.9472 26.0179 82.9978 25.8605 82.9978C25.6469 82.9978 25.4609 82.9097 25.326 82.7683C25.1906 82.6235 25.1119 82.4287 25.1119 82.2146C25.1119 81.9977 25.1906 81.8028 25.326 81.6609C25.4609 81.5162 25.6469 81.4253 25.8605 81.4253C26.0179 81.4253 26.1594 81.4787 26.2788 81.5635C26.298 81.4848 26.3608 81.4253 26.4423 81.4253C26.5336 81.4253 26.609 81.5007 26.609 81.5953V82.2146ZM26.276 82.2146C26.276 82.0825 26.2287 81.9696 26.1533 81.8909C26.0778 81.8061 25.971 81.7621 25.861 81.7621C25.7481 81.7621 25.6408 81.8061 25.5687 81.8909C25.4932 81.9696 25.4492 82.083 25.4492 82.2146C25.4492 82.3434 25.4932 82.4568 25.5687 82.5383C25.6408 82.617 25.7481 82.661 25.861 82.661C25.971 82.661 26.0778 82.617 26.1533 82.5383C26.2287 82.4568 26.276 82.3434 26.276 82.2146Z" fill="#263238"/>
<path d="M27.5684 81.0317C27.5684 81.1264 27.4963 81.2046 27.3988 81.2046C27.3047 81.2046 27.2292 81.1264 27.2292 81.0317V80.9657C27.2292 80.8711 27.3047 80.7957 27.3988 80.7957C27.4963 80.7957 27.5684 80.8711 27.5684 80.9657V81.0317ZM27.5684 81.6014V82.8282C27.5684 82.9223 27.4963 82.9978 27.3988 82.9978C27.3047 82.9978 27.2292 82.9223 27.2292 82.8282V81.6014C27.2292 81.5006 27.3047 81.4285 27.3988 81.4285C27.4958 81.4285 27.5684 81.5006 27.5684 81.6014Z" fill="#263238"/>
<path d="M28.2377 80.7961C28.3351 80.7961 28.4138 80.8748 28.4138 80.969V82.8245C28.4138 82.9186 28.3351 82.9973 28.2377 82.9973C28.1435 82.9973 28.0648 82.9186 28.0648 82.8245V80.969C28.0648 80.8748 28.1435 80.7961 28.2377 80.7961Z" fill="#263238"/>
<path d="M76.6857 85.3979H19.9291V92.1406H76.6857V85.3979Z" fill="#EBEBEB"/>
<path d="M21.1939 98.2986H20.807V98.9811C20.807 99.0752 20.7288 99.1539 20.6309 99.1539C20.5367 99.1539 20.458 99.0752 20.458 98.9811V97.1256C20.458 97.0277 20.5367 96.9528 20.6309 96.9528H20.6341H21.1939C21.5682 96.9528 21.8703 97.2549 21.8703 97.6287C21.8703 97.9969 21.5682 98.2986 21.1939 98.2986ZM20.807 97.9496H21.1939C21.3766 97.9496 21.5181 97.8048 21.5209 97.6287C21.5181 97.446 21.3761 97.3017 21.1939 97.3017H20.807V97.9496Z" fill="#263238"/>
<path d="M23.5872 98.3712V98.9876C23.5872 99.0785 23.5118 99.1539 23.4204 99.1539C23.3389 99.1539 23.2757 99.094 23.2569 99.0185C23.1375 99.1038 22.996 99.1539 22.8386 99.1539C22.625 99.1539 22.4395 99.0659 22.3042 98.9244C22.1688 98.7797 22.0905 98.5848 22.0905 98.3707C22.0905 98.1538 22.1692 97.959 22.3042 97.817C22.4395 97.6723 22.625 97.5809 22.8386 97.5809C22.996 97.5809 23.1375 97.6343 23.2569 97.7196C23.2757 97.6409 23.3389 97.5809 23.4204 97.5809C23.5118 97.5809 23.5872 97.6568 23.5872 97.751V98.3712ZM23.2541 98.3712C23.2541 98.2391 23.2068 98.1262 23.1314 98.0475C23.056 97.9622 22.9492 97.9187 22.8391 97.9187C22.7262 97.9187 22.6189 97.9627 22.5468 98.0475C22.4714 98.1262 22.4274 98.2391 22.4274 98.3712C22.4274 98.5 22.4714 98.6138 22.5468 98.6949C22.6189 98.7736 22.7262 98.8176 22.8391 98.8176C22.9492 98.8176 23.056 98.7736 23.1314 98.6949C23.2068 98.6134 23.2541 98.5 23.2541 98.3712Z" fill="#263238"/>
<path d="M24.1278 98.7042C24.1844 98.6288 24.2945 98.619 24.3638 98.6789C24.4458 98.7478 24.5873 98.8204 24.7096 98.8171C24.7948 98.8171 24.8735 98.7886 24.9236 98.7576C24.9677 98.7197 24.9803 98.6883 24.9803 98.6635C24.9803 98.6476 24.977 98.641 24.9709 98.6321C24.9677 98.6223 24.955 98.6101 24.9302 98.5942C24.8861 98.5632 24.792 98.5281 24.6786 98.5061H24.6754C24.5779 98.4869 24.4833 98.4621 24.4018 98.4241C24.317 98.3834 24.2416 98.3267 24.1849 98.2414C24.1502 98.1847 24.1315 98.1154 24.1315 98.0433C24.1315 97.8985 24.2135 97.7763 24.317 97.6976C24.4271 97.6222 24.5592 97.5809 24.7039 97.5809C24.9208 97.5809 25.0749 97.6849 25.1756 97.7543C25.2511 97.8044 25.2731 97.9084 25.2258 97.9866C25.1756 98.062 25.0716 98.084 24.9929 98.0311C24.8922 97.9646 24.8042 97.9145 24.7035 97.9145C24.6248 97.9145 24.5554 97.9398 24.5147 97.9711C24.4739 97.9997 24.4646 98.0278 24.4646 98.0433C24.4646 98.0559 24.4646 98.0592 24.4711 98.0686C24.4739 98.0751 24.4833 98.0873 24.5058 98.1C24.5465 98.1281 24.6285 98.1566 24.7353 98.1754L24.7386 98.1787H24.7419C24.8459 98.1974 24.9433 98.2255 25.0342 98.2695C25.119 98.3075 25.2037 98.367 25.2576 98.4555C25.2956 98.5183 25.3171 98.5904 25.3171 98.663C25.3171 98.8167 25.2323 98.9455 25.119 99.0275C25.0056 99.1062 24.8641 99.153 24.71 99.153C24.465 99.1497 24.2763 99.0368 24.1502 98.9361C24.0804 98.8804 24.0711 98.7736 24.1278 98.7042Z" fill="#263238"/>
<path d="M25.6436 98.7042C25.7002 98.6288 25.8099 98.619 25.8792 98.6789C25.9607 98.7478 26.1026 98.8204 26.2254 98.8171C26.3101 98.8171 26.3888 98.7886 26.439 98.7576C26.483 98.7197 26.4956 98.6883 26.4956 98.6635C26.4956 98.6476 26.4924 98.641 26.4863 98.6321C26.483 98.6223 26.4703 98.6101 26.4455 98.5942C26.4015 98.5632 26.3073 98.5281 26.194 98.5061H26.1907C26.0933 98.4869 25.9991 98.4621 25.9171 98.4241C25.8323 98.3834 25.7569 98.3267 25.7003 98.2414C25.6656 98.1847 25.6468 98.1154 25.6468 98.0433C25.6468 97.8985 25.7284 97.7763 25.8323 97.6976C25.9424 97.6222 26.0745 97.5809 26.2193 97.5809C26.4362 97.5809 26.5903 97.6849 26.691 97.7543C26.7664 97.8044 26.7889 97.9084 26.7416 97.9866C26.691 98.062 26.5875 98.084 26.5088 98.0311C26.408 97.9646 26.32 97.9145 26.2193 97.9145C26.1406 97.9145 26.0717 97.9398 26.0305 97.9711C25.9897 97.9997 25.9804 98.0278 25.9804 98.0433C25.9804 98.0559 25.9804 98.0592 25.9865 98.0686C25.9897 98.0751 25.9991 98.0873 26.0211 98.1C26.0619 98.1281 26.1438 98.1566 26.2507 98.1754L26.2535 98.1787H26.2567C26.3607 98.1974 26.4582 98.2255 26.5495 98.2695C26.6343 98.3075 26.7191 98.367 26.773 98.4555C26.8109 98.5183 26.8324 98.5904 26.8324 98.663C26.8324 98.8167 26.7477 98.9455 26.6343 99.0275C26.5209 99.1062 26.3795 99.153 26.2258 99.153C25.9804 99.1497 25.7916 99.0368 25.666 98.9361C25.5967 98.8804 25.5869 98.7736 25.6436 98.7042Z" fill="#263238"/>
<path d="M29.2411 97.833L28.7221 99.0532C28.7188 99.0598 28.716 99.0687 28.7094 99.0785C28.7094 99.0818 28.7066 99.0818 28.7066 99.0818C28.7033 99.0884 28.6968 99.094 28.6907 99.1006C28.6874 99.1038 28.6841 99.1038 28.6841 99.1038C28.678 99.1104 28.6715 99.1165 28.6654 99.1193C28.6654 99.1226 28.6621 99.1226 28.6621 99.1258C28.6527 99.1324 28.6462 99.1385 28.6335 99.1413C28.6335 99.1413 28.6307 99.1413 28.6307 99.1446C28.6242 99.1446 28.6148 99.1479 28.6054 99.1511C28.6022 99.1511 28.6022 99.1511 28.5989 99.1511C28.5895 99.1544 28.5801 99.1544 28.5675 99.1544C28.5581 99.1544 28.5487 99.1544 28.5394 99.1511C28.5361 99.1511 28.5361 99.1511 28.5328 99.1511C28.5267 99.1479 28.5202 99.1446 28.5108 99.1446C28.5075 99.1413 28.5075 99.1413 28.5075 99.1413C28.5047 99.1413 28.5047 99.1413 28.5047 99.1413C28.4949 99.1385 28.4855 99.1319 28.4761 99.1226C28.4761 99.1226 28.4761 99.1226 28.4761 99.1193C28.4663 99.1165 28.4635 99.1099 28.4569 99.1038C28.4569 99.1038 28.4508 99.1038 28.4508 99.1006C28.4443 99.094 28.4382 99.0884 28.4349 99.0818C28.4349 99.0818 28.4316 99.0818 28.4316 99.0785C28.4256 99.0687 28.4223 99.0598 28.419 99.0532L28.1895 98.5094L27.966 99.0532C27.9627 99.0598 27.9567 99.0687 27.9506 99.0785V99.0818C27.944 99.0884 27.9379 99.094 27.9318 99.1006C27.9318 99.1038 27.9285 99.1038 27.9285 99.1038C27.9225 99.1104 27.9159 99.1165 27.9098 99.1226C27.8972 99.1324 27.8911 99.1385 27.8817 99.1413H27.8756C27.8756 99.1413 27.8723 99.1413 27.8723 99.1446C27.8658 99.1446 27.8564 99.1479 27.8531 99.1511C27.847 99.1511 27.847 99.1511 27.847 99.1511C27.8344 99.1544 27.825 99.1544 27.8157 99.1544C27.803 99.1544 27.7936 99.1544 27.7843 99.1511C27.781 99.1511 27.781 99.1511 27.7749 99.1511C27.7683 99.1479 27.7623 99.1446 27.7562 99.1446C27.7529 99.1413 27.7529 99.1413 27.7501 99.1413C27.7407 99.1385 27.7281 99.1319 27.7215 99.1226C27.7182 99.1226 27.7182 99.1226 27.7182 99.1193C27.7149 99.1165 27.7089 99.1099 27.6995 99.1038C27.6995 99.1038 27.6995 99.1038 27.6929 99.1006C27.6896 99.094 27.6836 99.0884 27.6803 99.0818C27.677 99.0818 27.677 99.0818 27.677 99.0785C27.6709 99.0687 27.6676 99.0598 27.6611 99.0532L27.1453 97.833C27.1074 97.7482 27.1481 97.654 27.2362 97.6161C27.3116 97.5814 27.4091 97.6194 27.4437 97.7102L27.8147 98.5567L28.0349 98.0316C28.063 97.9683 28.1229 97.9309 28.189 97.9309C28.2583 97.9309 28.3178 97.9683 28.3431 98.0316L28.5665 98.5567L28.9376 97.7102C28.9689 97.6194 29.0696 97.5814 29.1483 97.6161C29.235 97.654 29.279 97.7487 29.2411 97.833Z" fill="#263238"/>
<path d="M29.9925 98.9244C29.8571 98.7862 29.7756 98.5909 29.7756 98.3707C29.7756 98.1571 29.8571 97.9711 29.9925 97.8203C30.134 97.6728 30.3162 97.5809 30.5336 97.5809C30.7411 97.5809 30.9298 97.6723 31.0587 97.8203C31.2001 97.9711 31.2788 98.1571 31.2788 98.3707C31.2788 98.5909 31.2001 98.7862 31.0587 98.9244C30.9298 99.072 30.7411 99.1638 30.5336 99.1638C30.3167 99.1638 30.1345 99.0724 29.9925 98.9244ZM30.1185 98.3712C30.1185 98.5066 30.1593 98.6162 30.2319 98.7047C30.3106 98.7801 30.4146 98.8209 30.534 98.8209C30.6441 98.8209 30.7448 98.7801 30.8235 98.7047C30.9022 98.6166 30.9462 98.5066 30.9462 98.3712C30.9462 98.2424 30.9022 98.129 30.8235 98.0442C30.7448 97.9754 30.6441 97.9248 30.534 97.9248C30.4146 97.9248 30.3106 97.9749 30.2319 98.0442C30.1593 98.129 30.1185 98.2419 30.1185 98.3712Z" fill="#263238"/>
<path d="M32.7193 97.7487C32.7193 97.8367 32.6467 97.915 32.5525 97.915C32.4804 97.915 32.4172 97.9337 32.3638 97.9749C32.3038 98.0124 32.257 98.0658 32.219 98.1258C32.1436 98.2265 32.1061 98.3459 32.0902 98.3899V98.9877C32.0902 99.0785 32.0115 99.1539 31.9169 99.1539C31.826 99.1539 31.7506 99.0785 31.7506 98.9877V97.7482C31.7506 97.6573 31.826 97.5842 31.9169 97.5842C32.0115 97.5842 32.0902 97.6569 32.0902 97.7482V97.7702C32.1089 97.7482 32.1342 97.7229 32.1562 97.7074C32.2598 97.6381 32.3951 97.581 32.5525 97.5842C32.6467 97.5847 32.7193 97.6573 32.7193 97.7487Z" fill="#263238"/>
<path d="M34.4772 98.9843C34.4772 99.0752 34.4018 99.1539 34.3076 99.1539C34.2228 99.1539 34.1568 99.0939 34.1409 99.0185C34.0214 99.1005 33.8706 99.1539 33.7132 99.1539C33.2888 99.1539 32.9492 98.7951 32.9492 98.3707C32.9492 97.9397 33.2888 97.5809 33.7132 97.5809C33.8673 97.5809 34.0181 97.631 34.1348 97.713V97.1218C34.1348 97.0305 34.2102 96.9523 34.3076 96.9523C34.4018 96.9523 34.4772 97.0305 34.4772 97.1218V98.3669C34.4772 98.3669 34.4772 98.3669 34.4772 98.3702V98.9843ZM33.7127 97.9247C33.5993 97.9247 33.4958 97.972 33.4171 98.0535C33.3384 98.1322 33.2911 98.2451 33.2911 98.3711C33.2911 98.4906 33.3384 98.604 33.4171 98.6827C33.4958 98.7646 33.5993 98.8115 33.7127 98.8115C33.8293 98.8115 33.9296 98.7642 34.0083 98.6827C34.087 98.604 34.1343 98.4906 34.1343 98.3711C34.1343 98.2456 34.087 98.1322 34.0083 98.0535C33.9301 97.9716 33.8293 97.9247 33.7127 97.9247Z" fill="#263238"/>
<path d="M76.6857 101.555H19.9291V108.297H76.6857V101.555Z" fill="#EBEBEB"/>
<path d="M23.3586 115.846C23.3586 115.812 23.3876 115.783 23.4213 115.783C23.4583 115.783 23.4869 115.812 23.4869 115.846V117.556C23.4869 117.59 23.4579 117.619 23.4213 117.619C23.3871 117.619 23.3586 117.59 23.3586 117.556V115.846Z" fill="#263238"/>
<path d="M25.9748 116.397V117.556C25.9748 117.59 25.9462 117.619 25.912 117.619C25.8778 117.619 25.8492 117.59 25.8492 117.556V117.365C25.7391 117.517 25.5635 117.619 25.3667 117.619C25.0281 117.619 24.7582 117.328 24.7582 116.977C24.7582 116.625 25.0285 116.334 25.3667 116.334C25.5635 116.334 25.7391 116.434 25.8492 116.586V116.397C25.8492 116.36 25.8778 116.334 25.912 116.334C25.9462 116.334 25.9748 116.36 25.9748 116.397ZM25.8492 116.976C25.8492 116.688 25.6314 116.457 25.3667 116.457C25.1044 116.457 24.8838 116.688 24.8838 116.976C24.8838 117.265 25.1044 117.493 25.3667 117.493C25.6314 117.493 25.8492 117.265 25.8492 116.976Z" fill="#263238"/>
<path d="M27.7332 117.517C27.7332 117.851 27.4629 118.12 27.1275 118.12C27.0329 118.12 26.9439 118.097 26.86 118.06C26.8338 118.042 26.8183 118.005 26.8338 117.976C26.8497 117.942 26.8862 117.929 26.9176 117.947C26.9832 117.978 27.0488 117.994 27.1275 117.994C27.395 117.994 27.6076 117.782 27.6076 117.517V117.359C27.5004 117.514 27.3242 117.611 27.1275 117.611C26.7916 117.611 26.5241 117.325 26.5241 116.971C26.5241 116.625 26.7916 116.334 27.1275 116.334C27.3242 116.334 27.4999 116.434 27.6076 116.586V116.397C27.6076 116.363 27.6367 116.334 27.6732 116.334C27.7046 116.334 27.7336 116.362 27.7336 116.397L27.7332 117.517ZM27.6076 116.972C27.6076 116.686 27.3926 116.46 27.1275 116.46C26.8652 116.46 26.6502 116.686 26.6502 116.972C26.6502 117.26 26.8652 117.488 27.1275 117.488C27.3921 117.488 27.6076 117.26 27.6076 116.972Z" fill="#263238"/>
<path d="M28.3398 116.4C28.3398 116.363 28.3688 116.336 28.4054 116.336C28.4367 116.336 28.4658 116.363 28.4658 116.4V116.683C28.4709 116.672 28.4766 116.662 28.4841 116.651C28.581 116.499 28.7515 116.336 28.9984 116.336C29.0326 116.336 29.0612 116.363 29.0612 116.4C29.0612 116.433 29.0326 116.462 28.9984 116.462C28.8307 116.462 28.715 116.557 28.626 116.672C28.5393 116.788 28.4897 116.919 28.4709 116.972C28.4658 116.982 28.4658 116.987 28.4658 116.992V117.556C28.4658 117.593 28.4372 117.619 28.4054 117.619C28.3688 117.619 28.3398 117.593 28.3398 117.556V116.4Z" fill="#263238"/>
<path d="M29.2674 116.979C29.2674 116.622 29.5456 116.334 29.8918 116.334C30.2225 116.334 30.4848 116.597 30.5106 116.932V116.934V116.943C30.5106 116.976 30.4815 117 30.4478 117H29.3934C29.4065 117.281 29.6267 117.494 29.8918 117.494C30.0623 117.494 30.2197 117.405 30.3063 117.26C30.3246 117.229 30.364 117.223 30.3902 117.239C30.4192 117.26 30.4295 117.297 30.4113 117.328C30.3012 117.504 30.1096 117.62 29.8918 117.62C29.5456 117.62 29.2674 117.331 29.2674 116.979ZM29.4013 116.877H30.3747C30.3326 116.635 30.1283 116.459 29.8923 116.459C29.6505 116.46 29.4487 116.633 29.4013 116.877Z" fill="#263238"/>
<path d="M30.8637 116.979C30.8637 116.622 31.142 116.334 31.4882 116.334C31.8184 116.334 32.0812 116.597 32.107 116.932V116.934V116.943C32.107 116.976 32.0779 117 32.0442 117H30.9897C31.0029 117.281 31.223 117.494 31.4882 117.494C31.6587 117.494 31.8161 117.405 31.9027 117.26C31.921 117.229 31.9603 117.223 31.9866 117.239C32.0156 117.26 32.0259 117.297 32.0076 117.328C31.8976 117.504 31.706 117.62 31.4882 117.62C31.1415 117.62 30.8637 117.331 30.8637 116.979ZM30.9972 116.877H31.9706C31.9285 116.635 31.7242 116.459 31.4882 116.459C31.2469 116.46 31.0446 116.633 30.9972 116.877Z" fill="#263238"/>
<path d="M33.7858 116.397C33.7858 116.428 33.7544 116.46 33.723 116.46H33.5577V117.397C33.5577 117.459 33.6204 117.491 33.6523 117.491C33.6837 117.491 33.7179 117.525 33.7179 117.556C33.7179 117.588 33.6837 117.62 33.6523 117.62C33.5239 117.62 33.4265 117.525 33.4265 117.397V116.46H33.2663C33.2035 116.46 33.2035 116.429 33.2035 116.397C33.2035 116.366 33.2035 116.334 33.2663 116.334H33.4265V115.856C33.4265 115.825 33.4579 115.793 33.4893 115.793C33.5235 115.793 33.5577 115.824 33.5577 115.856V116.334H33.723C33.7544 116.334 33.7858 116.366 33.7858 116.397Z" fill="#263238"/>
<path d="M34.8946 116.334C35.2328 116.334 35.5031 116.627 35.5031 116.976C35.5031 117.325 35.2328 117.619 34.8946 117.619C34.5588 117.619 34.2861 117.325 34.2861 116.976C34.2861 116.627 34.5588 116.334 34.8946 116.334ZM34.8946 117.494C35.1569 117.494 35.3771 117.263 35.3771 116.977C35.3771 116.691 35.1565 116.458 34.8946 116.458C34.6323 116.458 34.4117 116.691 34.4117 116.977C34.4117 117.263 34.6323 117.494 34.8946 117.494Z" fill="#263238"/>
<path d="M37.8485 116.397V117.556C37.8485 117.59 37.82 117.619 37.7858 117.619C37.7516 117.619 37.723 117.59 37.723 117.556V117.365C37.6129 117.517 37.4373 117.619 37.2405 117.619C36.9018 117.619 36.632 117.328 36.632 116.977C36.632 116.625 36.9023 116.334 37.2405 116.334C37.4373 116.334 37.6129 116.434 37.723 116.586V116.397C37.723 116.36 37.752 116.334 37.7858 116.334C37.8195 116.334 37.8485 116.36 37.8485 116.397ZM37.7225 116.976C37.7225 116.688 37.5047 116.457 37.24 116.457C36.9777 116.457 36.7571 116.688 36.7571 116.976C36.7571 117.265 36.9777 117.493 37.24 117.493C37.5047 117.493 37.7225 117.265 37.7225 116.976Z" fill="#263238"/>
<path d="M38.4477 115.846C38.4477 115.812 38.4767 115.783 38.5104 115.783C38.5474 115.783 38.576 115.812 38.576 115.846V117.556C38.576 117.59 38.547 117.619 38.5104 117.619C38.4762 117.619 38.4477 117.59 38.4477 117.556V115.846Z" fill="#263238"/>
<path d="M39.0997 115.846C39.0997 115.812 39.1282 115.783 39.1624 115.783C39.1994 115.783 39.228 115.812 39.228 115.846V117.556C39.228 117.59 39.1994 117.619 39.1624 117.619C39.1282 117.619 39.0997 117.59 39.0997 117.556V115.846Z" fill="#263238"/>
<path d="M40.4311 117.352C40.4517 117.325 40.491 117.32 40.5201 117.344C40.6091 117.409 40.751 117.493 40.9135 117.493C41.0133 117.493 41.1 117.462 41.1576 117.414C41.2204 117.372 41.2546 117.315 41.2546 117.257C41.2518 117.197 41.2283 117.154 41.1628 117.1C41.1079 117.057 41.0161 117.026 40.8901 117.005L40.885 117.002C40.7693 116.982 40.6672 116.955 40.5936 116.903C40.5121 116.855 40.4545 116.772 40.4545 116.672C40.4545 116.569 40.5121 116.48 40.5936 116.42C40.6695 116.368 40.7772 116.333 40.9084 116.333C41.0738 116.333 41.1918 116.409 41.2911 116.472C41.3201 116.493 41.3281 116.533 41.3098 116.561C41.2911 116.59 41.2518 116.598 41.2232 116.58C41.1286 116.517 41.0344 116.451 40.9084 116.451C40.8035 116.451 40.7196 116.48 40.6643 116.525C40.6119 116.567 40.5833 116.619 40.5833 116.672C40.5833 116.725 40.6067 116.761 40.6569 116.8C40.7145 116.84 40.8011 116.871 40.9192 116.889H40.9243C41.0475 116.908 41.1473 116.944 41.2368 116.994C41.3206 117.049 41.381 117.149 41.381 117.257C41.381 117.365 41.3211 117.451 41.2344 117.517C41.1454 117.583 41.04 117.619 40.9145 117.619C40.7074 117.616 40.5449 117.519 40.4395 117.435C40.4123 117.412 40.41 117.378 40.4311 117.352Z" fill="#263238"/>
<path d="M42.2973 116.397C42.2973 116.428 42.2659 116.46 42.2345 116.46H42.0692V117.397C42.0692 117.459 42.1319 117.491 42.1638 117.491C42.1952 117.491 42.2294 117.525 42.2294 117.556C42.2294 117.588 42.1952 117.62 42.1638 117.62C42.0354 117.62 41.9385 117.525 41.9385 117.397V116.46H41.7783C41.7155 116.46 41.7155 116.429 41.7155 116.397C41.7155 116.366 41.7155 116.334 41.7783 116.334H41.9385V115.856C41.9385 115.825 41.9698 115.793 42.0012 115.793C42.0354 115.793 42.0696 115.824 42.0696 115.856V116.334H42.235C42.2659 116.334 42.2973 116.366 42.2973 116.397Z" fill="#263238"/>
<path d="M43.8965 116.397V117.556C43.8965 117.59 43.8675 117.619 43.8337 117.619C43.7996 117.619 43.771 117.59 43.771 117.556V117.365C43.6609 117.517 43.4852 117.619 43.2885 117.619C42.9498 117.619 42.68 117.328 42.68 116.977C42.68 116.625 42.9503 116.334 43.2885 116.334C43.4852 116.334 43.6609 116.434 43.771 116.586V116.397C43.771 116.36 43.8 116.334 43.8337 116.334C43.8675 116.334 43.8965 116.36 43.8965 116.397ZM43.7705 116.976C43.7705 116.688 43.5527 116.457 43.288 116.457C43.0257 116.457 42.8051 116.688 42.8051 116.976C42.8051 117.265 43.0257 117.493 43.288 117.493C43.5532 117.493 43.7705 117.265 43.7705 116.976Z" fill="#263238"/>
<path d="M44.8891 116.397C44.8891 116.428 44.8578 116.46 44.8259 116.46H44.6606V117.397C44.6606 117.459 44.7233 117.491 44.7552 117.491C44.7866 117.491 44.8208 117.525 44.8208 117.556C44.8208 117.588 44.7866 117.62 44.7552 117.62C44.6268 117.62 44.5299 117.525 44.5299 117.397V116.46H44.3697C44.3069 116.46 44.3069 116.429 44.3069 116.397C44.3069 116.366 44.3069 116.334 44.3697 116.334H44.5299V115.856C44.5299 115.825 44.5612 115.793 44.5926 115.793C44.6268 115.793 44.661 115.824 44.661 115.856V116.334H44.8264C44.8578 116.334 44.8891 116.366 44.8891 116.397Z" fill="#263238"/>
<path d="M45.292 116.979C45.292 116.622 45.5702 116.334 45.9164 116.334C46.2471 116.334 46.5094 116.597 46.5352 116.932V116.934V116.943C46.5352 116.976 46.5062 117 46.4724 117H45.418C45.4311 117.281 45.6513 117.494 45.9164 117.494C46.0869 117.494 46.2443 117.405 46.331 117.26C46.3492 117.229 46.3886 117.223 46.4148 117.239C46.4434 117.26 46.4542 117.297 46.4359 117.328C46.3258 117.504 46.1342 117.62 45.9164 117.62C45.5702 117.62 45.292 117.331 45.292 116.979ZM45.426 116.877H46.3994C46.3577 116.635 46.153 116.459 45.9169 116.459C45.6752 116.46 45.4733 116.633 45.426 116.877Z" fill="#263238"/>
<path d="M48.8187 116.858C48.8131 116.64 48.6402 116.459 48.4196 116.459C48.2018 116.459 48.0233 116.64 48.0233 116.858V117.559V117.566C48.0233 117.569 48.0209 117.572 48.0209 117.572V117.577C48.0158 117.593 48.0022 117.604 47.9896 117.611C47.9793 117.617 47.9685 117.619 47.9582 117.619H47.9502H47.9451C47.9427 117.619 47.9399 117.617 47.9399 117.617C47.9348 117.617 47.9296 117.611 47.924 117.609C47.9216 117.609 47.9188 117.606 47.916 117.604L47.9081 117.595C47.9052 117.593 47.9052 117.59 47.9029 117.59C47.9029 117.587 47.9029 117.587 47.9001 117.584C47.9001 117.584 47.9001 117.582 47.8978 117.579C47.8978 117.576 47.8978 117.574 47.8949 117.571V117.563V117.558V116.857C47.8949 116.639 47.7193 116.458 47.4986 116.458C47.2785 116.458 47.1028 116.639 47.1028 116.857V117.558C47.1028 117.579 47.0925 117.597 47.0738 117.608C47.0714 117.611 47.0635 117.616 47.0583 117.616C47.0555 117.619 47.0532 117.618 47.0475 117.618H47.0396H47.0316C47.0082 117.616 46.9871 117.595 46.9792 117.571V117.558V116.858V116.837V116.396C46.9792 116.362 47.0082 116.336 47.0391 116.336C47.0761 116.336 47.1024 116.362 47.1024 116.396V116.52C47.197 116.407 47.3384 116.336 47.4982 116.336C47.6977 116.336 47.8682 116.446 47.9572 116.609C48.0491 116.446 48.2224 116.336 48.4191 116.336C48.7077 116.336 48.9409 116.569 48.9409 116.858V117.558C48.9409 117.589 48.9147 117.618 48.8777 117.618C48.844 117.618 48.8178 117.589 48.8178 117.558V116.858H48.8187Z" fill="#263238"/>
<path d="M49.3804 116.979C49.3804 116.622 49.6582 116.334 50.0044 116.334C50.3351 116.334 50.5974 116.597 50.6237 116.932V116.934V116.943C50.6237 116.976 50.5951 117 50.5604 117H49.506C49.5191 117.281 49.7393 117.494 50.0039 117.494C50.1744 117.494 50.3318 117.405 50.4185 117.26C50.4372 117.229 50.4766 117.223 50.5028 117.239C50.5318 117.26 50.5421 117.297 50.5239 117.328C50.4138 117.504 50.2217 117.62 50.0044 117.62C49.6582 117.62 49.3804 117.331 49.3804 116.979ZM49.5139 116.877H50.4869C50.4452 116.635 50.2405 116.459 50.0044 116.459C49.7631 116.46 49.5612 116.633 49.5139 116.877Z" fill="#263238"/>
<path d="M51.9859 116.858C51.9859 116.64 51.8102 116.462 51.5896 116.462C51.3718 116.462 51.1961 116.64 51.191 116.858V117.556V117.566C51.1881 117.577 51.1853 117.587 51.1778 117.595C51.1671 117.611 51.1488 117.619 51.1305 117.619H51.1151C51.0963 117.614 51.0809 117.601 51.0729 117.585C51.0701 117.582 51.0701 117.58 51.0701 117.577C51.0701 117.574 51.0673 117.572 51.0673 117.572V117.556V116.858V116.837V116.399C51.0673 116.365 51.094 116.336 51.1305 116.336C51.1643 116.336 51.191 116.365 51.191 116.399V116.522C51.2851 116.409 51.4299 116.336 51.5896 116.336C51.8781 116.336 52.1119 116.572 52.1119 116.858V117.556C52.1119 117.593 52.0824 117.619 52.0486 117.619C52.0145 117.619 51.9854 117.593 51.9854 117.556L51.9859 116.858Z" fill="#263238"/>
<path d="M53.1227 116.397C53.1227 116.428 53.0913 116.46 53.0594 116.46H52.8941V117.397C52.8941 117.459 52.9573 117.491 52.9882 117.491C53.0196 117.491 53.0543 117.525 53.0543 117.556C53.0543 117.588 53.0201 117.62 52.9882 117.62C52.8599 117.62 52.7624 117.525 52.7624 117.397V116.46H52.6022C52.5395 116.46 52.5395 116.429 52.5395 116.397C52.5395 116.366 52.5395 116.334 52.6022 116.334H52.7624V115.856C52.7624 115.825 52.7938 115.793 52.8257 115.793C52.8594 115.793 52.8941 115.824 52.8941 115.856V116.334H53.0594C53.0913 116.334 53.1227 116.366 53.1227 116.397Z" fill="#263238"/>
<path d="M53.6328 117.352C53.6539 117.325 53.6932 117.32 53.7218 117.344C53.8108 117.409 53.9528 117.493 54.1153 117.493C54.2151 117.493 54.3017 117.462 54.3598 117.414C54.4226 117.372 54.4568 117.315 54.4568 117.257C54.454 117.197 54.4306 117.154 54.365 117.1C54.3102 117.057 54.2179 117.026 54.0923 117.005L54.0867 117.002C53.9715 116.982 53.8689 116.955 53.7958 116.903C53.7143 116.855 53.6567 116.772 53.6567 116.672C53.6567 116.569 53.7143 116.48 53.7958 116.42C53.8717 116.368 53.9795 116.333 54.1106 116.333C54.276 116.333 54.3935 116.409 54.4933 116.472C54.5224 116.493 54.5299 116.533 54.5116 116.561C54.4933 116.59 54.454 116.598 54.4254 116.58C54.3312 116.517 54.2366 116.451 54.1106 116.451C54.0057 116.451 53.9218 116.48 53.8666 116.525C53.8141 116.567 53.7851 116.619 53.7851 116.672C53.7851 116.725 53.8089 116.761 53.8581 116.8C53.9162 116.84 54.0029 116.871 54.1209 116.889H54.1261C54.2497 116.908 54.3495 116.944 54.4385 116.994C54.5224 117.049 54.5828 117.149 54.5828 117.257C54.5828 117.365 54.5224 117.451 54.4362 117.517C54.3472 117.583 54.2422 117.619 54.1158 117.619C53.9087 117.616 53.7462 117.519 53.6412 117.435C53.6145 117.412 53.6117 117.378 53.6328 117.352Z" fill="#263238"/>
<path d="M55.8003 115.977C55.8003 115.943 55.8288 115.914 55.8635 115.914C55.9 115.914 55.9291 115.943 55.9291 115.977V116.038C55.9291 116.074 55.9005 116.106 55.8635 116.106C55.8293 116.106 55.8003 116.075 55.8003 116.038V115.977ZM55.8003 116.397C55.8003 116.36 55.8288 116.334 55.8635 116.334C55.9 116.334 55.9291 116.36 55.9291 116.397V117.556C55.9291 117.59 55.9005 117.619 55.8635 117.619C55.8293 117.619 55.8003 117.59 55.8003 117.556V116.397Z" fill="#263238"/>
<path d="M57.4519 116.858C57.4519 116.64 57.2762 116.462 57.0556 116.462C56.8378 116.462 56.6621 116.64 56.657 116.858V117.556V117.566C56.6542 117.577 56.6513 117.587 56.6438 117.595C56.6335 117.611 56.6153 117.619 56.5965 117.619H56.5811C56.5623 117.614 56.5469 117.601 56.5389 117.585C56.5361 117.582 56.5361 117.58 56.5361 117.577C56.5361 117.574 56.5333 117.572 56.5333 117.572V117.556V116.858V116.837V116.399C56.5333 116.365 56.56 116.336 56.5965 116.336C56.6303 116.336 56.657 116.365 56.657 116.399V116.522C56.7511 116.409 56.8959 116.336 57.0556 116.336C57.3441 116.336 57.5779 116.572 57.5779 116.858V117.556C57.5779 117.593 57.5484 117.619 57.5147 117.619C57.4805 117.619 57.4514 117.593 57.4514 117.556V116.858H57.4519Z" fill="#263238"/>
<path d="M59.3754 116.397C59.3754 116.428 59.344 116.46 59.3122 116.46H59.1468V117.397C59.1468 117.459 59.21 117.491 59.241 117.491C59.2723 117.491 59.307 117.525 59.307 117.556C59.307 117.588 59.2728 117.62 59.241 117.62C59.1126 117.62 59.0156 117.525 59.0156 117.397V116.46H58.8554C58.7927 116.46 58.7927 116.429 58.7927 116.397C58.7927 116.366 58.7927 116.334 58.8554 116.334H59.0156V115.856C59.0156 115.825 59.047 115.793 59.0789 115.793C59.1126 115.793 59.1473 115.824 59.1473 115.856V116.334H59.3126C59.344 116.334 59.3754 116.366 59.3754 116.397Z" fill="#263238"/>
<path d="M59.7782 116.979C59.7782 116.622 60.056 116.334 60.4022 116.334C60.7329 116.334 60.9952 116.597 61.0214 116.932V116.934V116.943C61.0214 116.976 60.9924 117 60.9582 117H59.9038C59.9169 117.281 60.137 117.494 60.4017 117.494C60.5722 117.494 60.7296 117.405 60.8163 117.26C60.835 117.229 60.8744 117.223 60.9006 117.239C60.9292 117.26 60.9399 117.297 60.9217 117.328C60.8116 117.504 60.6195 117.62 60.4022 117.62C60.056 117.62 59.7782 117.331 59.7782 116.979ZM59.9117 116.877H60.8847C60.843 116.635 60.6383 116.459 60.4022 116.459C60.1614 116.46 59.959 116.633 59.9117 116.877Z" fill="#263238"/>
<path d="M61.4106 116.4C61.4106 116.363 61.4397 116.336 61.4767 116.336C61.5076 116.336 61.5371 116.363 61.5371 116.4V116.683C61.5423 116.672 61.5474 116.662 61.5554 116.651C61.6523 116.499 61.8228 116.336 62.0697 116.336C62.1034 116.336 62.1325 116.363 62.1325 116.4C62.1325 116.433 62.1039 116.462 62.0697 116.462C61.902 116.462 61.7863 116.557 61.6968 116.672C61.6102 116.788 61.5605 116.919 61.5422 116.972C61.5371 116.982 61.5371 116.987 61.5371 116.992V117.556C61.5371 117.593 61.5076 117.619 61.4767 117.619C61.4397 117.619 61.4106 117.593 61.4106 117.556V116.4Z" fill="#263238"/>
<path d="M64.3997 116.858C64.3946 116.64 64.2213 116.459 64.0011 116.459C63.7838 116.459 63.6053 116.64 63.6053 116.858V117.559V117.566C63.6053 117.569 63.6025 117.572 63.6025 117.572V117.577C63.5969 117.593 63.5842 117.604 63.5711 117.611C63.5603 117.617 63.55 117.619 63.5397 117.619H63.5317H63.5266C63.5238 117.619 63.521 117.617 63.521 117.617C63.5158 117.617 63.5107 117.611 63.5055 117.609C63.5027 117.609 63.4999 117.606 63.4975 117.604L63.4896 117.595C63.4872 117.593 63.4872 117.59 63.4844 117.59C63.4844 117.587 63.4844 117.587 63.4816 117.584C63.4816 117.584 63.4816 117.582 63.4788 117.579C63.4788 117.576 63.4788 117.574 63.4765 117.571V117.563V117.558V116.857C63.4765 116.639 63.3003 116.458 63.0802 116.458C62.8595 116.458 62.6839 116.639 62.6839 116.857V117.558C62.6839 117.579 62.6736 117.597 62.6553 117.608C62.6525 117.611 62.645 117.616 62.6394 117.616C62.637 117.619 62.6342 117.618 62.6286 117.618H62.6206H62.6127C62.5888 117.616 62.5682 117.595 62.5602 117.571V117.558V116.858V116.837V116.396C62.5602 116.362 62.5893 116.336 62.6206 116.336C62.6572 116.336 62.6839 116.362 62.6839 116.396V116.52C62.778 116.407 62.92 116.336 63.0802 116.336C63.2797 116.336 63.4498 116.446 63.5392 116.609C63.631 116.446 63.8039 116.336 64.0006 116.336C64.2892 116.336 64.5229 116.569 64.5229 116.858V117.558C64.5229 117.589 64.4962 117.618 64.4597 117.618C64.4255 117.618 64.3993 117.589 64.3993 117.558V116.858H64.3997Z" fill="#263238"/>
<path d="M64.9642 117.352C64.9852 117.325 65.0246 117.32 65.0532 117.344C65.1422 117.409 65.2841 117.493 65.4466 117.493C65.5464 117.493 65.6331 117.462 65.6907 117.414C65.7535 117.372 65.7877 117.315 65.7877 117.257C65.7849 117.197 65.7614 117.154 65.6958 117.1C65.641 117.057 65.5488 117.026 65.4232 117.005L65.4176 117.002C65.3024 116.982 65.1998 116.955 65.1267 116.903C65.0452 116.855 64.9876 116.772 64.9876 116.672C64.9876 116.569 65.0452 116.48 65.1267 116.42C65.2026 116.368 65.3103 116.333 65.4415 116.333C65.6068 116.333 65.7244 116.409 65.8242 116.472C65.8532 116.493 65.8607 116.533 65.8425 116.561C65.8242 116.59 65.7848 116.598 65.7558 116.58C65.6616 116.517 65.567 116.451 65.441 116.451C65.3361 116.451 65.2522 116.48 65.197 116.525C65.1445 116.567 65.1155 116.619 65.1155 116.672C65.1155 116.725 65.1393 116.761 65.1885 116.8C65.2466 116.84 65.3333 116.871 65.4508 116.889H65.456C65.5797 116.908 65.6794 116.944 65.7684 116.994C65.8523 117.049 65.9127 117.149 65.9127 117.257C65.9127 117.365 65.8523 117.451 65.7656 117.517C65.6766 117.583 65.5717 117.619 65.4452 117.619C65.2382 117.616 65.0756 117.519 64.9707 117.435C64.9459 117.412 64.9431 117.378 64.9642 117.352Z" fill="#263238"/>
<path d="M67.6774 116.334C68.0161 116.334 68.2859 116.627 68.2859 116.976C68.2859 117.325 68.0161 117.619 67.6774 117.619C67.3415 117.619 67.0684 117.325 67.0684 116.976C67.0684 116.627 67.3415 116.334 67.6774 116.334ZM67.6774 117.494C67.9397 117.494 68.1599 117.263 68.1599 116.977C68.1599 116.691 67.9392 116.458 67.6774 116.458C67.4151 116.458 67.1949 116.691 67.1949 116.977C67.1944 117.263 67.4146 117.494 67.6774 117.494Z" fill="#263238"/>
<path d="M69.2414 115.851C69.2414 115.885 69.2123 115.914 69.1781 115.914C69.0891 115.914 69.0418 115.933 69.0156 115.964C68.9865 115.995 68.9631 116.059 68.9631 116.177V116.313H69.1444C69.1809 116.313 69.21 116.342 69.21 116.376C69.21 116.413 69.1809 116.442 69.1444 116.442H68.9631V117.56C68.9631 117.594 68.9341 117.623 68.8999 117.623C68.8633 117.623 68.8343 117.594 68.8343 117.56V116.442H68.6638C68.6301 116.442 68.601 116.413 68.601 116.376C68.601 116.342 68.6301 116.313 68.6638 116.313H68.8343V116.177C68.8371 116.046 68.8582 115.949 68.9186 115.877C68.9814 115.809 69.076 115.786 69.1781 115.786C69.2128 115.786 69.2414 115.815 69.2414 115.851Z" fill="#263238"/>
<path d="M70.3202 117.352C70.3413 117.325 70.3806 117.32 70.4092 117.344C70.4982 117.409 70.6402 117.493 70.8027 117.493C70.9025 117.493 70.9891 117.462 71.0468 117.414C71.1095 117.372 71.1437 117.315 71.1437 117.257C71.1409 117.197 71.1175 117.154 71.0519 117.1C70.9971 117.057 70.9048 117.026 70.7793 117.005L70.7737 117.002C70.6584 116.982 70.5558 116.955 70.4828 116.903C70.4012 116.855 70.3436 116.772 70.3436 116.672C70.3436 116.569 70.4012 116.48 70.4828 116.42C70.5586 116.368 70.6664 116.333 70.7975 116.333C70.9629 116.333 71.0805 116.409 71.1803 116.472C71.2088 116.493 71.2168 116.533 71.1985 116.561C71.1803 116.59 71.1409 116.598 71.1119 116.58C71.0177 116.517 70.9231 116.451 70.7971 116.451C70.6922 116.451 70.6083 116.48 70.553 116.525C70.5006 116.567 70.4715 116.619 70.4715 116.672C70.4715 116.725 70.4954 116.761 70.5446 116.8C70.6027 116.84 70.6893 116.871 70.8074 116.889H70.8125C70.9362 116.908 71.036 116.944 71.125 116.994C71.2088 117.049 71.2693 117.149 71.2693 117.257C71.2693 117.365 71.2088 117.451 71.1226 117.517C71.0336 117.583 70.9287 117.619 70.8022 117.619C70.5952 117.616 70.4326 117.519 70.3277 117.435C70.3019 117.412 70.2991 117.378 70.3202 117.352Z" fill="#263238"/>
<path d="M71.607 116.979C71.607 116.622 71.8848 116.334 72.2309 116.334C72.5617 116.334 72.824 116.597 72.8502 116.932V116.934V116.943C72.8502 116.976 72.8212 117 72.787 117H71.7325C71.7456 117.281 71.9658 117.494 72.2309 117.494C72.4015 117.494 72.5588 117.405 72.6455 117.26C72.6642 117.229 72.7036 117.223 72.7298 117.239C72.7589 117.26 72.7692 117.297 72.7509 117.328C72.6408 117.504 72.4488 117.62 72.2314 117.62C71.8848 117.62 71.607 117.331 71.607 116.979ZM71.7405 116.877H72.7134C72.6717 116.635 72.467 116.459 72.2309 116.459C71.9902 116.46 71.7878 116.633 71.7405 116.877Z" fill="#263238"/>
<path d="M73.24 116.4C73.24 116.363 73.269 116.336 73.306 116.336C73.337 116.336 73.3665 116.363 73.3665 116.4V116.683C73.3716 116.672 73.3768 116.662 73.3847 116.651C73.4817 116.499 73.6522 116.336 73.8991 116.336C73.9328 116.336 73.9618 116.363 73.9618 116.4C73.9618 116.433 73.9333 116.462 73.8991 116.462C73.7314 116.462 73.6157 116.557 73.5262 116.672C73.4395 116.788 73.3899 116.919 73.3716 116.972C73.3665 116.982 73.3665 116.987 73.3665 116.992V117.556C73.3665 117.593 73.337 117.619 73.306 117.619C73.269 117.619 73.24 117.593 73.24 117.556V116.4Z" fill="#263238"/>
<path d="M74.8022 117.609C74.7942 117.601 74.7863 117.593 74.7811 117.58L74.2986 116.431C74.2855 116.4 74.301 116.363 74.3296 116.35C74.3609 116.337 74.4003 116.352 74.4111 116.384L74.8387 117.396L75.2664 116.384C75.2767 116.352 75.3161 116.336 75.3475 116.35C75.3788 116.363 75.3924 116.4 75.3788 116.431L74.8992 117.57C74.8964 117.58 74.8912 117.591 74.8832 117.601C74.8725 117.614 74.8542 117.619 74.8416 117.619C74.8336 117.619 74.8284 117.619 74.8205 117.617C74.8177 117.617 74.8177 117.617 74.8149 117.614C74.8102 117.614 74.8074 117.611 74.8022 117.609Z" fill="#263238"/>
<path d="M75.9174 115.977C75.9174 115.943 75.9465 115.914 75.9807 115.914C76.0172 115.914 76.0463 115.943 76.0463 115.977V116.038C76.0463 116.074 76.0177 116.106 75.9807 116.106C75.9465 116.106 75.9174 116.075 75.9174 116.038V115.977ZM75.9174 116.397C75.9174 116.36 75.9465 116.334 75.9807 116.334C76.0172 116.334 76.0463 116.36 76.0463 116.397V117.556C76.0463 117.59 76.0177 117.619 75.9807 117.619C75.9465 117.619 75.9174 117.59 75.9174 117.556V116.397Z" fill="#263238"/>
<path d="M76.5602 116.974C76.5602 116.617 76.8539 116.334 77.2211 116.334C77.3729 116.334 77.5176 116.386 77.63 116.476C77.6567 116.494 77.6614 116.533 77.638 116.562C77.6174 116.586 77.5804 116.594 77.5514 116.573C77.4595 116.5 77.3443 116.458 77.2211 116.458C76.9218 116.458 76.6857 116.691 76.6857 116.974C76.6857 117.263 76.9218 117.494 77.2211 117.494C77.3443 117.494 77.4595 117.451 77.5514 117.381C77.5804 117.36 77.6174 117.368 77.638 117.391C77.6619 117.42 77.6568 117.459 77.6254 117.483C77.5181 117.567 77.3734 117.619 77.2216 117.619C76.8534 117.62 76.5602 117.336 76.5602 116.974Z" fill="#263238"/>
<path d="M78.0171 116.979C78.0171 116.622 78.2948 116.334 78.641 116.334C78.9717 116.334 79.234 116.597 79.2603 116.932V116.934V116.943C79.2603 116.976 79.2317 117 79.197 117H78.1426C78.1557 117.281 78.3759 117.494 78.641 117.494C78.8115 117.494 78.9689 117.405 79.0556 117.26C79.0743 117.229 79.1137 117.223 79.1399 117.239C79.1689 117.26 79.1792 117.297 79.161 117.328C79.0509 117.504 78.8588 117.62 78.6415 117.62C78.2948 117.62 78.0171 117.331 78.0171 116.979ZM78.1506 116.877H79.1235C79.0818 116.635 78.8771 116.459 78.641 116.459C78.3998 116.46 78.1979 116.633 78.1506 116.877Z" fill="#263238"/>
<path d="M20.3943 114.983H17.1542V118.223H20.3943V114.983Z" stroke="#EBEBEB" stroke-miterlimit="10"/>
<path d="M73.5989 72.0159C73.5989 72.3929 73.293 72.6988 72.9159 72.6988C72.5388 72.6988 72.2329 72.3929 72.2329 72.0159C72.2329 71.6388 72.5388 71.3329 72.9159 71.3329C73.293 71.3329 73.5989 71.6388 73.5989 72.0159Z" fill="#A6A6A6"/>
<path d="M74.0976 73.8928H71.7339C71.7391 73.2435 72.2661 72.7217 72.9158 72.7217C73.5707 72.7217 74.092 73.2435 74.0976 73.8928Z" fill="#A6A6A6"/>
<path d="M71.7387 88.089C71.6047 87.9817 71.4712 87.8721 71.3354 87.7672H74.4964C74.3605 87.8721 74.227 87.9817 74.0926 88.089C73.9586 88.1977 73.8251 88.3068 73.6921 88.4179C73.544 88.5415 73.3965 88.6661 73.248 88.7912C73.248 88.7912 73.248 88.7912 73.2475 88.7926C73.137 88.8854 73.0264 88.9804 72.9159 89.0746C72.8053 88.98 72.6948 88.8858 72.5842 88.7926C72.5838 88.7917 72.5833 88.7917 72.5833 88.7917C72.4357 88.6661 72.2877 88.5415 72.1392 88.4183C72.0067 88.3068 71.8727 88.1977 71.7387 88.089Z" fill="#A6A6A6"/>
<path d="M74.4964 87.7667V89.7711H71.3354V87.7667C71.4628 87.889 71.593 88.0056 71.7214 88.126C71.8511 88.2436 71.9814 88.3607 72.1116 88.4764C72.2479 88.5987 72.3842 88.719 72.5215 88.8385C72.5257 88.8422 72.5299 88.8465 72.5346 88.8493C72.5388 88.853 72.5425 88.8558 72.5468 88.8596C72.5383 88.8643 72.5299 88.8694 72.5219 88.8741C72.4339 88.9242 72.3472 88.9781 72.2619 89.0329C72.1551 89.1013 72.0507 89.172 71.9462 89.2446C71.8432 89.3177 71.7401 89.3912 71.6389 89.4681C71.5382 89.5449 71.4385 89.6231 71.3424 89.707C71.4539 89.6461 71.5621 89.5786 71.6684 89.5102C71.7752 89.4418 71.8797 89.3711 71.9842 89.299C72.0872 89.2259 72.1908 89.1523 72.2915 89.0755C72.3739 89.0128 72.4554 88.9495 72.5346 88.8821C72.5407 88.8769 72.5472 88.8718 72.5538 88.8661C72.6686 88.9664 72.7828 89.0666 72.8981 89.1659L72.9154 89.1805L72.9337 89.1659C73.0489 89.0662 73.1637 88.9664 73.2784 88.8666C73.2845 88.8718 73.2911 88.8774 73.2976 88.883C73.3763 88.9504 73.4578 89.0132 73.5398 89.076C73.6405 89.1528 73.7436 89.2264 73.8471 89.2994C73.9516 89.3716 74.0565 89.4423 74.1628 89.5107C74.2692 89.5791 74.3779 89.6465 74.4893 89.7074C74.3933 89.6236 74.2935 89.5454 74.1924 89.4685C74.0916 89.3917 73.9886 89.3182 73.8851 89.2451C73.7811 89.1725 73.6766 89.1018 73.5698 89.0334C73.4841 88.9786 73.3984 88.9247 73.3098 88.8746C73.3014 88.8699 73.2934 88.8652 73.2855 88.8605C73.2897 88.8568 73.2934 88.8539 73.2976 88.8502C73.3019 88.8465 73.3061 88.8422 73.3103 88.8385C73.4471 88.719 73.5834 88.5987 73.7197 88.4769C73.8509 88.3607 73.9806 88.2431 74.1099 88.126C74.2387 88.0056 74.3685 87.889 74.4964 87.7667Z" fill="#A6A6A6"/>
<path d="M72.9145 104.146C71.9916 104.146 71.3358 104.928 71.3358 104.928C71.3358 104.928 71.9916 105.706 72.9145 105.706C73.842 105.706 74.4978 104.928 74.4978 104.928C74.4978 104.928 73.842 104.146 72.9145 104.146ZM72.9145 105.481C72.61 105.481 72.3617 105.233 72.3617 104.924C72.3617 104.619 72.61 104.371 72.9145 104.371C73.2236 104.371 73.4719 104.619 73.4719 104.924C73.4719 105.233 73.2236 105.481 72.9145 105.481Z" fill="#A6A6A6"/>
<path d="M73.27 104.926C73.27 105.121 73.1116 105.279 72.9168 105.279C72.7214 105.279 72.5636 105.121 72.5636 104.926C72.5636 104.731 72.7219 104.573 72.9168 104.573C73.1121 104.572 73.27 104.731 73.27 104.926Z" fill="#A6A6A6"/>
<path d="M61.8655 126.425H34.7498V134.604H61.8655V126.425Z" fill="#E0E0E0"/>
<path d="M39.734 131.172C39.8094 131.08 39.948 131.067 40.0403 131.143C40.2249 131.293 40.5439 131.47 40.8418 131.465C41.0517 131.465 41.2404 131.403 41.3664 131.31C41.492 131.218 41.5468 131.113 41.5468 131.008C41.5468 130.953 41.5341 130.916 41.5088 130.874C41.4835 130.832 41.4456 130.789 41.3828 130.748C41.261 130.668 41.0554 130.597 40.8081 130.551H40.7996C40.6024 130.513 40.4179 130.463 40.2586 130.387C40.0993 130.312 39.9607 130.207 39.8684 130.06C39.8056 129.959 39.7719 129.842 39.7719 129.716C39.7719 129.464 39.9148 129.246 40.1078 129.103C40.305 128.961 40.5607 128.881 40.8334 128.881C41.2362 128.881 41.5341 129.078 41.7482 129.216C41.8447 129.284 41.8738 129.418 41.8072 129.514C41.7445 129.615 41.61 129.645 41.5093 129.578C41.2952 129.435 41.0896 129.309 40.8338 129.309C40.6451 129.309 40.4774 129.368 40.364 129.452C40.2506 129.536 40.2047 129.628 40.2047 129.716C40.2047 129.767 40.2132 129.801 40.2342 129.834C40.2553 129.868 40.2928 129.905 40.3476 129.943C40.4567 130.018 40.6455 130.086 40.8722 130.128H40.8807C41.0948 130.17 41.292 130.224 41.4597 130.304C41.632 130.388 41.7829 130.497 41.8794 130.652C41.9421 130.753 41.9801 130.878 41.9801 131.009C41.9801 131.277 41.8292 131.508 41.6194 131.659C41.4138 131.81 41.1411 131.899 40.8432 131.899C40.3902 131.895 40.0085 131.668 39.7691 131.479C39.6749 131.403 39.6623 131.264 39.734 131.172Z" fill="white"/>
<path d="M42.6524 129.196C42.6524 129.066 42.7531 128.965 42.8833 128.965C43.0093 128.965 43.118 129.066 43.118 129.196V131.671C43.118 131.801 43.0088 131.902 42.8833 131.902C42.7531 131.902 42.6524 131.801 42.6524 131.671V129.196Z" fill="white"/>
<path d="M43.7715 130.396C43.7715 129.553 44.468 128.882 45.3196 128.882C45.6761 128.882 46.0162 129.003 46.2762 129.209C46.3853 129.289 46.4022 129.444 46.3225 129.549C46.2429 129.65 46.0878 129.671 45.9825 129.587C45.8021 129.448 45.5716 129.36 45.3196 129.36C45.0175 129.36 44.7533 129.473 44.5645 129.666C44.3673 129.855 44.2497 130.111 44.2497 130.397C44.2497 130.674 44.3673 130.93 44.5645 131.118C44.7533 131.311 45.0175 131.424 45.3196 131.424C45.5295 131.424 45.7267 131.361 45.8944 131.265V130.69H45.2943C45.1641 130.69 45.055 130.581 45.055 130.451C45.055 130.316 45.1641 130.216 45.2943 130.216H46.1211C46.1253 130.216 46.1253 130.216 46.1253 130.216C46.1295 130.216 46.1295 130.216 46.1295 130.216C46.264 130.216 46.3727 130.316 46.3727 130.451V131.378C46.3727 131.407 46.3647 131.424 46.36 131.449C46.3558 131.458 46.3558 131.461 46.3516 131.47V131.474C46.3389 131.512 46.3136 131.545 46.2719 131.575C46.0078 131.781 45.6761 131.902 45.3196 131.902C44.468 131.903 43.7715 131.235 43.7715 130.396Z" fill="white"/>
<path d="M47.7761 131.672C47.7761 131.798 47.6711 131.903 47.5493 131.903C47.4191 131.903 47.3184 131.798 47.3184 131.672V129.234C47.3184 129.234 47.3184 129.234 47.3184 129.23C47.3142 129.159 47.3479 129.083 47.4107 129.037C47.5156 128.966 47.658 128.987 47.7297 129.087L49.0849 130.963V129.234C49.0849 129.113 49.186 129.008 49.3116 129.008C49.4376 129.008 49.542 129.113 49.542 129.234V131.672C49.542 131.798 49.4371 131.903 49.3116 131.903C49.2441 131.903 49.1814 131.869 49.1397 131.819C49.1308 131.81 49.1228 131.802 49.1186 131.793L47.7761 129.93V131.672Z" fill="white"/>
<path d="M53.0219 131.902C52.3465 131.902 51.8092 131.357 51.8092 130.69V129.196C51.8092 129.066 51.9099 128.965 52.0401 128.965C52.1661 128.965 52.2748 129.066 52.2748 129.196V130.69C52.2748 131.101 52.6107 131.437 53.0219 131.437C53.4374 131.437 53.7686 131.101 53.7686 130.69V129.196C53.7686 129.066 53.874 128.965 54.0038 128.965C54.1335 128.965 54.2342 129.066 54.2342 129.196V130.69C54.2342 131.357 53.6932 131.902 53.0219 131.902Z" fill="white"/>
<path d="M56.1998 130.761H55.6836V131.671C55.6836 131.797 55.5787 131.902 55.4484 131.902C55.3229 131.902 55.218 131.797 55.218 131.671V129.196C55.218 129.066 55.3229 128.965 55.4484 128.965H55.4531H56.1998C56.6992 128.965 57.102 129.368 57.102 129.868C57.1015 130.358 56.6992 130.761 56.1998 130.761ZM55.6836 130.295H56.1998C56.4434 130.295 56.6322 130.102 56.6364 129.868C56.6322 129.624 56.4434 129.431 56.1998 129.431H55.6836V130.295Z" fill="white"/>
<path d="M60.3849 39.9236C63.3657 39.9236 65.7821 37.5071 65.7821 34.5263C65.7821 31.5455 63.3657 29.129 60.3849 29.129C57.404 29.129 54.9876 31.5455 54.9876 34.5263C54.9876 37.5071 57.404 39.9236 60.3849 39.9236Z" fill="#EBEBEB"/>
<path d="M35.4262 58.2992C37.5158 58.2992 39.2097 56.6053 39.2097 54.5157C39.2097 52.4261 37.5158 50.7322 35.4262 50.7322C33.3366 50.7322 31.6427 52.4261 31.6427 54.5157C31.6427 56.6053 33.3366 58.2992 35.4262 58.2992Z" fill="#EBEBEB"/>
<path d="M56.0007 56.6723C54.7312 57.4607 53.3208 58.0636 51.7885 58.4355C47.8265 59.4037 43.8514 58.6599 40.6394 56.6658C37.4981 54.7232 35.081 51.588 34.1319 47.7154C32.2212 39.8744 37.017 31.9691 44.8581 30.0588C52.6926 28.142 60.5979 32.9439 62.5147 40.785C64.053 47.0938 61.2387 53.4411 56.0007 56.6723Z" fill="#E0E0E0"/>
<path d="M52.7643 42.578C52.7643 45.0326 50.7744 47.023 48.3199 47.023C45.8653 47.023 43.8749 45.0331 43.8749 42.578C43.8749 40.1234 45.8648 38.1331 48.3199 38.1331C50.7744 38.1331 52.7643 40.123 52.7643 42.578Z" fill="white"/>
<path d="M56.0007 54.8388V56.6723C54.7313 57.4606 53.3208 58.0635 51.7886 58.4354C47.8266 59.4037 43.8515 58.6598 40.6394 56.6657V54.8383C40.6394 50.607 44.0758 47.1575 48.3203 47.1575C52.5643 47.1579 56.0007 50.607 56.0007 54.8388Z" fill="white"/>
<path d="M89.7096 28.5072C89.7096 28.5072 92.9863 51.3132 92.7671 53.484C92.5478 55.6542 89.8712 76.6737 89.8712 76.6737C89.8712 76.6737 83.8669 75.3822 82.1323 74.3456C80.8862 73.6012 76.475 69.7962 76.475 69.7962C76.475 69.7962 83.9858 55.1333 84.5896 52.1606C85.1935 49.188 85.616 34.7631 86.3289 31.8607C87.0419 28.9588 89.7775 27.9624 89.7775 27.9624" fill="#A0D2F4"/>
<path d="M82.6513 60.1329C83.0307 60.9841 83.7376 61.6282 84.4969 62.1406C84.9068 62.4184 85.6928 63.0119 85.9416 62.2474C86.024 61.9945 85.9622 61.6783 85.839 61.3598C85.6619 60.8117 85.2726 60.2669 84.985 59.9142C84.5475 59.376 83.8144 58.6653 83.0476 58.7984C82.3374 58.923 82.425 59.6144 82.6513 60.1329Z" fill="#263238"/>
<path d="M87.4568 63.8092C87.5889 64.7816 87.8536 65.8005 88.5586 66.5237C88.8846 66.8601 89.2589 66.9697 89.547 66.7355C89.8763 66.5495 89.9948 65.9911 90.0388 65.5906C90.1377 64.6411 89.9625 63.6494 89.524 62.7969C89.2477 62.2605 88.7624 61.5115 88.0457 61.6764C87.1205 61.89 87.3669 63.1496 87.4568 63.8092Z" fill="#263238"/>
<path d="M83.7929 63.4391C83.3839 63.7609 83.7938 64.9854 84.17 65.5662C84.651 66.3096 85.4511 67.1486 86.1186 66.83C86.4554 66.668 86.5055 65.7555 85.7617 64.6059C85.0717 63.5398 84.1301 63.1753 83.7929 63.4391Z" fill="#263238"/>
<path d="M81.7406 70.1915C81.9004 70.5044 82.2437 71.0586 82.6545 71.0778C83.0419 71.0956 83.1262 70.6843 83.123 70.384C83.1192 70.0543 83.0438 69.4945 82.8616 69.0101C82.6733 68.4101 82.3177 67.8892 81.7415 67.8587C80.6004 67.7964 81.535 69.7882 81.7406 70.1915Z" fill="#263238"/>
<path d="M117.776 134.816C117.776 134.816 127.987 152.874 127.993 152.887C129.634 156.529 131.007 159.751 131.562 161.484C131.566 161.493 131.57 161.501 131.57 161.512C131.78 162.166 131.872 162.602 131.808 162.758C131.803 162.771 131.803 162.782 131.797 162.79C131.044 164.013 102.323 177.97 101.158 178.12C99.9903 178.276 99.4741 174.959 100.157 173.529C100.848 172.093 109.449 161.834 109.449 161.834L99.4225 143.703L117.776 134.816Z" fill="#EB9481"/>
<path d="M101.618 178.016C102.781 177.864 131.045 164.011 131.796 162.792C131.803 162.78 131.806 162.77 131.808 162.759C131.874 162.602 131.778 162.164 131.573 161.514C131.569 161.499 131.569 161.495 131.561 161.486C131.006 159.753 129.632 156.53 127.995 152.886C127.994 152.882 126.275 149.73 125.59 148.635L107.323 158.076L109.449 161.834C109.449 161.834 101.304 171.99 100.617 173.422C99.9298 174.855 100.449 178.168 101.618 178.016Z" fill="#EBEBEB"/>
<path d="M101.092 177.626C102.266 177.448 130.881 162.706 131.613 161.452C131.9 160.981 129.995 156.686 127.544 151.563C127.518 151.51 127.491 151.456 127.466 151.403L108.898 160.708L109.067 161.017C109.067 161.017 100.637 171.559 99.9767 173.023C99.3237 174.478 99.9214 177.808 101.092 177.626Z" fill="#39A7EA"/>
<path d="M100.845 176.349C105.608 173.746 125.063 163.694 129.969 161.483C130.009 161.465 130.023 161.491 129.984 161.513C125.32 164.197 105.784 174.09 100.885 176.428C100.782 176.477 100.744 176.404 100.845 176.349Z" fill="white"/>
<path d="M107.544 161.872C109.26 160.539 111.731 159.635 113.879 160.24C113.962 160.264 113.927 160.381 113.856 160.394C111.679 160.768 109.735 161.29 107.675 162.108C107.53 162.165 107.421 161.967 107.544 161.872Z" fill="#263238"/>
<path d="M106.599 163.403C108.315 162.071 110.787 161.167 112.934 161.772C113.017 161.795 112.983 161.913 112.911 161.925C110.734 162.3 108.79 162.822 106.73 163.639C106.585 163.697 106.476 163.499 106.599 163.403Z" fill="#263238"/>
<path d="M105.655 164.935C107.37 163.603 109.842 162.698 111.989 163.304C112.073 163.327 112.038 163.445 111.966 163.457C109.789 163.832 107.845 164.354 105.786 165.171C105.64 165.228 105.532 165.03 105.655 164.935Z" fill="#263238"/>
<path d="M124.392 157.042C125.932 154.936 129.208 157.326 127.665 159.436C126.125 161.541 122.849 159.151 124.392 157.042Z" fill="white"/>
<path opacity="0.1" d="M107.807 162.598L105.751 175.447C103.161 176.736 101.371 177.583 101.095 177.626C99.9237 177.808 99.3242 174.478 99.9753 173.021C100.476 171.915 105.433 165.596 107.807 162.598Z" fill="black"/>
<path d="M100.128 176.825C99.7167 177.286 100.714 178.949 101.154 178.896C101.595 178.844 132.725 162.633 133.194 162.241C133.663 161.849 132.487 160.047 131.822 160.266C131.156 160.486 100.128 176.825 100.128 176.825Z" fill="#263238"/>
<path d="M125.632 146.946L105.051 157.936C105.051 157.936 79.072 120.913 78.5525 111.185C77.8348 97.7512 89.3053 55.1024 89.3053 55.1024L107.601 54.9783C107.601 54.9783 100.164 98.8394 100.768 106.322C101.084 110.237 125.632 146.946 125.632 146.946Z" fill="#39A7EA"/>
<path d="M103.254 153.682C104.314 152.919 114.07 147.265 121.499 143.655C121.549 143.631 121.582 143.701 121.537 143.731C119.284 145.219 104.722 153.196 103.309 153.762C103.263 153.78 103.206 153.717 103.254 153.682Z" fill="#308CC5"/>
<path d="M98.2275 96.9508C99.0777 90.5328 100.012 84.1242 101.079 77.7381C102.15 71.3234 103.28 64.9124 104.621 58.5483C104.785 57.7712 104.956 56.9955 105.126 56.2198C105.152 56.1003 105.334 56.135 105.313 56.2558C104.185 62.5698 103.026 68.8787 101.988 75.209C100.951 81.5385 99.9832 87.8796 99.1147 94.2344C98.8997 95.8079 98.6903 97.3823 98.487 98.9571C98.2772 100.584 98.0388 102.216 98.02 103.858C98.0017 105.436 98.2491 106.972 98.8042 108.451C99.3494 109.902 100.126 111.25 100.912 112.581C104.222 118.181 119.047 142.653 119.431 143.364C119.456 143.411 119.392 143.46 119.362 143.413C115.805 137.892 104.769 120.262 101.412 114.571C99.898 112.005 98.1624 109.405 97.6682 106.41C97.1548 103.296 97.8186 100.041 98.2275 96.9508Z" fill="#308CC5"/>
<path d="M103.5 146.947C103.5 146.947 103.706 167.821 103.706 167.835C103.596 171.828 103.428 175.326 103.172 177.128C103.172 177.138 103.172 177.147 103.167 177.157C103.071 177.837 102.963 178.27 102.838 178.382C102.828 178.392 102.824 178.402 102.814 178.406C101.603 179.178 69.6709 179.227 68.557 178.853C67.4384 178.485 68.4188 175.275 69.6564 174.285C70.9038 173.294 83.1163 167.808 83.1163 167.808L83.1079 146.949L103.5 146.947Z" fill="#EB9481"/>
<path d="M103.664 163.55C103.664 163.55 103.706 167.821 103.706 167.835C103.596 171.828 103.428 175.326 103.172 177.128C103.172 177.138 103.172 177.147 103.167 177.157C103.032 177.827 102.915 178.27 102.838 178.382C102.828 178.392 102.824 178.402 102.814 178.406C101.603 179.178 69.6709 179.227 68.557 178.853C67.4384 178.485 68.4188 175.275 69.6564 174.285C70.9038 173.294 83.1163 167.808 83.1163 167.808L83.1144 163.456L103.664 163.55Z" fill="#EBEBEB"/>
<path d="M68.5415 178.814C69.6723 179.173 101.857 178.607 103.068 177.806C103.533 177.51 103.724 172.816 103.792 167.137C103.792 167.077 103.792 167.018 103.792 166.959L83.0245 167.092L83.0386 167.444C83.0386 167.444 70.8162 173.171 69.5768 174.192C68.3476 175.208 67.4107 178.46 68.5415 178.814Z" fill="#39A7EA"/>
<path d="M68.884 177.56C74.307 177.331 96.2015 176.921 101.579 177.107C101.623 177.108 101.624 177.138 101.58 177.141C96.2095 177.485 74.3122 177.718 68.8849 177.649C68.7711 177.647 68.7697 177.565 68.884 177.56Z" fill="white"/>
<path d="M81.2952 167.538C83.4228 167.102 86.0399 167.384 87.6982 168.876C87.7624 168.934 87.6795 169.024 87.6097 169.004C85.4919 168.377 83.517 167.986 81.3083 167.808C81.1528 167.795 81.1425 167.569 81.2952 167.538Z" fill="#263238"/>
<path d="M79.7704 168.494C81.8985 168.058 84.5151 168.34 86.1734 169.832C86.2376 169.89 86.1546 169.981 86.0848 169.959C83.9666 169.333 81.9922 168.941 79.7835 168.763C79.628 168.75 79.6177 168.525 79.7704 168.494Z" fill="#263238"/>
<path d="M78.2457 169.449C80.3738 169.013 82.9909 169.295 84.6487 170.788C84.7129 170.845 84.63 170.936 84.5602 170.915C82.4419 170.288 80.4679 169.897 78.2588 169.719C78.1033 169.707 78.0935 169.481 78.2457 169.449Z" fill="#263238"/>
<path d="M68.03 177.669C67.4576 177.901 67.6164 179.834 68.0347 179.981C68.453 180.129 103.542 179.357 104.137 179.212C104.731 179.068 104.474 176.932 103.779 176.835C103.085 176.737 68.03 177.669 68.03 177.669Z" fill="#263238"/>
<path d="M98.5418 170.657C100.854 169.449 102.735 173.041 100.419 174.251C98.1061 175.459 96.2249 171.867 98.5418 170.657Z" fill="white"/>
<path d="M89.5357 55.0612C89.5357 55.0612 89.5362 55.0659 89.5423 55.0799C89.6636 55.4575 96.2394 73.4752 96.8587 73.7628C97.5599 74.0861 82.3331 99.6629 81.4323 111.546C80.8561 119.145 81.9855 162.153 81.9855 162.153H104.247C104.247 162.153 103.177 123.487 102.668 111.236C102.471 106.485 117.953 82.8322 118.143 68.1033C118.203 63.4606 114.867 54.9783 114.867 54.9783L89.5357 55.0612Z" fill="#39A7EA"/>
<path d="M102.541 110.905C102.541 110.708 102.695 110.646 102.711 110.847C103.214 117.477 103.331 124.071 103.648 130.712C103.963 137.334 103.784 138.931 104.079 145.553C104.246 149.301 104.088 153.058 104.175 156.809C104.176 156.867 104.089 156.875 104.082 156.816C103.39 150.207 102.545 114.66 102.541 110.905Z" fill="#308CC5"/>
<path d="M81.4324 111.808C81.4816 110.174 81.5888 108.536 81.8821 106.926C82.1688 105.353 82.6676 103.829 83.2569 102.343C84.487 99.2423 85.9415 96.2177 87.3309 93.1855C88.738 90.1135 90.1742 87.0556 91.6592 84.0202C92.4934 82.3141 93.3329 80.61 94.1784 78.9096C95.0338 77.189 95.9552 75.4994 96.8513 73.7995C96.8869 73.732 96.9904 73.7817 96.9581 73.8515C95.5312 76.915 94.1231 79.9865 92.6963 83.0505C91.2699 86.1136 89.8688 89.1898 88.4668 92.2641C87.0877 95.2883 85.7063 98.3153 84.4069 101.375C83.7839 102.841 83.2026 104.328 82.8189 105.878C82.4255 107.466 82.2592 109.096 82.1669 110.727C81.9514 114.529 81.846 118.344 81.4727 122.135C81.468 122.182 81.3902 122.178 81.3888 122.13C81.275 118.697 81.3284 115.241 81.4324 111.808Z" fill="#308CC5"/>
<path d="M83.5979 157.754C84.8927 157.585 94.7555 157.245 103.007 157.597C103.063 157.599 103.059 157.676 103.006 157.681C100.316 157.92 85.1213 158.023 83.6087 157.85C83.5586 157.843 83.5394 157.761 83.5979 157.754Z" fill="#308CC5"/>
<path d="M93.7811 72.7627C96.1626 73.3187 98.4982 74.2153 100.742 75.1761C100.83 75.2135 100.788 75.3485 100.694 75.3189C98.3577 74.5873 95.9814 73.9015 93.6879 73.0419C93.508 72.9749 93.5984 72.7201 93.7811 72.7627Z" fill="#308CC5"/>
<path d="M91.5365 57.5026C91.5346 57.4248 91.6686 57.3934 91.6766 57.4773C91.9305 60.1361 92.3399 62.4567 92.8181 64.9165C93.0402 66.059 94.6207 72.3345 96.5717 71.6651C96.8987 71.5532 97.0354 71.2061 97.0364 70.6964C97.0373 70.0833 96.7328 69.3628 96.5708 68.7698C96.2124 67.4591 95.8972 66.1391 95.6442 64.8036C95.173 62.3106 94.9045 59.797 94.9533 57.2585C94.9551 57.1752 95.0746 57.1691 95.083 57.2524C95.4367 60.7338 95.884 64.1993 96.7581 67.594C97.1778 69.2256 98.2683 71.6347 96.5614 72.0671C94.8226 72.5079 93.2529 68.4461 92.9203 67.3251C91.9923 64.1969 91.6152 60.7554 91.5365 57.5026Z" fill="#308CC5"/>
<path d="M96.5364 71.8418C96.7608 72.2513 96.9519 72.6817 97.1215 73.1165C97.2531 73.4542 97.4222 73.8163 97.4194 74.1826C97.4189 74.2538 97.3266 74.2702 97.284 74.2262C97.0194 73.9531 96.8784 73.5563 96.7111 73.2176C96.5172 72.8246 96.3148 72.4358 96.1322 72.0376C96.0113 71.7735 96.3982 71.5894 96.5364 71.8418Z" fill="#308CC5"/>
<path d="M100.261 117.447C100.148 114.283 99.7958 110.964 100.834 107.909C101.349 106.394 102.13 104.992 102.864 103.577C103.636 102.088 104.393 100.593 105.136 99.0904C108.11 93.0833 110.913 86.9801 113.417 80.7607C114.623 77.7655 115.7 74.6912 116.131 71.4773C116.582 68.1149 116.261 64.6747 115.51 61.3793C115.322 60.5558 115.122 59.7361 114.897 58.9215C114.881 58.862 114.969 58.8282 114.989 58.8882C115.991 62.0108 116.68 65.2556 116.725 68.5454C116.768 71.7148 116.074 74.7919 115.05 77.7749C113.983 80.882 112.646 83.9029 111.33 86.9107C109.974 90.0113 108.566 93.0893 107.101 96.1402C105.644 99.1761 104.091 102.161 102.554 105.156C101.81 106.606 101.133 108.09 100.846 109.705C100.553 111.349 100.6 113.025 100.662 114.686C100.925 121.688 101.528 144.989 101.617 151.972C101.628 152.859 101.639 153.745 101.648 154.632C101.649 154.71 101.531 154.721 101.526 154.641C101.082 147.675 100.513 124.427 100.261 117.447Z" fill="#308CC5"/>
<path d="M105.255 59.596C105.258 59.5464 105.333 59.5562 105.339 59.6007C105.601 61.5274 105.751 63.5257 106.682 65.2739C107.536 66.8778 109.024 67.9116 110.647 68.6358C111.585 69.0541 112.561 69.3844 113.537 69.7015C113.607 69.7245 113.591 69.8341 113.514 69.8177C111.673 69.4354 109.802 69.0064 108.201 67.9721C106.487 66.8647 105.606 65.0936 105.324 63.1102C105.159 61.9443 105.177 60.7671 105.255 59.596Z" fill="#308CC5"/>
<path d="M115.997 56.4689C115.954 56.5583 86.6736 64.5357 86.3433 64.3235C86.3134 64.3043 85.1006 63.6527 84.8392 61.3869C84.7675 60.7648 85.6009 58.0887 85.6206 56.1105C85.6899 49.1726 85.4177 36.2926 87.3041 29.372C87.8114 27.5109 91.8142 25.3819 94.0139 26.7337C103.912 32.8191 116.052 56.3541 115.997 56.4689Z" fill="#EBEBEB"/>
<path d="M92.5398 26.1903C92.5398 26.1903 93.6303 40.9623 94.0195 42.6758C94.2922 43.8759 97.6082 55.9315 99.3156 64.6467C100.046 68.3763 99.7054 74.2505 99.7054 74.2505C99.7054 74.2505 109.901 70.9386 113.023 68.8143C114.836 67.5814 118.865 62.2759 118.865 62.2759C118.865 62.2759 112.413 47.934 108.753 42.5601C105.092 37.1858 98.086 27.8738 94.8107 26.5159C93.3183 25.8957 92.5398 26.1903 92.5398 26.1903Z" fill="#A0D2F4"/>
<path d="M89.4121 33.7701C91.0661 33.3757 92.4592 29.031 92.5398 26.6963C92.5445 26.5366 91.9238 25.7693 90.9518 24.2305C90.3654 23.2941 89.7348 22.2383 89.2285 21.233L83.6939 25.9384C83.6939 25.9384 85.3747 27.7339 86.246 29.492C86.3172 29.6395 86.371 29.7833 86.4104 29.9262C86.4179 29.9463 86.424 29.9721 86.4357 29.9993C86.7027 30.8467 87.8133 34.15 89.4121 33.7701Z" fill="#EB9481"/>
<path d="M87.1463 30.9131C87.0339 30.974 86.9214 31.0255 86.8137 31.077C86.6357 30.6226 86.5045 30.2245 86.4343 29.9996C86.4249 29.9715 86.4202 29.9434 86.4109 29.9247C86.3734 29.7842 86.3172 29.6389 86.2469 29.489C85.3756 27.7324 83.6939 25.9383 83.6939 25.9383L89.2308 21.2306C89.3385 21.4414 89.4463 21.6522 89.5634 21.8677C90.2051 24.177 90.9406 28.8988 87.1463 30.9131Z" fill="#263238"/>
<path d="M86.5604 14.4483C88.3788 16.3305 90.4882 23.3715 89.6356 25.6167C88.3994 28.8718 84.7377 30.9915 81.5584 29.1313C78.4771 27.3279 75.8899 18.103 76.995 15.8944C78.6228 12.6407 83.8748 11.6682 86.5604 14.4483Z" fill="#EB9481"/>
<path d="M82.2971 21.7896C82.2943 21.7708 82.3416 21.7985 82.3477 21.8177C82.5042 22.2875 82.7627 22.7995 83.2401 22.7986C83.2546 22.7986 83.2621 22.8225 83.2457 22.8257C82.7065 22.9428 82.3702 22.2599 82.2971 21.7896Z" fill="#263238"/>
<path d="M82.5332 21.1516C83.2597 20.8195 83.8706 22.2965 83.1974 22.6042C82.5351 22.9068 81.9242 21.4299 82.5332 21.1516Z" fill="#263238"/>
<path d="M79.6715 22.8992C79.6607 22.8833 79.6448 22.9357 79.6532 22.954C79.857 23.4056 80.0144 23.9569 79.6635 24.2797C79.6527 24.29 79.6635 24.3125 79.6775 24.3036C80.153 24.0244 79.9371 23.2946 79.6715 22.8992Z" fill="#263238"/>
<path d="M79.0653 22.5906C78.3065 22.8389 78.8592 24.3388 79.5623 24.1083C80.2542 23.8821 79.7014 22.3822 79.0653 22.5906Z" fill="#263238"/>
<path d="M82.7412 19.9543C82.5201 19.9932 82.3098 19.9922 82.0873 20.0086C81.8362 20.0264 81.6381 20.0667 81.4095 19.9365C81.2872 19.8667 81.2352 19.6662 81.2919 19.5411C81.424 19.2493 81.7262 19.1509 82.0274 19.1167C82.3548 19.0797 82.6162 19.135 82.8925 19.313C83.161 19.4849 83.0326 19.9028 82.7412 19.9543Z" fill="#263238"/>
<path d="M77.9847 21.5834C78.1758 21.4653 78.3318 21.3248 78.5084 21.1885C78.7079 21.0349 78.8827 20.9327 78.966 20.6835C79.011 20.55 78.9164 20.3659 78.7904 20.3102C78.4976 20.1804 78.2067 20.3078 77.9594 20.4835C77.691 20.6737 77.5322 20.8892 77.4441 21.2058C77.3589 21.5127 77.7327 21.7394 77.9847 21.5834Z" fill="#263238"/>
<path d="M84.5807 25.6142C84.5156 25.7665 84.4674 25.9595 84.3067 26.0419C84.153 26.1211 83.9366 26.1267 83.7675 26.13C83.7507 26.1304 83.7427 26.1515 83.7572 26.1618C83.9488 26.2883 84.2439 26.2949 84.4406 26.1698C84.6327 26.048 84.6613 25.8264 84.6332 25.6161C84.6294 25.5871 84.5901 25.5917 84.5807 25.6142Z" fill="#263238"/>
<path d="M83.5332 24.4432C83.4414 24.9463 83.1547 25.3192 82.78 25.5665C82.6132 25.6785 82.4249 25.7637 82.2301 25.8237C82.193 25.8382 82.1542 25.8495 82.1181 25.8555C82.083 25.8654 82.0511 25.8738 82.0113 25.8818C81.9546 25.8963 81.9068 25.864 81.8773 25.8171L81.8759 25.8139C81.8694 25.797 81.8642 25.7834 81.8609 25.7651C81.8609 25.7651 81.8609 25.7651 81.8595 25.7619L81.8436 25.7211C81.6881 25.3731 81.5007 24.8231 81.5007 24.8231C81.3986 24.9407 80.8646 25.5075 80.799 25.3192C80.2598 23.7579 79.6602 22.0219 79.4532 20.3548C79.4438 20.3 79.5253 20.2798 79.5417 20.3318C80.1193 21.8116 80.4327 23.3832 80.9892 24.8789C81.1658 24.7126 81.4464 24.424 81.6323 24.3514C81.6881 24.3449 81.9757 25.4204 82.0577 25.5712C82.0577 25.5712 82.0605 25.5782 82.0675 25.5867C82.6905 25.4176 83.0625 25.0541 83.4728 24.4193C83.4967 24.38 83.5459 24.3959 83.5332 24.4432Z" fill="#263238"/>
<path d="M89.1466 21.2306C87.7947 21.4798 86.6873 18.2102 86.6873 18.2102C86.6873 18.2102 84.8749 18.1352 83.3816 15.3242C83.3816 15.3242 83.2462 18.6224 77.655 19.7401C77.655 19.7401 76.9233 18.5732 77.1252 16.8096C77.1252 16.8096 76.8263 18.0715 76.7219 20.1542C76.7219 20.1542 73.9656 16.1046 77.2639 13.2734C78.5755 12.1477 80.926 11.5163 85.0047 12.0957C85.0047 12.0957 84.9864 9.77325 85.4811 9.91612C85.9757 10.059 85.8432 12.2775 85.8432 12.2775C85.8432 12.2775 87.2269 11.2938 87.5928 11.5308C87.9071 11.7346 86.551 12.6119 86.551 12.6119C86.551 12.6119 89.1559 12.5881 89.6576 15.4361C90.1167 18.05 89.8155 21.1074 89.1466 21.2306Z" fill="#263238"/>
<path d="M86.1111 12.7165C87.4868 12.2106 89.0729 12.8126 89.7316 14.1331C90.0969 14.8657 90.177 15.7581 90.1709 16.5652C90.1644 17.4486 89.9789 18.2838 89.7531 19.1331C89.7405 19.18 89.6693 19.1523 89.6824 19.1055C89.8983 18.3447 89.9456 17.525 89.918 16.7361C89.8922 15.9942 89.8215 15.1861 89.5568 14.4867C89.0317 13.0988 87.5459 12.406 86.1349 12.7962C86.0895 12.8083 86.067 12.7329 86.1111 12.7165Z" fill="#263238"/>
<path d="M80.0907 11.5192C81.0632 11.4115 82.0778 11.4738 83.0433 11.6223C83.9675 11.7647 84.8959 11.9792 85.7255 12.4242C85.7677 12.4467 85.7457 12.5109 85.6979 12.4949C84.0106 11.9249 82.1495 11.8087 80.3779 11.8794C78.7201 11.9459 76.9274 12.5366 76.1784 14.1485C76.1662 14.1747 76.1255 14.1598 76.1358 14.1321C76.7415 12.501 78.4592 11.7 80.0907 11.5192Z" fill="#263238"/>
<path d="M87.8752 20.6297C87.8752 20.6297 88.3253 17.8121 89.5343 17.8734C90.7434 17.9348 91.1172 21.5206 90.199 22.4819C89.2809 23.4431 88.3745 22.6102 88.3745 22.6102L87.8752 20.6297Z" fill="#EB9481"/>
<path d="M89.6158 18.904C89.6331 18.8937 89.6486 18.9171 89.636 18.9312C89.0045 19.631 88.9446 20.5604 89.0214 21.456C89.1141 21.0518 89.3549 20.7379 89.8796 20.8269C89.9072 20.8316 89.903 20.8733 89.8786 20.8794C89.5231 20.9665 89.3179 21.1352 89.2256 21.4987C89.16 21.7558 89.1671 22.0378 89.1591 22.302C89.1563 22.3901 89.0115 22.414 88.9989 22.3203C88.998 22.3133 88.9975 22.3058 88.9966 22.2988C88.4911 21.3071 88.589 19.527 89.6158 18.904Z" fill="#263238"/>
<path d="M98.4964 33.3524C100.869 41.6732 102.377 57.3431 101.173 60.1884C100.108 62.7081 92.0831 68.5663 87.4686 71.6954C85.9663 72.7138 78.6869 61.2096 80.3498 60.2095C82.6142 58.8482 90.742 53.4767 90.9406 52.8968C91.1589 52.2597 91.8812 40.5405 93.1249 33.7885C94.2519 27.6689 97.5994 30.2055 98.4964 33.3524Z" fill="#EB9481"/>
<path d="M64.9951 73.7742C66.1301 74.934 68.7524 71.893 68.7524 71.893C68.7524 71.893 68.4863 72.9821 69.033 73.91C69.6593 74.9729 71.6 74.4572 71.6 74.4572C71.6 74.4572 71.5588 75.6151 72.2352 76.5375C72.9369 77.4945 74.9694 77.2532 74.9694 77.2532C74.9694 77.2532 75.524 78.3526 76.6797 78.7307C78.6564 79.3766 80.9583 77.1549 82.655 76.0606C84.4725 74.8886 86.9969 72.4265 87.9037 71.1308L81.0759 60.022C81.0759 60.022 71.4047 62.4292 69.7815 64.1938C68.4142 65.6811 63.2605 72.0016 64.9951 73.7742Z" fill="#EB9481"/>
<path d="M68.744 71.8367C69.8186 69.9073 71.3527 68.2392 72.8508 66.6451C72.884 66.6095 72.9393 66.6624 72.9055 66.6976C71.3972 68.2654 70.272 70.2741 68.8293 71.8986C68.789 71.9435 68.715 71.8892 68.744 71.8367Z" fill="#263238"/>
<path d="M71.526 74.2994C71.7823 73.8703 72.179 73.5269 72.5364 73.1831C72.9205 72.8131 73.3117 72.45 73.708 72.0931C74.5015 71.3778 75.3114 70.6808 76.141 70.0081C76.178 69.9781 76.2324 70.0273 76.1958 70.0605C75.406 70.7744 74.6275 71.5005 73.8686 72.2472C73.4887 72.6205 73.1126 72.9976 72.7383 73.377C72.3903 73.7298 72.0525 74.1312 71.6324 74.4001C71.5701 74.4399 71.4876 74.364 71.526 74.2994Z" fill="#263238"/>
<path d="M75.0017 77.2224C75.2092 76.8406 75.6402 76.5464 75.9648 76.2658C76.333 75.9473 76.6998 75.6274 77.0647 75.3051C77.7941 74.6605 78.5229 74.0155 79.2293 73.3456C79.2645 73.3124 79.3193 73.3644 79.2841 73.3981C78.5698 74.0825 77.8648 74.7758 77.1443 75.4536C76.7907 75.7862 76.4351 76.1174 76.0777 76.4462C75.7742 76.7258 75.4261 77.11 75.0331 77.2603C75.0106 77.2688 74.9914 77.2416 75.0017 77.2224Z" fill="#263238"/>
<path d="M102.728 52.5599L89.8159 52.7187C89.8159 52.7187 91.4751 38.4821 93.2584 32.2857C94.7565 27.0786 97.8767 27.5555 99.5902 34.2793C101.212 40.6435 102.728 52.5599 102.728 52.5599Z" fill="#A0D2F4"/>
</svg>
