<svg width="20" height="22" viewBox="0 0 20 22" fill="none" xmlns="http://www.w3.org/2000/svg">
<path fill-rule="evenodd" clip-rule="evenodd" d="M10.0999 0C6.1533 0 2.83237 3.04438 2.37503 7.0816L1.95352 10.8026C1.84878 11.7272 1.47404 12.5973 0.878857 13.2978C-0.384195 14.7845 0.640915 17.1111 2.55898 17.1111H17.6409C19.5589 17.1111 20.584 14.7845 19.321 13.2978C18.7258 12.5973 18.3511 11.7272 18.2463 10.8026L17.8248 7.0816C17.3675 3.04438 14.0465 0 10.0999 0ZM13.7325 19.6429C13.1735 21.0212 11.7579 22 10.0999 22C8.44194 22 7.02635 21.0212 6.46734 19.6429C6.44404 19.5855 6.43325 19.5238 6.43325 19.4618C6.43325 19.1761 6.66488 18.9444 6.95061 18.9444H13.2492C13.535 18.9444 13.7666 19.1761 13.7666 19.4618C13.7666 19.5238 13.7558 19.5855 13.7325 19.6429Z" fill="#39A7EA"/>
</svg>
