<svg width="222" height="220" viewBox="0 0 222 220" fill="none" xmlns="http://www.w3.org/2000/svg">
<path d="M68.5662 220C89.6235 220 106.694 217.06 106.694 213.433C106.694 209.807 89.6235 206.867 68.5662 206.867C47.5089 206.867 30.4385 209.807 30.4385 213.433C30.4385 217.06 47.5089 220 68.5662 220Z" fill="#D3EBFF"/>
<path d="M179.891 66.086H221.696C221.696 66.086 217.999 59.3584 207.239 60.3377C196.961 61.2729 196.439 57.0281 191.213 56.5055C185.988 55.983 181.633 59.9893 179.891 66.086Z" fill="#F5F5F5"/>
<path d="M0.303711 43.3219H42.1086C42.1086 43.3219 38.4117 36.5943 27.6509 37.5736C17.3737 38.5088 16.8512 34.264 11.6255 33.7415C6.40034 33.2189 2.0456 37.2253 0.303711 43.3219Z" fill="#F5F5F5"/>
<path d="M75.7487 12.1483H128.508C128.508 12.1483 123.842 3.65828 110.262 4.89392C97.2919 6.0743 96.6325 0.717053 90.0375 0.0576591C83.4426 -0.601735 77.9469 4.45449 75.7487 12.1483Z" fill="#E0E0E0"/>
<path d="M20.2607 103.133L163.322 29.4099L154.141 16.4536L200.873 12.2514L179.798 50.0858L169.999 37.8257L25.0386 117.445L20.2607 103.133Z" fill="#A0D2F4"/>
<path d="M45.0741 155.523H12.1218V219H45.0741V155.523Z" fill="#A0D2F4"/>
<path d="M36.0925 155.523H3.14023V219H36.0925V155.523Z" fill="#39A7EA"/>
<path d="M96.4957 134.35H63.5434V219H96.4957V134.35Z" fill="#A0D2F4"/>
<path d="M86.5406 134.35H53.5883V219H86.5406V134.35Z" fill="#39A7EA"/>
<path d="M149.387 107.533H116.435V219H149.387V107.533Z" fill="#A0D2F4"/>
<path d="M139.488 107.533H106.536V219H139.488V107.533Z" fill="#39A7EA"/>
<path d="M202.503 84.0464H169.551V219H202.503V84.0464Z" fill="#A0D2F4"/>
<path d="M189.378 84.0464H156.425V219H189.378V84.0464Z" fill="#39A7EA"/>
<path d="M21.1359 145.465L24.2071 142.94L19.514 137.157L14.9819 140.803L15.2498 141.181C16.4559 142.848 21.5011 149.575 22.6899 150.379C24.0166 151.276 21.1359 145.465 21.1359 145.465Z" fill="#213765"/>
<g opacity="0.5">
<path d="M16.7291 142.863C17.1453 142.389 17.3764 141.756 17.3632 141.125C17.3501 140.494 17.1222 139.889 16.6864 139.432L15.0693 140.742L16.7291 142.863Z" fill="white"/>
</g>
<g opacity="0.4">
<path d="M22.4578 148.373C22.4578 148.373 23.3588 150.498 22.9004 150.514C22.4426 150.529 17.0885 143.924 14.9819 140.803L15.1187 140.707L21.298 148.466C21.298 148.466 22.1705 148.048 22.4578 148.373Z" fill="white"/>
</g>
<path d="M15.0487 140.614C15.0461 140.616 15.0703 140.653 15.1187 140.722C15.1829 140.812 15.2535 140.911 15.3329 141.022C15.5524 141.317 15.8218 141.681 16.1402 142.11C16.828 143.024 17.7953 144.274 18.893 145.631C19.9918 146.988 21.0128 148.195 21.7632 149.058C22.1163 149.459 22.4157 149.798 22.6594 150.075C22.7515 150.176 22.8331 150.265 22.9078 150.347C22.9652 150.408 22.9967 150.439 22.9988 150.438C23.0009 150.436 22.9746 150.4 22.9215 150.335C22.851 150.25 22.7731 150.157 22.6857 150.052C22.4484 149.771 22.1563 149.425 21.8116 149.017C21.0738 148.144 20.0608 146.931 18.963 145.575C17.8658 144.219 16.8912 142.975 16.1907 142.071C15.8639 141.649 15.5866 141.292 15.3613 141.001C15.2766 140.894 15.2019 140.798 15.1335 140.712C15.0803 140.646 15.0514 140.612 15.0487 140.614Z" fill="#263238"/>
<path d="M21.2069 148.538C21.2217 148.561 21.4858 148.374 21.8679 148.327C22.2494 148.273 22.5531 148.386 22.561 148.359C22.5752 148.341 22.2652 148.181 21.8563 148.238C21.4469 148.289 21.189 148.523 21.2069 148.538Z" fill="#263238"/>
<path d="M20.6896 146.128C20.6923 146.153 20.858 146.154 21.0596 146.131C21.2611 146.108 21.4217 146.069 21.419 146.044C21.4164 146.019 21.2506 146.018 21.0491 146.041C20.8475 146.065 20.687 146.104 20.6896 146.128Z" fill="#263238"/>
<path d="M20.5575 145.459C20.5539 145.484 20.6886 145.525 20.8591 145.553C21.0296 145.579 21.1706 145.582 21.1748 145.557C21.1785 145.532 21.0438 145.491 20.8733 145.463C20.7028 145.436 20.5617 145.434 20.5575 145.459Z" fill="#263238"/>
<path d="M20.8638 144.72C20.8444 144.735 20.9365 144.885 21.0701 145.053C21.2038 145.222 21.3275 145.346 21.3469 145.33C21.3664 145.315 21.2743 145.165 21.1406 144.997C21.007 144.829 20.8833 144.705 20.8638 144.72Z" fill="#263238"/>
<path d="M21.1664 144.306C21.1438 144.314 21.1969 144.515 21.3417 144.723C21.4853 144.931 21.6553 145.052 21.67 145.033C21.6874 145.014 21.5522 144.87 21.4159 144.672C21.278 144.474 21.1906 144.297 21.1664 144.306Z" fill="#263238"/>
<path d="M21.3533 145.916C21.3448 145.922 21.4432 146.078 21.6569 146.286C21.7632 146.389 21.9006 146.502 22.0648 146.611C22.1495 146.662 22.23 146.722 22.3416 146.762C22.3958 146.779 22.4637 146.792 22.5315 146.76C22.6 146.73 22.6378 146.65 22.6347 146.584C22.5305 146.079 22.0426 145.885 21.7516 145.902C21.599 145.905 21.4806 145.946 21.4054 145.982C21.3296 146.019 21.2943 146.049 21.297 146.054C21.3027 146.071 21.4638 145.96 21.7516 145.966C21.8932 145.969 22.0616 146.011 22.2153 146.117C22.3605 146.216 22.5226 146.395 22.5442 146.584C22.5484 146.679 22.46 146.712 22.3679 146.678C22.2789 146.648 22.1905 146.589 22.109 146.541C21.9463 146.439 21.809 146.334 21.699 146.239C21.4801 146.048 21.3648 145.906 21.3533 145.916Z" fill="#263238"/>
<path d="M21.4132 146.027C21.4132 146.035 21.5527 146.013 21.7064 145.86C21.7811 145.785 21.8542 145.676 21.8958 145.539C21.9253 145.406 21.9705 145.23 21.8342 145.076C21.7532 144.998 21.6211 145.036 21.5695 145.101C21.5101 145.16 21.4774 145.235 21.4548 145.298C21.4069 145.429 21.3822 145.553 21.3722 145.656C21.3527 145.865 21.3838 145.993 21.3943 145.991C21.4085 145.99 21.4011 145.863 21.4353 145.665C21.4527 145.566 21.4827 145.45 21.5322 145.328C21.5695 145.214 21.6821 145.064 21.7748 145.144C21.859 145.229 21.8437 145.399 21.8153 145.516C21.7821 145.64 21.7221 145.743 21.659 145.817C21.5306 145.968 21.4059 146.012 21.4132 146.027Z" fill="#263238"/>
<path d="M16.7275 139.449C16.7154 139.461 16.8775 139.602 17.0585 139.889C17.2395 140.171 17.4253 140.617 17.4301 141.133C17.4337 141.648 17.2553 142.098 17.079 142.383C16.9027 142.672 16.7428 142.816 16.7549 142.828C16.7586 142.832 16.8017 142.8 16.8717 142.733C16.9417 142.667 17.0354 142.561 17.1327 142.418C17.328 142.134 17.5242 141.67 17.5206 141.132C17.5158 140.595 17.3116 140.134 17.1122 139.853C17.0127 139.711 16.9175 139.607 16.8459 139.542C16.7749 139.476 16.7312 139.445 16.7275 139.449Z" fill="#263238"/>
<path d="M79.6462 132.303L79.7741 128.329L72.3324 128.042L72.0834 133.853L72.5439 133.9C74.5931 134.093 82.9763 134.739 84.3651 134.376C85.9139 133.971 79.6462 132.303 79.6462 132.303Z" fill="#213765"/>
<g opacity="0.5">
<path d="M74.7836 133.899C74.7015 133.274 74.3784 132.682 73.8953 132.276C73.4122 131.87 72.8075 131.642 72.1766 131.667L72.095 133.747L74.7836 133.899Z" fill="white"/>
</g>
<g opacity="0.4">
<path d="M82.7042 133.228C82.7042 133.228 84.8955 133.954 84.605 134.308C84.3146 134.662 75.8182 134.328 72.0829 133.853L72.1013 133.687L82.0085 134.161C82.0085 134.161 82.2701 133.23 82.7042 133.228Z" fill="white"/>
</g>
<path d="M71.985 133.678C71.985 133.681 72.0287 133.688 72.1124 133.697C72.2224 133.708 72.3429 133.72 72.4792 133.734C72.846 133.765 73.297 133.801 73.8295 133.846C74.9704 133.931 76.5481 134.029 78.2921 134.099C80.0367 134.169 81.6175 134.198 82.7616 134.203C83.2957 134.202 83.7483 134.201 84.1162 134.2C84.253 134.197 84.374 134.195 84.4846 134.192C84.5688 134.19 84.613 134.187 84.613 134.184C84.613 134.181 84.5688 134.178 84.4846 134.175C84.374 134.171 84.253 134.168 84.1162 134.165C83.7483 134.158 83.2958 134.15 82.7621 134.139C81.6186 134.118 80.0393 134.079 78.2958 134.009C76.5524 133.939 74.9752 133.851 73.8337 133.782C73.3006 133.749 72.8491 133.721 72.4818 133.699C72.3455 133.692 72.2245 133.686 72.1139 133.68C72.0297 133.676 71.985 133.675 71.985 133.678Z" fill="#263238"/>
<path d="M82.0022 134.277C82.0296 134.281 82.0633 133.959 82.2801 133.641C82.4911 133.319 82.7763 133.165 82.7616 133.141C82.7574 133.118 82.4327 133.246 82.2054 133.59C81.9738 133.932 81.9796 134.281 82.0022 134.277Z" fill="#263238"/>
<path d="M79.8504 133.076C79.8709 133.09 79.9809 132.967 80.0961 132.8C80.2114 132.633 80.2882 132.486 80.2677 132.472C80.2472 132.458 80.1372 132.582 80.0219 132.748C79.9067 132.915 79.8298 133.062 79.8504 133.076Z" fill="#263238"/>
<path d="M79.2604 132.734C79.2762 132.753 79.3967 132.679 79.5293 132.569C79.662 132.459 79.7567 132.354 79.7409 132.335C79.7251 132.316 79.6046 132.39 79.4715 132.5C79.3388 132.61 79.2441 132.715 79.2604 132.734Z" fill="#263238"/>
<path d="M78.9068 132.017C78.9052 132.042 79.0784 132.071 79.2931 132.082C79.5078 132.093 79.6825 132.081 79.6841 132.056C79.6851 132.032 79.5125 132.003 79.2978 131.992C79.0831 131.981 78.9084 131.992 78.9068 132.017Z" fill="#263238"/>
<path d="M78.7958 131.516C78.7863 131.539 78.9726 131.631 79.2241 131.66C79.4757 131.689 79.6777 131.641 79.6741 131.617C79.6709 131.592 79.4736 131.599 79.2346 131.57C78.9952 131.543 78.8047 131.492 78.7958 131.516Z" fill="#263238"/>
<path d="M80.1282 132.437C80.1272 132.447 80.3098 132.477 80.6066 132.453C80.7545 132.441 80.9302 132.413 81.1202 132.361C81.2149 132.331 81.3134 132.31 81.4165 132.252C81.4649 132.222 81.5191 132.18 81.5407 132.108C81.5633 132.037 81.5281 131.956 81.476 131.914C81.0281 131.66 80.5603 131.898 80.3814 132.128C80.283 132.245 80.2361 132.361 80.213 132.441C80.1909 132.522 80.1903 132.569 80.1956 132.57C80.2124 132.577 80.2356 132.383 80.4293 132.171C80.525 132.066 80.6676 131.967 80.8482 131.921C81.0192 131.878 81.2597 131.874 81.4165 131.982C81.4902 132.042 81.457 132.129 81.3707 132.176C81.2902 132.224 81.1871 132.251 81.0976 132.281C80.9139 132.336 80.744 132.369 80.6003 132.389C80.3109 132.429 80.1288 132.422 80.1282 132.437Z" fill="#263238"/>
<path d="M80.2514 132.466C80.2582 132.471 80.3335 132.352 80.3198 132.136C80.3124 132.03 80.2787 131.903 80.203 131.781C80.123 131.672 80.0198 131.521 79.8146 131.522C79.703 131.532 79.6441 131.655 79.6583 131.737C79.6635 131.821 79.6988 131.894 79.7314 131.954C79.7977 132.076 79.8746 132.176 79.9461 132.252C80.0903 132.404 80.2066 132.465 80.2124 132.456C80.2214 132.445 80.1203 132.367 79.9946 132.21C79.9319 132.132 79.8646 132.033 79.8056 131.915C79.7441 131.812 79.7062 131.629 79.8267 131.611C79.9467 131.604 80.0645 131.728 80.1335 131.826C80.2045 131.933 80.2419 132.046 80.2566 132.143C80.285 132.339 80.2356 132.462 80.2514 132.466Z" fill="#263238"/>
<path d="M83.0437 32.5595C82.3779 32.3695 81.2539 35.9565 81.0481 35.0455C80.8429 34.1346 82.9331 30.8187 82.2295 30.6487C81.3123 30.4271 80.204 34.2035 80.0867 34.5161C79.9725 34.8197 79.5136 34.6698 79.6346 34.3935C79.8088 33.9956 81.5344 29.774 80.6355 29.5478C80.1372 29.4225 79.9951 30.3377 79.9951 30.3377C79.9951 30.3377 78.6716 34.4066 78.2511 34.2856C77.8238 34.163 78.5205 31.7475 78.8131 30.9497C79.102 30.1614 78.8447 29.7035 78.389 29.8656C78.0785 29.9761 77.1249 32.3985 76.8544 33.1942C76.5834 33.9898 75.8798 36.1854 75.3462 34.8208C74.8125 33.4562 73.8885 32.6084 73.4785 32.5527C73.0691 32.4974 72.8423 33.0473 73.1701 33.3631C73.4348 33.6178 73.7443 34.1798 73.9595 34.6119C74.1368 34.9682 74.2558 35.3507 74.3037 35.746C74.4889 37.2679 74.4037 38.1346 74.4037 38.1346L67.2151 53.087L54.0198 48.9849L52.6879 56.4624C52.6879 56.4624 70.0815 62.9163 71.1072 62.2759C73.4217 60.8319 79.682 39.3292 79.682 39.3292H79.6814C80.7339 37.7473 81.9996 35.7754 82.5227 34.6845C83.4662 32.7168 83.2915 32.63 83.0437 32.5595Z" fill="#B78876"/>
<path d="M15.4692 83.086C15.1719 82.8697 14.7883 82.3555 14.5157 81.9577C14.291 81.6293 14.1204 81.2667 14.0189 80.882C13.821 80.1342 13.7142 79.5438 13.6568 79.1407C13.6573 79.1386 18.1957 65.5918 19.3993 63.4952C20.6023 61.3986 37.155 55.4383 37.155 55.4383L35.0779 47.184C35.0779 47.184 19.9255 53.2722 14.1557 57.838C10.4856 60.7424 7.86437 78.7607 7.86226 78.7765C7.12288 80.3342 6.34245 82.0661 6.02354 83.0639C5.35993 85.1415 5.54517 85.2036 5.80041 85.2399C6.48559 85.3368 7.10656 81.6293 7.43494 82.5034C7.76385 83.3775 6.14878 86.9497 6.86922 87.0213C7.80806 87.1144 8.38641 83.2218 8.46008 82.8955C8.53113 82.5792 9.00686 82.6645 8.92476 82.9549C8.80688 83.3728 7.6786 87.7917 8.59954 87.8922C9.11053 87.948 9.12526 87.0218 9.12526 87.0218C9.12526 87.0218 9.87675 82.8097 10.3099 82.8718C10.7498 82.9344 10.392 85.4225 10.212 86.253C10.0341 87.0734 10.352 87.4918 10.7809 87.2686C11.0734 87.1165 11.6844 84.5863 11.8434 83.7612C12.0023 82.936 12.3975 80.6642 13.1137 81.9424C13.83 83.2207 14.8619 83.9332 15.2756 83.9322C15.6887 83.9296 15.8371 83.3533 15.4692 83.086Z" fill="#B78876"/>
<path d="M16.2012 138.012L23.6766 146.377L47.2769 122.56C50.1729 119.638 51.8953 115.754 52.1174 111.646L53.1257 93.0164L37.7986 83.658L39.0269 109.751C39.1606 112.588 38.117 115.353 36.1425 117.394L16.2012 138.012Z" fill="#39A7EA"/>
<path d="M34.7185 84.3769C34.5764 84.5674 34.0522 96.427 43.5416 97.9126C44.1094 98.0015 47.538 98.3473 47.538 98.3473C58.3061 98.2641 72.8349 97.8516 72.8349 97.8516L70.4226 130.959L81.8554 131.001L85.3355 95.6518C86.1007 85.8609 77.8348 84.1732 73.2859 84.0843L51.3875 83.8627L34.7185 84.3769Z" fill="#39A7EA"/>
<path d="M45.8687 84.3795C45.8971 84.3821 45.8745 84.8179 45.5824 85.4467C45.2988 86.0688 44.6904 86.8734 43.7421 87.3744C42.7922 87.8738 41.7845 87.9201 41.1114 87.8023C40.4278 87.6875 40.0557 87.4597 40.0694 87.4349C40.0857 87.3907 40.4767 87.5496 41.1356 87.6102C41.7866 87.6744 42.728 87.5981 43.6148 87.1318C44.4999 86.664 45.0956 85.9314 45.4109 85.3578C45.7329 84.78 45.8234 84.3679 45.8687 84.3795Z" fill="#1776A5"/>
<path d="M75.8414 95.6518C75.8856 95.7129 75.2746 96.2318 74.4768 96.8106C73.6785 97.3895 72.9959 97.8089 72.9512 97.7479C72.907 97.6869 73.5174 97.168 74.3158 96.5891C75.1141 96.0102 75.7972 95.5903 75.8414 95.6518Z" fill="#1776A5"/>
<path d="M76.3155 97.6058C76.3239 97.6811 75.5524 97.8274 74.5931 97.9321C73.6332 98.0373 72.8491 98.0615 72.8407 97.9863C72.8323 97.911 73.6037 97.7647 74.5631 97.66C75.523 97.5553 76.3076 97.5306 76.3155 97.6058Z" fill="#1776A5"/>
<path d="M40.0773 49.9774C42.3444 49.9895 44.1668 48.115 44.0926 45.8489C44.021 43.6729 43.9374 41.4742 43.9374 41.4742C43.9374 41.4742 47.2033 40.9316 47.2096 37.6605C47.2159 34.3893 46.5707 26.8844 46.5707 26.8844C42.7675 25.2967 38.4028 25.8914 35.1632 28.4389L34.6822 28.8173L36.1157 46.3078C36.2856 48.3734 38.0054 49.9663 40.0773 49.9774Z" fill="#B78876"/>
<path d="M45.4314 32.7215C45.2351 32.5474 45.2172 32.2474 45.3914 32.0511C45.5656 31.8548 45.8661 31.8369 46.0618 32.0111C46.2581 32.1853 46.276 32.4853 46.1018 32.6816C45.9282 32.8778 45.6277 32.8957 45.4314 32.7215Z" fill="black"/>
<path d="M46.6612 32.0817C46.6107 32.139 46.2865 31.8948 45.8366 31.8975C45.3861 31.8933 45.0614 32.1359 45.0109 32.0785C44.9862 32.0532 45.0361 31.9506 45.1777 31.8406C45.3166 31.7312 45.5561 31.6249 45.8366 31.6254C46.1176 31.6259 46.3565 31.7333 46.4949 31.8427C46.636 31.9533 46.6859 32.0559 46.6612 32.0817Z" fill="black"/>
<path d="M41.1356 32.4121C41.3603 32.5474 41.4334 32.8389 41.2982 33.0636C41.163 33.2883 40.8714 33.3615 40.6462 33.2262C40.4215 33.091 40.3483 32.7994 40.4836 32.5747C40.6188 32.3495 40.9109 32.2769 41.1356 32.4121Z" fill="black"/>
<path d="M41.7755 32.5348C41.725 32.5921 41.4008 32.3479 40.9509 32.3506C40.5004 32.3464 40.1757 32.5895 40.1252 32.5316C40.1004 32.5063 40.1504 32.4037 40.292 32.2937C40.4309 32.1843 40.6704 32.078 40.9509 32.0785C41.2319 32.079 41.4703 32.1864 41.6092 32.2958C41.7502 32.4063 41.8002 32.5095 41.7755 32.5348Z" fill="black"/>
<path d="M43.6179 35.9043C43.6142 35.8691 43.8926 35.8096 44.3447 35.7423C44.4626 35.7281 44.5546 35.7007 44.5625 35.637C44.5831 35.5654 44.5362 35.4402 44.4747 35.3002C44.3557 35.0034 44.2352 34.7034 44.1089 34.3887C43.6032 33.09 43.2469 32.0164 43.3127 31.9906C43.3785 31.9648 43.8421 32.9968 44.3478 34.2961C44.4678 34.6135 44.582 34.916 44.6946 35.215C44.7394 35.3507 44.823 35.5091 44.7641 35.7038C44.7325 35.8017 44.6404 35.8728 44.5631 35.8944C44.4852 35.9186 44.4189 35.9196 44.3626 35.9228C43.9058 35.9438 43.6216 35.9391 43.6179 35.9043Z" fill="black"/>
<path d="M42.1597 36.4169C42.437 36.5174 43.459 37.09 44.3757 37.0358C44.3757 37.0358 43.8584 37.882 42.9117 37.5468C41.9292 37.1984 42.1597 36.4169 42.1597 36.4169Z" fill="white"/>
<path d="M43.9421 41.4274C43.9421 41.4274 41.8765 41.6173 39.6652 40.2601C39.6652 40.2601 40.6977 42.6035 43.9584 42.2751L43.9421 41.4274Z" fill="#A36957"/>
<path d="M34.3096 31.7696C34.508 31.147 34.3811 30.4708 34.2133 29.8393C34.0449 29.2078 33.8344 28.5715 33.8686 27.919C33.9028 27.2664 34.2506 26.5781 34.8695 26.3692C35.3115 26.2202 35.8057 26.3371 36.2541 26.2087C36.7124 26.0771 37.0576 25.7119 37.4066 25.3867C38.7059 24.1742 40.3604 23.3469 42.1102 23.0348C42.6207 22.9438 43.168 22.8996 43.6395 23.1159C44.111 23.3322 44.462 23.8868 44.2873 24.3752C44.9435 24.0005 45.6198 23.619 46.3681 23.5137C47.1164 23.4085 47.9632 23.6432 48.3731 24.2778C48.7831 24.9125 48.5189 25.9424 47.7869 26.1287C48.6452 26.2418 49.1978 27.2485 48.992 28.0895C48.7857 28.9304 47.99 29.5372 47.1427 29.7146C46.2955 29.8919 45.4103 29.7035 44.6009 29.3972C43.791 29.0909 43.0296 28.6694 42.2233 28.3537C41.7276 29.1078 40.7509 29.4293 39.8494 29.3799C38.9479 29.3304 38.0965 28.9715 37.2655 28.6173C37.3434 29.5556 37.4139 30.5397 37.0334 31.4012C36.8771 31.7548 36.6482 32.0774 36.544 32.45C36.404 32.951 36.5056 33.4857 36.4593 34.0046C36.4135 34.5229 36.1304 35.0997 35.6162 35.1807C35.1516 35.2539 34.7169 34.8655 34.5601 34.4219C34.4027 33.9782 34.4495 33.4925 34.4743 33.0226C34.4985 32.5521 34.0785 32.189 34.3096 31.7696Z" fill="black"/>
<path d="M35.1537 32.8284C35.1332 32.5658 34.9116 32.3579 34.6485 32.3695C34.0396 32.3963 33.0634 32.7095 33.0908 34.3929C33.1302 36.7979 35.391 36.0343 35.3942 35.9649C35.3963 35.9107 35.2268 33.7588 35.1537 32.8284Z" fill="#B78876"/>
<path d="M34.7985 35.0613C34.7879 35.0539 34.7569 35.0913 34.6869 35.125C34.6185 35.1576 34.5001 35.1813 34.3738 35.1365C34.118 35.0476 33.8975 34.6476 33.8791 34.214C33.8691 33.9951 33.9117 33.7862 33.9865 33.612C34.057 33.4346 34.1685 33.3099 34.2964 33.2852C34.4232 33.2536 34.5148 33.3289 34.5453 33.3962C34.5785 33.463 34.5643 33.5109 34.5769 33.5151C34.5837 33.5209 34.628 33.4741 34.6069 33.3752C34.5959 33.3278 34.5669 33.2715 34.5095 33.2262C34.4511 33.1805 34.3659 33.1578 34.2769 33.1689C34.0917 33.1847 33.9275 33.3583 33.8454 33.5488C33.7533 33.7409 33.7002 33.9761 33.7112 34.2214C33.7344 34.7055 33.9901 35.155 34.3396 35.2502C34.5095 35.2912 34.6495 35.2381 34.7216 35.1802C34.7948 35.1197 34.8069 35.0655 34.7985 35.0613Z" fill="#A36957"/>
<path d="M41.685 30.7965C41.6724 30.8755 41.1624 30.8402 40.5662 30.9855C39.9678 31.1218 39.5274 31.3812 39.4805 31.316C39.4326 31.2628 39.8421 30.8718 40.503 30.7187C41.163 30.5608 41.7045 30.7276 41.685 30.7965Z" fill="black"/>
<path d="M43.0096 39.9802C42.9338 39.9781 42.8827 39.6465 42.8948 39.2403C42.9075 38.834 42.9785 38.5067 43.0543 38.5088C43.1301 38.5109 43.1811 38.8424 43.169 39.2487C43.1564 39.6549 43.0848 39.9823 43.0096 39.9802Z" fill="black"/>
<path d="M43.6621 39.7497C43.5863 39.7497 43.5253 39.4718 43.5253 39.1287C43.5253 38.7861 43.5874 38.5082 43.6627 38.5082C43.7384 38.5082 43.7995 38.7861 43.799 39.1292C43.799 39.4718 43.7374 39.7497 43.6621 39.7497Z" fill="black"/>
<path d="M44.3799 39.566C44.3047 39.5723 44.2226 39.3302 44.1973 39.0255C44.1721 38.7208 44.2126 38.4687 44.2878 38.4624C44.3631 38.4561 44.4452 38.6982 44.4705 39.0029C44.4957 39.3076 44.4552 39.5597 44.3799 39.566Z" fill="black"/>
<path d="M62.0057 51.0572C58.3135 49.4832 55.7133 48.5765 53.6793 47.4692C47.3548 44.0255 45.824 44.9996 44.3889 44.9243C41.6734 45.9794 38.8959 46.1784 36.0573 45.5205C32.3893 45.9421 30.248 47.6682 26.1522 49.3117L17.9621 53.7069L23.8709 61.9338L31.451 59.4031C32.0793 62.5622 32.2298 65.0808 32.6519 68.9166L33.455 84.3963L56.4195 84.0438L54.0909 69.3308L52.6968 57.7248L59.4513 60.5098L62.0057 51.0572Z" fill="#A0D2F4"/>
<path d="M77.3122 95.0377C77.3128 95.0472 77.1733 95.0651 76.906 95.0898C76.6386 95.1166 76.244 95.1456 75.7356 95.1745C74.7184 95.2366 73.2459 95.2992 71.4261 95.3619C67.786 95.4829 62.7567 95.6045 57.1994 95.6339C54.4192 95.6418 51.7722 95.6445 49.3599 95.5287C46.928 95.4024 44.8067 94.5867 43.3038 93.5347C41.7881 92.4764 40.9093 91.2192 40.4394 90.3183C39.9815 89.4 39.8642 88.8416 39.8642 88.8416C39.8989 88.8284 40.0526 89.3763 40.5336 90.2677C41.0267 91.1429 41.9139 92.358 43.4137 93.3753C44.902 94.3867 46.9865 95.1666 49.3746 95.2771C51.7727 95.3787 54.4219 95.3682 57.1989 95.3608C62.753 95.3313 67.7818 95.2408 71.4219 95.1693C73.2201 95.1272 74.6852 95.093 75.7319 95.0687C76.2197 95.0551 76.6097 95.044 76.9033 95.0356C77.1702 95.0277 77.3117 95.0282 77.3122 95.0377Z" fill="#1776A5"/>
</svg>
