<svg width="296" height="220" viewBox="0 0 296 220" fill="none" xmlns="http://www.w3.org/2000/svg">
<path d="M105.262 220C126.32 220 143.39 217.06 143.39 213.433C143.39 209.807 126.32 206.867 105.262 206.867C84.2051 206.867 67.1348 209.807 67.1348 213.433C67.1348 217.06 84.2051 220 105.262 220Z" fill="#D3EBFF"/>
<path d="M160.759 111.553C160.759 111.553 154.593 115.604 154.844 119.896C155.096 124.188 162.052 127.448 164.519 125.828C166.985 124.208 166.155 110.397 166.155 110.397L160.759 111.553Z" fill="#E28686"/>
<path d="M169.213 67.9111C169.213 67.9111 161.825 62.2518 161.069 58.0507C160.313 53.8496 161.904 51.028 165.388 50.8648C168.872 50.7015 171.725 51.9644 171.725 51.9644L169.213 67.9111Z" fill="#FFB8B8"/>
<path d="M167.923 50.9782C167.99 51.1632 168.037 51.3545 168.059 51.5525C168.347 54.1891 168.616 61.847 163.863 62.8817C166.232 65.6255 169.213 67.9107 169.213 67.9107L171.725 51.9635C171.725 51.9635 170.154 51.2709 167.923 50.9782Z" fill="#FFA1A1"/>
<path d="M169.073 76.3213C169.073 76.3213 164.716 75.2452 163.672 75.8066C162.627 76.3676 156.983 83.5927 156.593 87.6848C156.203 91.7769 159.952 92.2992 163.553 92.6426C167.154 92.986 168.768 88.1848 168.768 88.1848L169.073 76.3213Z" fill="#FFB8B8"/>
<path d="M169.072 76.3214C169.072 76.3214 167.424 75.9153 165.912 75.7324C166.136 76.6283 166.129 77.6879 165.968 78.97C165.538 82.381 165.212 90.1956 161.524 90.4714C159.915 90.5919 158.192 90.2432 156.753 89.5248C157.522 91.9492 160.584 92.3593 163.552 92.6422C167.153 92.9856 168.767 88.1845 168.767 88.1845L169.072 76.3214Z" fill="#FFA1A1"/>
<path d="M166.733 93.9364C166.733 93.9364 164.551 92.572 162.103 93.9906C159.656 95.4088 156.725 98.4328 156.28 101.363C155.836 104.294 153.782 110.505 154.907 112.299C155.799 113.719 162.351 115.651 164.705 111.746C167.059 107.841 166.733 93.9364 166.733 93.9364Z" fill="#FFB8B8"/>
<path d="M248.028 93.592C248.028 93.592 241.716 80.1075 245.957 70.2711C250.197 60.4352 257.298 62.719 257.298 62.719C257.298 62.719 259.987 68.6354 259.737 78.1911C259.737 78.1911 264.163 87.2018 264.366 88.5421C264.568 89.8829 266.438 104.926 269.072 108.48C271.706 112.035 273.951 116.213 274.402 121.871C274.854 127.53 273.496 152.176 274.898 158.256C276.301 164.335 292.745 183.236 292.745 183.236L252.368 210.944C252.368 210.944 248.846 206.314 244.777 203.944C240.708 201.574 222.097 188.899 213.695 176.536L240.732 100.824L249.289 111.55L248.028 93.592Z" fill="#FFB8B8"/>
<path d="M280.499 167.276C269.057 176.816 255.919 184.508 243.663 192.845C241.13 194.569 238.589 196.282 236.047 197.993C240.05 200.957 243.332 203.102 244.776 203.944C248.845 206.313 252.368 210.944 252.368 210.944L292.745 183.236C292.745 183.236 292.683 184.306 280.499 167.276Z" fill="#FFA1A1"/>
<path d="M244.6 161.02C243.561 159.708 242.758 158.277 242.333 156.804C237.497 140.044 245.642 119.613 248.415 113.419L248.631 110.725L240.732 100.825L213.695 176.537C216.206 180.233 219.631 183.951 223.304 187.417L235.17 188.368C237.091 188.522 238.957 187.919 240.424 186.669C241.891 185.42 242.784 183.674 242.938 181.753L244.6 161.02Z" fill="#FFA1A1"/>
<path d="M239.083 212.759L291.828 171.451L295.699 175.674V219.689H245.592L239.083 212.759Z" fill="#39A7EA"/>
<path d="M238.545 177.642C238.274 181.023 235.313 183.544 231.933 183.273L166.592 178.036C163.211 177.766 160.691 174.806 160.961 171.425L172.931 22.0742C173.202 18.6934 176.162 16.1725 179.542 16.4434L244.883 21.6796C248.264 21.9505 250.784 24.911 250.514 28.2913L238.545 177.642Z" fill="#F8F8F8" stroke="#E6E6E6" stroke-width="4.8316" stroke-miterlimit="10"/>
<path d="M226.437 20.5599L226.437 20.5599L197.931 18.2752C197.931 18.2752 197.931 18.2752 197.931 18.2752C196.428 18.1549 195.111 19.2762 194.99 20.7802L226.437 20.5599ZM226.437 20.5599C227.941 20.6803 229.062 21.997 228.942 23.5007C228.821 25.0048 227.504 26.1261 226.001 26.0058M226.437 20.5599L226.001 26.0058M226.001 26.0058C226.001 26.0058 226 26.0058 226 26.0058M226.001 26.0058L226 26.0058M226 26.0058L197.495 23.7215C195.991 23.6008 194.87 22.284 194.99 20.7804L226 26.0058Z" fill="#EBEBEB" stroke="white"/>
<path d="M194.939 169.424C194.709 172.29 196.847 174.8 199.713 175.03C202.58 175.259 205.089 173.122 205.319 170.256C205.548 167.389 203.411 164.879 200.545 164.65C197.679 164.42 195.169 166.557 194.939 169.424Z" stroke="#FDEDEE" stroke-width="0.6331" stroke-miterlimit="10"/>
<path d="M176.532 24.4388L165.916 156.883L235.974 162.499L246.59 30.0543L176.532 24.4388Z" fill="white"/>
<path d="M266.302 169.143L253.884 111.224C254.083 110.422 254.421 110.422 255.177 112.287C260.094 111.749 264.862 110.61 269.531 109.113C269.379 108.9 269.226 108.689 269.072 108.48C266.437 104.926 264.568 89.8829 264.365 88.5421C264.163 87.2014 257.298 62.7186 257.298 62.7186C257.298 62.7186 250.198 60.4343 245.957 70.2707C241.716 80.1066 246.844 92.1573 246.844 92.1573L249.29 111.55C246.353 118.176 239.781 128.409 238.982 138.2C237.772 153.053 240.286 167.441 259.299 173.72C261.614 172.168 263.96 170.659 266.302 169.143Z" fill="#FFB8B8"/>
<g opacity="0.4">
<path d="M208.531 32.8897L205.851 66.9153L223.365 76.8326L225.561 48.9561L215.361 48.1527L216.514 33.5183L208.531 32.8897Z" fill="#E5F5FF"/>
<path d="M183.821 108.586L183.018 118.786L193.217 119.589L194.021 109.389L183.821 108.586Z" fill="#E5F5FF"/>
<path d="M176.427 66.5054L174.296 93.5575L188.931 94.7099L191.061 67.6577L176.427 66.5054Z" fill="#E5F5FF"/>
<path d="M218.281 33.6602L217.268 46.5206L233.676 47.8127L234.689 34.9522L218.281 33.6602Z" fill="#E5F5FF"/>
<path d="M215.397 98.5795L214.105 114.988L220.313 115.476L221.605 99.0684L215.397 98.5795Z" fill="#E5F5FF"/>
<path d="M223.211 78.7898L217.231 75.4037L215.545 96.8051L221.754 97.2944L223.211 78.7898Z" fill="#E5F5FF"/>
<path d="M194.957 120.249L204.762 131.73L205.99 116.132L195.347 115.294L194.957 120.249Z" fill="#E5F5FF"/>
<path d="M215.522 74.4361L204.842 68.3889L204.815 68.7399L192.841 67.7968L191.688 82.4321L214.749 84.2484L215.522 74.4361Z" fill="#E5F5FF"/>
<path d="M213.631 98.4393L190.571 96.623L189.732 107.266L195.941 107.755L195.487 113.52L212.339 114.848L213.631 98.4393Z" fill="#E5F5FF"/>
<path d="M235.317 49.7248L227.335 49.0958L225.074 77.8001L238.316 85.2984L242.235 35.5441L236.47 35.0903L235.317 49.7248Z" fill="#E5F5FF"/>
<path d="M214.088 142.651L223.893 154.133L223.969 154.139L224.808 143.496L214.088 142.651Z" fill="#E5F5FF"/>
<path d="M178.034 46.107L177.37 54.5328L192.004 55.6852L192.668 47.2594L178.034 46.107Z" fill="#E5F5FF"/>
<path d="M182.194 106.673L187.958 107.127L188.797 96.4836L174.162 95.3305L171.333 131.252L185.968 132.404L186.875 120.874L181.11 120.42L182.194 106.673Z" fill="#E5F5FF"/>
<path d="M177.23 56.3065L176.567 64.7318L191.201 65.8842L191.865 57.4588L177.23 56.3065Z" fill="#E5F5FF"/>
<path d="M179.257 30.5864L178.174 44.3337L192.809 45.4861L193.891 31.7387L179.257 30.5864Z" fill="#E5F5FF"/>
<path d="M224.156 89.4513L237.903 90.5345L238.161 87.2556L224.919 79.7573L224.156 89.4513Z" fill="#E5F5FF"/>
<path d="M171.187 133.025L169.86 149.877L184.494 151.029L185.821 134.177L171.187 133.025Z" fill="#E5F5FF"/>
<path d="M227.726 129.001L226.713 141.861L233.808 142.42L234.821 129.559L227.726 129.001Z" fill="#E5F5FF"/>
<path d="M226.574 143.635L225.736 154.279L232.831 154.837L233.669 144.194L226.574 143.635Z" fill="#E5F5FF"/>
<path d="M193.604 121.404L188.65 121.014L186.274 151.17L203.126 152.497L204.564 134.238L193.604 121.404Z" fill="#E5F5FF"/>
<path d="M206.199 136.152L204.9 152.637L221.385 153.935L206.199 136.152Z" fill="#E5F5FF"/>
<path d="M221.956 117.39L207.765 116.272L207.031 125.585L226.1 127.087L227.532 108.905L222.654 108.521L221.956 117.39Z" fill="#E5F5FF"/>
<path d="M195.665 31.8788L194.129 51.3912L205.215 52.2642L206.752 32.7518L195.665 31.8788Z" fill="#E5F5FF"/>
<path d="M224.947 141.722L225.96 128.861L206.891 127.359L206.396 133.644L212.454 140.738L224.947 141.722Z" fill="#E5F5FF"/>
<path d="M229.299 109.046L227.867 127.228L234.963 127.787L236.394 109.605L229.299 109.046Z" fill="#E5F5FF"/>
<path d="M193.988 53.1649L192.975 66.0248L204.062 66.8978L205.075 54.0379L193.988 53.1649Z" fill="#E5F5FF"/>
<path d="M224.01 91.2268L222.788 106.748L236.535 107.831L237.757 92.3094L224.01 91.2268Z" fill="#E5F5FF"/>
<path d="M191.543 84.2071L190.705 94.8502L213.765 96.666L214.603 86.0229L191.543 84.2071Z" fill="#E5F5FF"/>
</g>
<path d="M181.275 100.686C181.275 104.647 188.446 114.274 188.446 114.274C188.446 114.274 195.617 104.647 195.617 100.686C195.617 96.7253 192.406 93.5149 188.446 93.5149C184.486 93.5149 181.275 96.7258 181.275 100.686Z" fill="#B7E3FF"/>
<path d="M189.218 103.991C191.044 103.561 192.176 101.732 191.747 99.9064C191.317 98.0803 189.488 96.9482 187.662 97.3778C185.836 97.8074 184.704 99.636 185.134 101.462C185.563 103.288 187.392 104.42 189.218 103.991Z" fill="white"/>
<path d="M213.6 132.122C213.6 136.083 220.771 145.71 220.771 145.71C220.771 145.71 227.942 136.082 227.942 132.122C227.942 128.161 224.731 124.951 220.771 124.951C216.811 124.951 213.6 128.161 213.6 132.122Z" fill="#B7E3FF"/>
<path d="M220.771 135.519C222.647 135.519 224.168 133.998 224.168 132.122C224.168 130.246 222.647 128.725 220.771 128.725C218.895 128.725 217.374 130.246 217.374 132.122C217.374 133.998 218.895 135.519 220.771 135.519Z" fill="white"/>
<path d="M223.09 49.9741C223.09 53.935 230.261 63.5618 230.261 63.5618C230.261 63.5618 237.432 53.9346 237.432 49.9741C237.432 46.0137 234.221 42.8028 230.261 42.8028C226.3 42.8028 223.09 46.0137 223.09 49.9741Z" fill="#B7E3FF"/>
<path d="M231.032 53.2801C232.858 52.8505 233.99 51.0219 233.56 49.1958C233.131 47.3697 231.302 46.2376 229.476 46.6672C227.65 47.0968 226.518 48.9254 226.947 50.7515C227.377 52.5776 229.206 53.7097 231.032 53.2801Z" fill="white"/>
<path d="M112.218 36.7199C112.218 36.7199 101.156 32.9963 97.1628 40.4797C93.1703 47.963 102.939 57.3248 96.5045 61.5271C90.0701 65.7294 96.8838 78.2998 107.338 72.7353C117.792 67.1708 118.987 60.8085 118.987 60.8085L112.218 36.7199Z" fill="black"/>
<path d="M111.902 37.6693C111.902 37.6693 100.839 33.9457 96.8463 41.4291C92.8538 48.9124 102.622 58.2742 96.1875 62.4765C89.7531 66.6789 96.5668 79.2492 107.021 73.6847C117.475 68.1202 118.67 61.7579 118.67 61.7579L111.902 37.6693Z" stroke="black" stroke-width="1.0014" stroke-miterlimit="10"/>
<path d="M117.732 65.8794C115.248 64.2412 117.442 56.1653 117.442 56.1653L108.261 55.5989C108.261 55.5989 108.712 60.983 108.98 64.0752C109.037 64.7386 107.984 64.7487 106.75 64.6918C106.764 64.8469 106.764 65.0032 106.759 65.1587C106.88 66.5908 106.719 67.9871 106.602 69.391C111.979 72.9666 121.9 76.9064 123.307 72.9818C124.063 70.8745 120.216 67.5172 117.732 65.8794Z" fill="#FF7469"/>
<path d="M120.028 51.2656C120.028 51.2656 122.185 41.9059 111.763 40.3983C98.3182 38.4537 99.4106 55.5564 104.592 59.867C109.773 64.1773 118.653 58.3325 120.028 51.2656Z" fill="#FF938F"/>
<path d="M112.511 59.5922L112.285 52.0224C112.285 52.0224 107.57 50.1963 104.943 50.4087C102.316 50.6211 101.044 52.3819 101.044 52.3819C101.044 52.3819 101.738 59.3338 105.132 60.677C108.526 62.0198 112.511 59.5922 112.511 59.5922Z" fill="white"/>
<path d="M111.404 52.3278L118.356 51.6336L118.256 54.6728L112.141 59.0529" stroke="white" stroke-width="1.0971" stroke-miterlimit="10"/>
<path d="M101.911 48.0371C101.911 48.0371 101.923 48.1235 101.945 48.2752C101.954 48.3507 101.965 48.4425 101.978 48.5475C102.004 48.6474 102.034 48.7574 102.059 48.8754C102.087 48.993 102.156 49.1101 102.199 49.2378C102.229 49.2977 102.273 49.3516 102.31 49.4102C102.345 49.4701 102.384 49.5278 102.438 49.5725C102.527 49.6829 102.652 49.7499 102.771 49.8232L102.972 49.8961L103.187 49.9235C103.332 49.9257 103.48 49.9185 103.622 49.8713C103.695 49.8582 103.762 49.8262 103.829 49.7963C103.896 49.7663 103.967 49.7436 104.024 49.6976C104.085 49.6576 104.144 49.6163 104.205 49.5801C104.258 49.5324 104.31 49.4856 104.361 49.4401C104.471 49.3554 104.536 49.2387 104.622 49.1493C104.698 49.0532 104.746 48.9491 104.805 48.864C104.864 48.7789 104.891 48.6925 104.923 48.625C104.988 48.4864 105.025 48.4071 105.025 48.4071C105.025 48.4071 105.02 48.4931 105.004 48.6478C104.992 48.7241 104.994 48.8231 104.954 48.9243C104.918 49.0267 104.893 49.1523 104.829 49.2728C104.759 49.3887 104.706 49.5362 104.593 49.6513C104.542 49.7128 104.488 49.7765 104.434 49.8409C104.37 49.897 104.3 49.9497 104.231 50.0057C104.164 50.0664 104.08 50.1048 103.999 50.1494C103.918 50.1954 103.835 50.2401 103.74 50.2603C103.559 50.3248 103.36 50.345 103.162 50.3442C103.063 50.3294 102.963 50.3163 102.866 50.2965L102.587 50.1865C102.417 50.0854 102.263 49.9627 102.155 49.8123C102.091 49.7444 102.044 49.6686 102.011 49.5872C101.975 49.5084 101.934 49.4338 101.908 49.3575C101.872 49.2003 101.826 49.0562 101.821 48.9175C101.815 48.7784 101.816 48.6533 101.816 48.5445C101.828 48.4388 101.848 48.3481 101.861 48.2731C101.893 48.1227 101.911 48.0371 101.911 48.0371Z" fill="#0B172D"/>
<path d="M108.769 48.5647C108.769 48.5647 108.782 48.6515 108.804 48.8028C108.813 48.8782 108.824 48.9701 108.836 49.075C108.863 49.1749 108.892 49.2849 108.918 49.4029C108.946 49.5205 109.014 49.6377 109.057 49.7654C109.088 49.8252 109.131 49.8792 109.168 49.9378C109.203 49.9976 109.242 50.0554 109.296 50.1C109.385 50.2104 109.51 50.2775 109.63 50.3508L109.83 50.4237L110.045 50.4511C110.19 50.4532 110.338 50.446 110.48 50.3988C110.553 50.3858 110.62 50.3537 110.687 50.3238C110.754 50.2939 110.826 50.2711 110.883 50.2252C110.943 50.1852 111.002 50.1439 111.063 50.1076C111.116 50.06 111.168 50.0132 111.219 49.9677C111.329 49.883 111.394 49.7662 111.48 49.6769C111.556 49.5808 111.605 49.4767 111.663 49.3916C111.723 49.3064 111.749 49.22 111.782 49.1526C111.846 49.0139 111.883 48.9347 111.883 48.9347C111.883 48.9347 111.878 49.0207 111.862 49.1749C111.85 49.2512 111.852 49.3503 111.812 49.4514C111.776 49.5538 111.752 49.6794 111.687 49.8C111.617 49.9159 111.565 50.0634 111.452 50.1784C111.4 50.24 111.346 50.3036 111.292 50.3681C111.228 50.4241 111.158 50.4768 111.089 50.5329C111.022 50.5936 110.939 50.6319 110.857 50.6766C110.776 50.7225 110.693 50.7672 110.598 50.7874C110.417 50.8519 110.218 50.8721 110.02 50.8713C109.921 50.8565 109.821 50.8435 109.724 50.8237L109.445 50.7137C109.275 50.6125 109.121 50.4899 109.013 50.3394C108.949 50.2716 108.902 50.1957 108.869 50.1144C108.833 50.0355 108.792 49.9609 108.766 49.8847C108.731 49.7275 108.684 49.5833 108.679 49.4447C108.673 49.3056 108.674 49.1804 108.675 49.0717C108.686 48.9659 108.707 48.8753 108.719 48.8003C108.752 48.6502 108.769 48.5647 108.769 48.5647Z" fill="#0B172D"/>
<path d="M108.031 46.5599C108.031 46.5599 108.04 46.471 108.095 46.3256C108.151 46.1827 108.246 45.9758 108.426 45.7714C108.509 45.6622 108.622 45.5636 108.745 45.4599C108.877 45.3702 109.017 45.2682 109.185 45.2045C109.346 45.1223 109.53 45.0865 109.716 45.0452C109.901 45.0271 110.097 45.0069 110.285 45.0288C110.471 45.0566 110.663 45.0718 110.83 45.1409C111.003 45.1965 111.172 45.2547 111.315 45.3436C111.459 45.4287 111.606 45.5 111.721 45.5982C111.838 45.6926 111.944 45.7882 112.04 45.8763C112.232 46.05 112.351 46.2392 112.44 46.3589C112.526 46.4841 112.568 46.5599 112.568 46.5599C112.568 46.5599 112.48 46.538 112.337 46.4916C112.193 46.4491 112.005 46.3627 111.778 46.2847C111.663 46.2472 111.541 46.2067 111.418 46.1574C111.297 46.1043 111.159 46.0828 111.028 46.0356C110.897 45.9838 110.758 45.9665 110.622 45.9332C110.485 45.8923 110.348 45.8894 110.212 45.87C110.076 45.8481 109.943 45.8649 109.81 45.8578C109.681 45.8784 109.547 45.8759 109.424 45.9121C109.296 45.9307 109.178 45.9766 109.059 46.0103C108.947 46.0597 108.828 46.0929 108.729 46.1477C108.522 46.2451 108.35 46.3517 108.226 46.4293C108.102 46.5064 108.031 46.5599 108.031 46.5599Z" fill="#0B172D"/>
<path d="M105.709 46.6655C105.709 46.6655 105.424 46.5138 104.996 46.2866C104.788 46.1859 104.557 46.0637 104.311 45.9727C104.189 45.9183 104.064 45.8871 103.94 45.8479C103.879 45.8209 103.816 45.8273 103.755 45.8104C103.694 45.8003 103.632 45.7784 103.572 45.7851L103.392 45.775C103.333 45.7767 103.277 45.7902 103.218 45.7948C103.099 45.7935 102.991 45.8504 102.875 45.8749C102.76 45.9052 102.659 45.979 102.547 46.0215C102.437 46.0675 102.348 46.1497 102.249 46.2036C102.155 46.2639 102.061 46.3174 101.991 46.3819C101.918 46.443 101.847 46.4923 101.789 46.5349C101.671 46.6187 101.594 46.6659 101.594 46.6659C101.594 46.6659 101.609 46.5833 101.65 46.4405C101.671 46.3697 101.696 46.2816 101.735 46.1846C101.765 46.0827 101.822 45.979 101.896 45.8715C101.972 45.7649 102.034 45.63 102.151 45.5247C102.269 45.4227 102.381 45.292 102.539 45.206C102.7 45.126 102.862 45.0189 103.058 44.9924C103.153 44.9742 103.25 44.9439 103.348 44.9401L103.642 44.9452C103.836 44.9603 104.024 45.0105 104.196 45.0724C104.365 45.1415 104.527 45.2174 104.662 45.3152C104.944 45.4968 105.154 45.7181 105.31 45.9208C105.624 46.3246 105.709 46.6655 105.709 46.6655Z" fill="#0B172D"/>
<path d="M98.5021 69.2816C98.5021 69.2816 104.172 75.7935 104.09 76.5905C104.008 77.3874 90.6925 86.9911 87.7111 88.6032C84.7298 90.2148 54.6655 96.7558 65.9972 92.741C65.9972 92.741 55.2408 94.1681 66.1983 91.4573C66.1983 91.4573 55.0305 93.8777 65.8961 90.3906C65.8961 90.3906 58.2496 91.2929 67.021 89.4706C67.021 89.4706 61.6579 86.1116 68.6672 88.489L84.6674 81.3158L98.5021 69.2816Z" fill="#FF938F"/>
<path d="M98.4579 81.2117C101.54 78.93 104.054 76.9356 104.09 76.5905C104.172 75.7935 98.5018 69.2816 98.5018 69.2816L92.4479 74.5472C94.3605 76.8433 96.4227 79.0176 98.4579 81.2117Z" fill="#FF7469"/>
<path d="M93.0975 72.4694L100.399 80.3199C100.399 80.3199 105.506 69.1707 107.292 64.4976C105.182 63.6534 101.489 65.2364 99.1677 67.0301C97.0533 68.6633 93.0975 72.4694 93.0975 72.4694Z" fill="white"/>
<path opacity="0.1" d="M100.887 71.4531C100.165 70.0644 99.4514 68.6593 98.9519 67.2002C96.7966 68.9109 93.0975 72.4688 93.0975 72.4688L100.399 80.3193C100.399 80.3193 101.473 77.9747 102.807 74.9874C102.141 73.8251 101.505 72.6437 100.887 71.4531Z" fill="#213765"/>
<path d="M119.16 63.3669C119.16 63.3669 126.876 64.7421 125.651 72.1998C124.427 79.6575 117.163 88.3925 117.163 88.3925L118.415 91.116L97.3695 94.4737C97.3695 94.4737 96.5814 75.4172 98.6322 70.7538C100.683 66.0904 107.292 64.4973 107.292 64.4973C107.292 64.4973 106.87 68.4012 110.127 68.7325C114.295 69.1565 119.16 63.3669 119.16 63.3669Z" fill="white"/>
<g opacity="0.1">
<path d="M123.686 78.1371C120.181 80.5263 115.586 81.8657 111.895 82.5084C107.439 83.2843 101.987 83.4541 97.2737 82.0591C97.1123 88.2591 97.3689 94.4735 97.3689 94.4735L118.414 91.1158L117.163 88.3923C117.163 88.3923 121.121 83.6303 123.686 78.1371Z" fill="#213765"/>
</g>
<path d="M98.3429 162.628C98.3429 162.628 90.8848 192.713 88.0636 195.421C88.0636 195.421 63.0952 188.168 84.1162 191.707L84.8053 161.799L98.3429 162.628Z" fill="#FF938F"/>
<path d="M89.3104 184.441C90.2005 184.861 91.1096 185.23 92.0321 185.556C95.0645 175.853 98.343 162.627 98.343 162.627L84.805 161.799L84.3519 181.473C85.9644 182.451 87.5175 183.594 89.3104 184.441Z" fill="#FF7469"/>
<path d="M88.9509 194.167L87.8176 196.617C87.8176 196.617 66.5466 188.947 79.855 191.037C79.855 191.037 76.1571 190.901 88.9509 194.167Z" fill="#FFFEE3"/>
<path d="M76.131 190.688C72.1255 190.96 87.8176 196.618 87.8176 196.618L88.0591 196.096C86.0323 195.354 76.6637 191.868 76.131 190.688Z" fill="#213765"/>
<path d="M113.967 143.267C113.967 143.267 143.458 133.725 147.248 134.692C147.248 134.692 154.263 159.729 146.176 140.005L120.407 155.204L113.967 143.267Z" fill="#FF938F"/>
<path d="M137.066 136.452C127.19 138.988 113.967 143.267 113.967 143.267L120.408 155.204L141.109 142.994C139.837 140.771 138.446 138.617 137.066 136.452Z" fill="#FF7469"/>
<path d="M145.713 134.601L148.393 134.27C148.393 134.27 153.103 156.386 147.856 143.979C147.856 143.979 149.691 147.191 145.713 134.601Z" fill="#FFFEE3"/>
<path d="M149.523 147.327C151.868 150.585 148.393 134.27 148.393 134.27L147.822 134.34C148.261 136.454 150.244 146.251 149.523 147.327Z" fill="#213765"/>
<path d="M97.1629 91.4035L92.3094 107.864C92.3094 107.864 82.1801 139.491 80.9136 176.73C80.9136 176.73 89.6361 183.201 95.0995 181.536C95.0995 181.536 102.439 149.859 104.76 137.83C107.082 125.801 107.926 106.387 107.926 106.387L97.1629 91.4035Z" fill="#39A7EA"/>
<path d="M97.1626 91.4038C97.1626 91.4038 105.059 94.2048 118.415 91.1159C118.415 91.1159 125.651 99.8447 126.284 110.396C126.918 120.948 119.11 152.18 116.577 154.29C114.045 156.401 106.448 162.521 104.338 145.849C102.227 129.178 104.971 118.415 104.971 118.415C104.971 118.415 97.1626 115.461 92.3087 107.864C92.3087 107.864 95.4743 97.1014 97.1626 91.4038Z" fill="#39A7EA"/>
<path d="M104.352 145.192C104.352 145.192 105.369 158.414 112.285 158.821C119.201 159.228 138.322 147.227 138.322 147.227C138.322 147.227 138.728 140.107 134.05 136.853L104.352 145.192Z" fill="#39A7EA"/>
<path d="M108.199 38.0825C108.199 38.0825 106.493 43.408 112.969 46.5053C119.444 49.6029 110.365 64.1292 117.338 67.0853C124.311 70.041 125.773 71.0213 125.758 73.6061C125.758 73.6061 134.11 70.4696 132.521 62.6436C130.932 54.818 123.227 56.554 124.572 46.0964C126.108 34.1528 110.004 29.7179 108.199 38.0825Z" fill="black"/>
<path d="M118.687 79.3315C118.687 79.3315 125.819 74.4637 126.601 74.6386C127.383 74.8135 135.36 89.1628 136.611 92.3127C137.862 95.4627 140.834 126.086 138.175 114.362C138.175 114.362 138.331 125.211 136.924 114.012C136.924 114.012 138.018 125.386 135.829 114.187C135.829 114.187 135.829 121.886 135.047 112.962C135.047 112.962 131.082 117.894 134.265 111.212L129.016 94.4816L118.687 79.3315Z" fill="#FF938F"/>
<path d="M130.53 80.7733C128.625 77.4455 126.939 74.7145 126.601 74.6386C125.819 74.4637 118.687 79.3315 118.687 79.3315L123.207 85.9606C125.712 84.3304 128.113 82.5375 130.53 80.7733Z" fill="#FF7469"/>
<path d="M121.22 85.0726L129.872 78.742C129.872 78.742 127.34 71.989 122.908 69.6676C118.476 67.3462 115.944 77.6866 115.944 77.6866L121.22 85.0726Z" fill="white"/>
<path d="M100.725 11.1484C100.725 16.9296 111.193 30.9815 111.193 30.9815C111.193 30.9815 121.66 16.9296 121.66 11.1484C121.66 5.36722 116.974 0.68103 111.193 0.68103C105.412 0.68103 100.725 5.36766 100.725 11.1484Z" fill="#E5F5FF"/>
<path d="M116.466 15.8197C119.378 12.9073 119.378 8.1855 116.466 5.27317C113.553 2.36083 108.832 2.36083 105.919 5.27317C103.007 8.18551 103.007 12.9073 105.919 15.8197C108.832 18.732 113.553 18.732 116.466 15.8197Z" fill="#B7E3FF"/>
<path d="M36.1691 70.3482C36.278 66.6126 34.2595 55.7487 34.2595 55.7487L26.9556 55.2424C26.9556 55.2424 28.1541 64.6265 28.2841 67.6554C30.1035 69.8712 33.8837 70.1574 36.1691 70.3482Z" fill="#FF7469"/>
<path d="M26.7516 53.4027C26.7516 53.4027 23.8159 44.1647 32.6408 42.9378C36.4275 42.4114 38.2316 43.5679 39.3557 47.3292C42.4354 57.6362 40.223 61.9401 36.8708 62.5803C31.2695 63.6493 27.8823 59.3882 26.7516 53.4027Z" fill="#FF938F"/>
<path d="M28.4993 48.7225L28.5085 45.2005C27.8145 44.6667 27.0404 45.4079 26.4878 44.7073C26.2204 44.3687 25.9592 44.0217 25.6687 43.7022C25.5251 43.5443 25.3816 43.3837 25.2228 43.2406C25.1978 43.2179 25.1799 43.2012 25.1615 43.1842C24.4693 42.6976 25.2805 41.8006 25.0477 41.0501C24.4181 41.0025 23.4786 41.1775 22.5427 42.2775C19.744 45.5676 24.2094 51.6634 24.5047 53.5397C24.5047 53.5397 25.7619 49.3657 26.4016 51.6529C26.5797 52.2895 26.7853 53.401 27.0654 54.7001C27.7445 54.4074 27.8473 54.1995 28.5684 54.0521C27.9335 51.8257 27.8101 49.4913 27.8101 49.4913L28.4993 48.7225Z" fill="black"/>
<path d="M28.3167 45.4191C28.3167 45.4191 39.2008 47.06 39.9945 42.6843L38.7225 43.0125C38.7225 43.0125 41.9408 41.0434 40.3315 37.6523C40.3315 37.6523 39.5806 39.4025 38.1861 39.5119C38.1861 39.5119 40.6535 38.7462 39.4734 36.2302C39.4734 36.2302 37.7568 38.6368 33.8953 37.9804C30.0337 37.3241 22.5237 37.871 24.4547 43.5594C26.3857 49.2478 28.3167 45.4191 28.3167 45.4191Z" fill="black"/>
<path d="M40.7093 53.2548C40.7093 53.2548 37.3431 50.8004 34.6945 51.8598C32.0458 52.9191 31.5339 53.4604 31.5339 53.4604L31.1838 61.5974C31.1838 61.5974 33.8648 63.7096 37.7106 62.4511C42.183 60.9879 40.7093 53.2548 40.7093 53.2548Z" fill="white"/>
<path d="M40.7447 53.8923C39.7208 53.2766 37.4104 51.7775 35.4794 52.5498C32.9219 53.5728 32.4274 54.0957 32.4274 54.0957L32.0896 61.954C32.0896 61.954 32.4366 62.2249 33.0527 62.5102C34.2009 62.8721 35.8133 63.0725 37.711 62.4516C41.6597 61.159 40.9596 55.3214 40.7447 53.8923Z" fill="#D3EBFF"/>
<path d="M25.8821 51.0886L32.086 53.9162L31.8781 59.8116L26.2908 55.2989" stroke="white" stroke-width="0.7834" stroke-miterlimit="10"/>
<path d="M26.3506 51.1654C26.1077 50.8556 25.7861 50.6455 25.3603 50.6657C23.8625 50.7352 23.6026 53.2578 24.2323 54.7639C24.8576 56.2591 26.6919 57.6541 27.2861 56.0845C27.2751 56.1156 27.2983 56.0521 27.2861 56.0845C27.339 54.0319 26.4801 52.5253 26.3506 51.1654Z" fill="#FF938F"/>
<path d="M34.2311 51.7439C34.2311 51.7439 34.1944 51.6726 34.1371 51.5466C34.1099 51.4831 34.0767 51.4061 34.0386 51.3177C33.9944 51.2368 33.9445 51.1458 33.8903 51.0465C33.8452 50.9454 33.7638 50.8544 33.696 50.7507C33.6338 50.6399 33.524 50.5704 33.4431 50.471C33.3407 50.3993 33.2378 50.3266 33.1232 50.2903C33.0116 50.2488 32.8917 50.2378 32.7767 50.2601C32.6611 50.2755 32.5456 50.3227 32.445 50.3962C32.3894 50.4238 32.3487 50.4759 32.3006 50.5166C32.2503 50.5559 32.2087 50.6041 32.1741 50.6592C32.0923 50.7581 32.0358 50.8723 31.9785 50.9813C31.9256 51.092 31.8954 51.2079 31.8516 51.3112C31.8263 51.421 31.8026 51.5221 31.7821 51.6114C31.758 51.7024 31.7584 51.7842 31.7466 51.8516C31.7261 51.989 31.7142 52.0677 31.7142 52.0677C31.7142 52.0677 31.6919 51.9925 31.6595 51.8555C31.6477 51.7868 31.6158 51.7028 31.6145 51.6048C31.6097 51.5063 31.6009 51.3934 31.604 51.2696C31.6228 51.148 31.628 51.0097 31.6714 50.8705C31.7164 50.7318 31.7602 50.5809 31.8551 50.4435C31.8932 50.3704 31.9418 50.3013 32.0035 50.2383C32.0617 50.1735 32.1155 50.1022 32.196 50.0549C32.3391 49.9438 32.5172 49.8593 32.708 49.8283C32.8996 49.7981 33.1009 49.8256 33.2724 49.8956C33.4531 49.9595 33.5822 50.0834 33.7091 50.1936C33.8071 50.3236 33.9196 50.4426 33.9717 50.5774C34.0342 50.7078 34.0968 50.8277 34.1217 50.9519C34.1979 51.193 34.2163 51.3864 34.2211 51.5256C34.2303 51.6639 34.2311 51.7439 34.2311 51.7439Z" fill="#0B172D"/>
<path d="M34.5114 48.5502C34.5114 48.5502 34.216 48.3643 33.8021 48.2037C33.7014 48.1582 33.5829 48.1346 33.4708 48.0956C33.3518 48.0724 33.2341 48.037 33.1085 48.0287C32.986 48.0033 32.8569 48.016 32.73 48.0059C32.6014 48.023 32.471 48.0169 32.3402 48.0488C32.2093 48.0781 32.0767 48.0917 31.9472 48.142C31.8177 48.1849 31.6842 48.2129 31.5609 48.2728C31.4375 48.3288 31.3057 48.3603 31.1915 48.4212C31.076 48.4785 30.9609 48.5271 30.8524 48.5726C30.6376 48.6658 30.4626 48.7642 30.3256 48.8167C30.1908 48.8727 30.1068 48.9012 30.1068 48.9012C30.1068 48.9012 30.1418 48.8242 30.2153 48.696C30.2932 48.573 30.3934 48.38 30.5667 48.1967C30.6525 48.1039 30.7478 48.0028 30.8546 47.9018C30.9583 47.7976 31.0957 47.7171 31.2296 47.6235C31.3609 47.5259 31.5206 47.4563 31.6838 47.3894C31.8413 47.3093 32.026 47.28 32.205 47.2384C32.3844 47.2025 32.5769 47.2069 32.7585 47.2104C32.9418 47.2362 33.123 47.2564 33.2857 47.3237C33.4538 47.3727 33.5982 47.4607 33.7329 47.5377C33.8598 47.6287 33.9771 47.7158 34.0664 47.8156C34.2571 47.9998 34.3652 48.1936 34.4304 48.328C34.4947 48.4649 34.5114 48.5502 34.5114 48.5502Z" fill="#0B172D"/>
<path d="M37.4974 51.2183C37.4974 51.2183 37.4834 51.1395 37.4659 51.0017C37.4441 50.8643 37.4261 50.6705 37.455 50.4197C37.4563 50.2933 37.4948 50.1638 37.5316 50.0237C37.557 49.8811 37.6449 49.7433 37.7167 49.5971C37.8199 49.4645 37.9236 49.3188 38.089 49.2217C38.2439 49.1206 38.4365 49.0554 38.6307 49.0488C38.8237 49.0436 39.0145 49.093 39.1764 49.1744C39.2648 49.2055 39.3309 49.265 39.4004 49.3179C39.4731 49.3678 39.5335 49.4265 39.5851 49.4912C39.7041 49.6081 39.7763 49.7481 39.8463 49.8758C39.915 50.0041 39.9465 50.1388 39.9876 50.2548C40.0139 50.376 40.027 50.4884 40.0406 50.586C40.0581 50.6827 40.0428 50.7711 40.0441 50.8411C40.0384 50.9816 40.0305 51.0599 40.0305 51.0599C40.0305 51.0599 40.0043 50.9851 39.9579 50.8538C39.9334 50.7899 39.9181 50.7094 39.8774 50.6245C39.8402 50.5405 39.7982 50.446 39.7522 50.3432C39.6901 50.25 39.6385 50.1419 39.5654 50.0434C39.4884 49.9472 39.4114 49.8457 39.3125 49.7643C39.2683 49.717 39.218 49.6776 39.1615 49.6483C39.1064 49.6172 39.0565 49.5739 38.9966 49.5573C38.8837 49.5039 38.7616 49.4798 38.6452 49.4864C38.5279 49.4864 38.4124 49.5197 38.3109 49.5818C38.205 49.6391 38.1179 49.7297 38.0313 49.8198C37.9709 49.9327 37.8759 50.022 37.8361 50.1423C37.7893 50.2565 37.7267 50.362 37.7014 50.4696C37.6668 50.5777 37.6353 50.6766 37.6073 50.7641C37.5867 50.8582 37.5688 50.94 37.5539 51.0074C37.5198 51.1417 37.4974 51.2183 37.4974 51.2183Z" fill="#0B172D"/>
<path d="M36.5896 48.0308C36.5896 48.0308 36.5795 47.9647 36.5909 47.8505C36.6018 47.7367 36.6311 47.5713 36.723 47.3888C36.7637 47.2948 36.8272 47.2007 36.9024 47.1049C36.9873 47.0174 37.0744 46.9137 37.1982 46.845C37.312 46.7601 37.4551 46.7163 37.5977 46.6695C37.7425 46.6494 37.8979 46.6179 38.041 46.641L38.2584 46.6673L38.4567 46.7299C38.5914 46.7666 38.707 46.8288 38.8133 46.894C39.0369 47.013 39.1957 47.1762 39.3353 47.3079C39.4058 47.3722 39.4539 47.4492 39.502 47.5105C39.5497 47.5718 39.5865 47.6304 39.6175 47.6768C39.6779 47.7717 39.7072 47.8295 39.7072 47.8295C39.7072 47.8295 39.6416 47.8133 39.5357 47.7787C39.4294 47.7455 39.2872 47.686 39.1226 47.6194C39.0378 47.591 38.9476 47.5604 38.8579 47.521C38.7686 47.4781 38.6693 47.4562 38.5726 47.4247C38.4759 47.3902 38.3779 47.3582 38.2803 47.3425C38.2317 47.3311 38.1823 47.3215 38.1342 47.307L37.9924 47.2965C37.8957 47.2738 37.8112 47.3005 37.7202 47.2943C37.6375 47.3184 37.5478 47.3206 37.4691 47.3587C37.3028 47.4112 37.151 47.5122 37.0214 47.6164C36.8915 47.7201 36.7838 47.826 36.709 47.9039C36.6329 47.9804 36.5896 48.0308 36.5896 48.0308Z" fill="#0B172D"/>
<path d="M50.729 169.887C51.1359 170.433 51.3814 171.105 51.3814 171.826C51.3814 171.838 51.3797 171.849 51.3797 171.862C54.517 169.83 56.8712 167.883 50.729 169.887Z" fill="white"/>
<path d="M51.9355 169.512C51.0639 169.767 49.952 170.134 48.5435 170.639L46.2187 159.816C43.9026 160.45 41.6019 161.137 39.3195 161.893C42.1952 168.244 45.1134 174.193 46.2655 174.939C46.2655 174.939 50.0723 172.795 52.5297 171.093C52.2011 170.632 52.0046 170.081 51.9355 169.512Z" fill="#213765"/>
<path d="M54.0961 169.046C53.6568 170.176 46.7008 174.143 45.8978 174.598C46.0348 174.754 46.2137 174.998 46.3214 175.067C46.3214 175.067 56.8821 168.962 54.0961 169.046Z" fill="white"/>
<path d="M48.5222 170.493C48.3712 170.872 48.2973 171.245 48.2942 171.653C48.2929 171.815 48.6136 171.763 48.6145 171.626C48.6176 171.239 48.6801 170.886 48.8241 170.525C48.8906 170.359 48.5721 170.368 48.5222 170.493Z" fill="white"/>
<path d="M49.3166 170.272C49.3166 170.697 49.3166 171.123 49.3166 171.548C49.3166 171.691 49.6347 171.626 49.6347 171.513C49.6347 171.087 49.6347 170.662 49.6347 170.236C49.6347 170.094 49.3166 170.158 49.3166 170.272Z" fill="white"/>
<path d="M50.2287 169.986C50.2326 170.366 50.2843 170.741 50.3381 171.116C50.3477 171.182 50.6671 171.115 50.6549 171.031C50.6011 170.656 50.5494 170.281 50.5455 169.901C50.5451 169.846 50.2274 169.894 50.2287 169.986Z" fill="white"/>
<path d="M13.2067 161.977C12.8243 162.541 12.2716 162.994 11.5903 163.231C11.579 163.235 11.5676 163.238 11.5562 163.242C14.5067 165.536 17.1195 167.118 13.2067 161.977Z" fill="white"/>
<path d="M13.9576 162.993C13.4299 162.254 12.718 161.325 11.7777 160.161L21.2327 154.405C19.8727 152.426 18.4664 150.479 17.0022 148.573C11.9505 153.377 7.29303 158.09 6.96704 159.424C6.96704 159.424 10.244 162.313 12.6598 164.074C12.9884 163.612 13.4431 163.246 13.9576 162.993Z" fill="#213765"/>
<path d="M15.1085 164.881C13.8973 164.837 7.86326 159.574 7.16927 158.965C7.06644 159.146 6.89579 159.395 6.8656 159.519C6.8656 159.519 16.1053 167.484 15.1085 164.881Z" fill="white"/>
<path d="M11.9991 160.13C11.5738 160.111 11.1791 160.165 10.7756 160.302C10.5871 160.366 10.6387 160.575 10.8312 160.51C11.1804 160.392 11.5173 160.336 11.8866 160.352C12.0358 160.359 12.2139 160.139 11.9991 160.13Z" fill="white"/>
<path d="M12.4246 160.828C12.0229 160.968 11.6212 161.108 11.2195 161.248C11.0353 161.312 11.0769 161.487 11.2659 161.422C11.6676 161.282 12.0693 161.142 12.471 161.002C12.6556 160.937 12.6141 160.762 12.4246 160.828Z" fill="white"/>
<path d="M12.9852 161.636C12.615 161.769 12.2658 161.946 11.9171 162.126C11.7302 162.223 12.0247 162.21 12.1004 162.171C12.4255 162.002 12.7502 161.835 13.0955 161.711C13.3086 161.634 13.1073 161.592 12.9852 161.636Z" fill="white"/>
<path d="M44.078 97.4248C44.078 97.4248 49.1792 132.123 44.4915 137.697C39.8043 143.271 14.8209 159.827 14.8209 159.827L9.39545 154.115L30.0093 131.422L37.185 107.579L44.078 97.4248Z" fill="#39A7EA"/>
<path d="M27.9653 91.5604C27.9653 91.5604 18.6087 99.9656 21.5964 108.343C24.8257 117.399 28.91 135.485 41.578 170.033L48.9554 166.608L40.3716 114.647L45.6439 110.842L44.0783 97.4247L27.9653 91.5604Z" fill="#39A7EA"/>
<path d="M45.0528 87.0218C48.293 94.4329 52.782 103.899 56.3902 108.467C62.1884 115.808 57.1463 107.375 57.1463 107.375C57.1463 107.375 64.8248 115.638 58.54 107.009C58.54 107.009 64.3653 114.346 59.731 107.054C60.7458 108.623 63.344 112.49 59.7954 105.265C57.4417 100.474 54.7112 93.4326 52.5895 87.6527C50.0818 87.3858 47.571 87.1618 45.0528 87.0218Z" fill="#FF938F"/>
<path d="M58.5418 102.617C58.5418 102.617 63.891 105.2 58.6153 103.992C53.3399 102.783 58.5418 102.617 58.5418 102.617Z" fill="#FF938F"/>
<path d="M58.8159 101.759L53.0159 104.542C53.0159 104.542 35.7017 72.883 37.3833 69.3462C38.521 66.9531 43.7233 62.0427 47.636 73.9765C49.665 80.1659 53.5782 88.9239 58.8159 101.759Z" fill="#39A7EA"/>
<path d="M52.2409 85.903C50.2521 81.0985 48.6883 77.188 47.6355 73.9771C43.7227 62.0429 38.5205 66.9533 37.3828 69.3468C36.3716 71.4738 42.2311 83.7721 47.0627 93.2384C48.7999 90.8003 50.5405 88.3652 52.2409 85.903Z" fill="#A0D2F4"/>
<path d="M44.0791 67.2244C43.0364 65.8299 37.1389 64.7005 37.1389 64.7005L37.0837 64.7289L36.9323 63.1406L26.5764 63.4324L26.9825 65.3C23.9947 65.955 19.8816 67.052 19.4659 68.1971C15.4788 79.1792 21.2647 110.106 21.2647 110.106C35.0363 112.732 46.3851 106.564 46.3851 106.564C46.3851 106.564 46.5072 70.4716 44.0791 67.2244Z" fill="#39A7EA"/>
<path d="M43.5914 97.9455C37.4711 94.0568 31.6856 89.5157 26.6763 84.2597C23.8024 81.2439 20.8129 77.9595 18.2689 74.4341C17.1093 87.8941 21.264 110.106 21.264 110.106C35.0356 112.732 46.3844 106.564 46.3844 106.564C46.3844 106.564 46.3941 103.75 46.3547 99.6249C45.4253 99.0797 44.502 98.524 43.5914 97.9455Z" fill="#A0D2F4"/>
<path d="M11.0388 84.4101C7.16897 91.5127 2.44104 100.862 1.04301 106.513C-1.20346 115.593 2.36928 106.441 2.36928 106.441C2.36928 106.441 0.54681 117.573 3.51221 107.318C3.51221 107.318 1.28586 116.417 4.20707 108.286C3.58922 110.049 2.12687 114.472 5.6598 107.24C8.00298 102.444 11.893 95.9702 15.1594 90.7513C13.8336 88.6068 12.4719 86.4855 11.0388 84.4101Z" fill="#FF938F"/>
<path d="M6.984 104.627C6.984 104.627 8.22188 110.437 5.94346 105.528C3.66504 100.619 6.984 104.627 6.984 104.627Z" fill="#FF938F"/>
<path d="M7.83026 104.317L2.07623 101.44C2.07623 101.44 16.4788 68.3558 20.3036 67.5161C22.8918 66.9481 29.9603 68.049 22.929 78.4553C19.2827 83.8523 14.7613 92.3122 7.83026 104.317Z" fill="#39A7EA"/>
<path d="M21.1208 17.9438C21.1208 23.1985 30.6358 35.9716 30.6358 35.9716C30.6358 35.9716 40.1507 23.1985 40.1507 17.9438C40.1507 12.689 35.891 8.42883 30.6358 8.42883C25.381 8.42883 21.1208 12.689 21.1208 17.9438Z" fill="#E5F5FF"/>
<path d="M30.6359 24.1749C34.3797 24.1749 37.4147 21.1399 37.4147 17.3961C37.4147 13.6523 34.3797 10.6173 30.6359 10.6173C26.892 10.6173 23.8571 13.6523 23.8571 17.3961C23.8571 21.1399 26.892 24.1749 30.6359 24.1749Z" fill="#B7E3FF"/>
</svg>
