<svg width="28" height="18" viewBox="0 0 28 18" fill="none" xmlns="http://www.w3.org/2000/svg">
<path d="M27.4777 0H0.523669C0.234233 0 0 0.238084 0 0.532255V17.4677C0 17.7619 0.234243 18 0.523669 18H27.4763C27.7658 18 28 17.7619 28 17.4677V0.532255C28 0.238073 27.7658 0 27.4763 0H27.4777ZM26.954 16.9355H1.04872V1.06591H26.954V16.9355ZM2.66297 13.512C3.41955 13.9348 4.03344 14.567 4.44135 15.3401C4.53289 15.5139 4.70924 15.622 4.90308 15.622H23.1014C23.2952 15.622 23.4716 15.5139 23.5631 15.3401C23.971 14.567 24.5863 13.9362 25.3415 13.512C25.5084 13.419 25.6134 13.2397 25.6134 13.0455V4.95462C25.6134 4.76032 25.5098 4.58107 25.3415 4.48804C24.5849 4.06525 23.971 3.43309 23.5631 2.65998C23.4716 2.48621 23.2952 2.37811 23.1014 2.37811L4.90171 2.37948C4.70785 2.37948 4.5315 2.48757 4.43997 2.66135C4.03206 3.43442 3.41682 4.06521 2.6616 4.48941C2.49466 4.58245 2.38966 4.7617 2.38966 4.95598V13.0468C2.38966 13.2411 2.49332 13.4204 2.6616 13.5134L2.66297 13.512ZM3.43974 5.25866C4.15995 4.80028 4.76306 4.18045 5.20598 3.4443H22.797C23.2413 4.18045 23.8444 4.80028 24.5633 5.25866V12.7404C23.8431 13.1987 23.24 13.8186 22.797 14.5547L5.2046 14.5561C4.76034 13.8199 4.15723 13.2001 3.43836 12.7417V5.26003L3.43974 5.25866ZM14.002 13.2332C16.2987 13.2332 18.1673 11.334 18.1673 8.99969C18.1673 6.66536 16.2987 4.76616 14.002 4.76616C11.7054 4.76616 9.83681 6.66536 9.83681 8.99969C9.83681 11.334 11.7054 13.2332 14.002 13.2332ZM14.002 5.83207C15.7212 5.83207 17.1185 7.25373 17.1185 8.99969C17.1185 10.747 15.7198 12.1673 14.002 12.1673C12.2829 12.1673 10.8855 10.7456 10.8855 8.99969C10.8855 7.25237 12.2842 5.83207 14.002 5.83207ZM6.87228 10.6758C7.78097 10.6758 8.52003 9.92461 8.52003 9.00102C8.52003 8.07742 7.78097 7.32624 6.87228 7.32624C5.96359 7.32624 5.22452 8.07742 5.22452 9.00102C5.22452 9.92461 5.96359 10.6758 6.87228 10.6758ZM6.87228 8.39075C7.20345 8.39075 7.4727 8.66441 7.4727 9.00102C7.4727 9.33762 7.20345 9.61128 6.87228 9.61128C6.54111 9.61128 6.27186 9.33762 6.27186 9.00102C6.27186 8.66441 6.5411 8.39075 6.87228 8.39075ZM21.1328 10.6758C22.0415 10.6758 22.7806 9.92461 22.7806 9.00102C22.7806 8.07742 22.0415 7.32624 21.1328 7.32624C20.2241 7.32624 19.4851 8.07742 19.4851 9.00102C19.4851 9.92461 20.2241 10.6758 21.1328 10.6758ZM21.1328 8.39075C21.464 8.39075 21.7332 8.66441 21.7332 9.00102C21.7332 9.33762 21.464 9.61128 21.1328 9.61128C20.8016 9.61128 20.5324 9.33762 20.5324 9.00102C20.5324 8.66441 20.8016 8.39075 21.1328 8.39075Z" fill="#808080"/>
</svg>
