<svg width="166" height="180" viewBox="0 0 166 180" fill="none" xmlns="http://www.w3.org/2000/svg">
<path d="M12.2668 8.90386C11.677 36.7367 9.76423 132.742 10.6774 166.764C10.7741 170.368 13.2439 173.261 16.3248 173.379C31.5626 173.962 87.4235 175.441 112.347 174.218C117.539 173.963 121.667 169.044 121.775 162.967C122.293 133.753 123.435 51.5845 120.719 13.9433C120.394 9.43333 117.368 5.84186 113.518 5.39124C96.9236 3.44917 40.8226 -1.29808 19.2898 0.33665C15.4063 0.631471 12.3633 4.35269 12.2668 8.90386Z" fill="#E1E1E1"/>
<path d="M19.0659 17.4432C18.2457 39.9085 15.6586 114.645 16.4796 142.281C16.5997 146.32 19.321 149.586 22.7701 149.823C36.971 150.795 85.4208 152.938 106.25 150.987C110.001 150.636 112.944 147.087 113.146 142.692C114.202 119.773 117.232 50.1826 116.445 22.8563C116.32 18.497 113.433 14.9369 109.72 14.5469C94.3567 12.9332 42.8732 9.09366 25.1733 10.2234C21.8506 10.4355 19.2079 13.554 19.0659 17.4432Z" fill="#F2F2F2"/>
<path d="M57.1584 5.85756C57.1584 6.71158 57.7273 7.41597 58.4563 7.46051C62.0554 7.68099 72.1941 8.30488 76.7252 8.61241C77.6187 8.67309 78.3199 7.73361 78.1503 6.70568L78.1214 6.53024C78.0057 5.82884 77.5085 5.30089 76.9005 5.2357C73.8376 4.90733 64.5958 3.99695 58.4725 4.25269C57.737 4.28351 57.1584 4.99654 57.1584 5.85756Z" fill="white"/>
<path d="M64.2402 64.5611C75.9785 64.5611 85.4943 55.0454 85.4943 43.307C85.4943 31.5687 75.9785 22.0529 64.2402 22.0529C52.5019 22.0529 42.9861 31.5687 42.9861 43.307C42.9861 55.0454 52.5019 64.5611 64.2402 64.5611Z" fill="#E0E0E0"/>
<path d="M70.7475 35.2758C70.7475 38.8746 67.8301 42.7598 64.2312 42.7598C60.6324 42.7598 57.7149 38.8746 57.7149 35.2758C57.7149 31.6769 60.6324 29.1237 64.2312 29.1237C67.8301 29.1237 70.7475 31.6769 70.7475 35.2758Z" fill="white"/>
<path d="M56.1444 56.6157H72.0519C73.7264 56.6157 75.2089 55.5335 75.7191 53.9386L76.5751 51.2633C77.2019 49.3044 76.1829 47.1835 74.2513 46.4773C67.7775 44.1102 61.0835 44.414 54.2262 46.6957C52.3052 47.3349 51.2391 49.3898 51.7692 51.3437L52.4284 53.7734C52.8834 55.4511 54.4061 56.6157 56.1444 56.6157Z" fill="white"/>
<g opacity="0.71">
<path opacity="0.65" d="M105.005 98.5042H27.4356C27.1987 98.5042 27.0067 98.3122 27.0067 98.0753V86.8673C27.0067 86.6304 27.1987 86.4384 27.4356 86.4384H105.005C105.242 86.4384 105.434 86.6304 105.434 86.8673V98.0753C105.434 98.3122 105.242 98.5042 105.005 98.5042Z" fill="#DCDCDC"/>
<path opacity="0.65" d="M104.582 118.191H27.0124C26.7755 118.191 26.5835 117.999 26.5835 117.762V106.554C26.5835 106.317 26.7755 106.125 27.0124 106.125H104.582C104.819 106.125 105.011 106.317 105.011 106.554V117.762C105.011 117.999 104.819 118.191 104.582 118.191Z" fill="#DCDCDC"/>
<path opacity="0.65" d="M89.437 141.67H39.8311C39.5387 141.67 39.3017 141.433 39.3017 141.141V126.817C39.3017 126.525 39.5387 126.288 39.8311 126.288H89.437C89.7294 126.288 89.9664 126.525 89.9664 126.817V141.141C89.9664 141.433 89.7294 141.67 89.437 141.67Z" fill="#DCDCDC"/>
</g>
<path opacity="0.75" d="M76.4316 95.8749H31.2433C30.8223 95.8749 30.4809 95.5336 30.4809 95.1125V89.9339C30.4809 89.5128 30.8223 89.1714 31.2433 89.1714H76.4316C76.8527 89.1714 77.194 89.5128 77.194 89.9339V95.1125C77.1941 95.5335 76.8527 95.8749 76.4316 95.8749Z" fill="white"/>
<g opacity="0.75">
<path d="M33.1602 114.366C34.5644 113.784 35.2313 112.175 34.6496 110.77C34.0679 109.366 32.4581 108.699 31.0538 109.281C29.6496 109.863 28.9828 111.472 29.5645 112.877C30.1461 114.281 31.756 114.948 33.1602 114.366Z" fill="white"/>
<path d="M39.6542 114.715C41.1741 114.715 42.4062 113.483 42.4062 111.963C42.4062 110.443 41.1741 109.211 39.6542 109.211C38.1343 109.211 36.9022 110.443 36.9022 111.963C36.9022 113.483 38.1343 114.715 39.6542 114.715Z" fill="white"/>
<path d="M49.5966 112.959C49.9459 111.48 49.0299 109.997 47.5508 109.648C46.0716 109.299 44.5894 110.215 44.2401 111.694C43.8908 113.173 44.8068 114.655 46.2859 115.005C47.7651 115.354 49.2473 114.438 49.5966 112.959Z" fill="white"/>
<path d="M54.4722 115.209C55.9921 115.209 57.2242 113.977 57.2242 112.457C57.2242 110.937 55.9921 109.705 54.4722 109.705C52.9523 109.705 51.7202 110.937 51.7202 112.457C51.7202 113.977 52.9523 115.209 54.4722 115.209Z" fill="white"/>
<path d="M62.022 115.138C63.5419 115.138 64.774 113.906 64.774 112.386C64.774 110.866 63.5419 109.634 62.022 109.634C60.5021 109.634 59.27 110.866 59.27 112.386C59.27 113.906 60.5021 115.138 62.022 115.138Z" fill="white"/>
<path d="M69.5729 115.279C71.0928 115.279 72.3249 114.047 72.3249 112.527C72.3249 111.008 71.0928 109.775 69.5729 109.775C68.053 109.775 66.8209 111.008 66.8209 112.527C66.8209 114.047 68.053 115.279 69.5729 115.279Z" fill="white"/>
</g>
<path d="M100.999 121.511L109.429 123.618L107.322 139.426C107.322 139.426 110.483 142.588 111.537 146.803C112.591 151.019 113.563 168.719 113.563 168.719L115.563 169.928L115.807 170.938L109.986 178.763L110.952 172.535C111.105 171.546 110.839 169.541 110.923 169.499C107.761 161.068 100.999 137.319 100.999 137.319V121.511Z" fill="url(#paint0_linear_1803_3014)"/>
<path d="M98.5352 171.046C98.6264 171.045 98.7161 171.052 98.8079 171.046C98.4005 165.964 96.5387 143.595 94.6755 135.211C92.5678 125.726 97.8371 106.757 97.8371 106.757L107.322 116.241L102.053 134.157C105.664 139.574 101.464 171.294 101.554 171.28L101.548 171.351L102.923 173.241L102.756 174.266L94.3567 179.223L97.6616 173.856C98.1862 173.004 98.476 172.038 98.5352 171.046Z" fill="url(#paint1_linear_1803_3014)"/>
<path d="M109.203 64.6911C109.203 64.6911 127.67 85.5043 109.203 96.1759L107.322 94.8135C107.322 94.8135 116.49 86.0342 107.322 75.2869L109.203 64.6911Z" fill="url(#paint2_linear_1803_3014)"/>
<path d="M93.8034 180H96.4839C96.9856 180 97.4588 179.77 97.7647 179.372C98.6003 178.286 100.332 176.168 101.159 176.113C102.274 176.038 102.131 180 102.131 180H102.756L103.547 175.077C103.746 173.838 103.13 172.611 102.018 172.031C102.018 172.031 101.763 173.915 100.382 174.748C99.0006 175.582 94.761 178.566 94.761 178.566C94.761 178.566 94.2417 178.492 93.6716 178.595C92.826 178.748 92.944 180 93.8034 180Z" fill="#39A7EA"/>
<path d="M109.778 179.695L112.249 178.655C112.711 178.461 113.058 178.065 113.186 177.58C113.535 176.255 114.309 173.631 115.051 173.259C116.049 172.758 117.454 176.465 117.454 176.465L118.03 176.223L116.85 171.378C116.554 170.16 115.51 169.267 114.26 169.164C114.26 169.164 114.755 170.999 113.805 172.303C112.855 173.606 110.105 178.001 110.105 178.001C110.105 178.001 109.597 178.134 109.112 178.45C108.391 178.919 108.986 180.028 109.778 179.695Z" fill="#39A7EA"/>
<path d="M95.4216 90.719C95.4216 90.719 95.7316 92.6187 95.2774 97.8409C94.8233 103.063 92.6526 115.324 93.0946 127.055C93.0946 127.055 99.2654 128.493 109.986 127.812C109.986 127.812 114.511 109.496 113.409 102.533C112.306 95.5704 106.327 90.5751 106.327 90.5751L95.4216 90.719Z" fill="#39A7EA"/>
<path d="M99.9813 55.8226L99.2271 64.6911H106.393L104.611 51.1539L99.9813 55.8226Z" fill="url(#paint3_linear_1803_3014)"/>
<path d="M108.515 63.4648C106.042 63.3285 100.513 63.0761 96.5963 63.2895C94.5339 63.4019 92.8063 64.8815 92.3845 66.9034L91.4291 71.4817C91.0733 73.187 91.1265 74.9524 91.5844 76.6332L95.4216 90.7192C95.4216 90.7192 98.8347 92.7702 106.327 90.5753C106.327 90.5753 112.908 74.8839 110.214 64.846C110.005 64.0664 109.321 63.5093 108.515 63.4648Z" fill="#A0D2F4"/>
<path d="M92.5717 66.0821C91.5162 68.8624 90.5629 71.7778 89.5388 74.5083C89.0181 75.8748 88.4899 77.2145 87.9248 78.4448C87.639 79.0575 87.3249 79.6206 87.0368 80.131C86.7483 80.6364 86.4235 81.0568 86.2542 81.2503C86.221 81.2789 86.3322 81.3008 86.3694 81.3026C86.3918 81.3054 85.6558 81.4233 85.4301 81.4612L84.548 81.4559C83.2837 81.3909 81.8517 81.168 80.4154 80.8889C77.5183 80.3487 74.5061 79.5902 71.4133 79.0165L71.3896 79.0121C70.7978 78.9023 70.229 79.2931 70.1192 79.8849C70.0468 80.2752 70.1936 80.6565 70.4707 80.9018C71.7177 81.9995 73.0397 82.9013 74.4108 83.7791C75.1009 84.2011 75.8032 84.6147 76.517 85.0119C77.2449 85.3828 77.9747 85.7569 78.7329 86.1027C80.2592 86.7677 81.836 87.3804 83.6525 87.7739C84.1299 87.8537 84.601 87.9375 85.0922 88.0033C85.6431 88.0224 86.1434 88.0712 86.745 88.0364C87.0646 88.0048 87.3856 87.9656 87.7058 87.919C87.8765 87.8889 88.002 87.8857 88.2088 87.8286C88.4284 87.7628 88.6473 87.689 88.8631 87.608C89.3142 87.4461 89.6058 87.2502 89.9722 87.0464C90.2764 86.8458 90.5539 86.636 90.8229 86.4209C91.8159 85.575 92.4326 84.7356 92.9761 83.9296C93.518 83.1242 93.9476 82.3175 94.3332 81.5267C95.1068 79.9473 95.7108 78.3823 96.201 76.8064C97.1941 73.6485 97.8671 70.545 98.1511 67.2483C98.2871 65.6692 97.1172 64.2789 95.5382 64.1428C94.2313 64.0302 93.0536 64.8122 92.6094 65.9803L92.5717 66.0821Z" fill="url(#paint4_linear_1803_3014)"/>
<path d="M72.3869 80.4335L71.1082 77.3983L64.3781 75.7213C64.3781 75.7213 63.8398 76.8879 66.6664 77.3983C66.6664 77.3983 65.6567 78.5142 66.1952 79.8266C66.7337 81.1389 72.4542 82.4537 72.3869 80.4335Z" fill="url(#paint5_linear_1803_3014)"/>
<path d="M96.9474 45.5805C96.6915 45.7314 94.6756 52.8415 96.3649 55.8225C98.0542 58.8037 103.213 55.4646 104.611 51.1539C106.009 46.8432 103.763 41.561 96.9474 45.5805Z" fill="url(#paint6_linear_1803_3014)"/>
<path d="M110.318 51.1539C111.475 56.8231 115.309 55.2716 118.024 57.7938C122.425 61.8817 128.721 57.6677 134.842 61.5415C139.26 64.3382 141.389 71.493 139.269 77.2697C136.332 85.2705 126.296 88.5608 121.094 86.1239C116.123 83.795 116.831 76.8197 110.143 74.124C107.304 72.9796 105.902 73.7232 104.201 72.027C101.225 69.0576 102.028 63.2954 102.337 61.0756C103.009 56.2588 104.624 55.3867 103.852 53.2698C102.351 49.1523 95.348 50.0018 94.7644 47.0951C94.2331 44.448 99.3085 39.4307 104.085 40.2214C111.475 41.4446 109.802 48.6282 110.318 51.1539Z" fill="black"/>
<path opacity="0.6" d="M137.062 75.9146C137.15 75.9146 137.229 75.8553 137.25 75.7665C138.196 71.8386 137.767 68.6172 135.974 66.1917C132.998 62.1663 127.214 61.7681 127.155 61.7646C127.064 61.7495 126.957 61.8391 126.951 61.946C126.944 62.0526 127.025 62.1444 127.132 62.1508C127.188 62.1542 132.797 62.5434 135.664 66.4241C137.385 68.7528 137.792 71.8657 136.874 75.6758C136.849 75.7796 136.913 75.8843 137.017 75.9093C137.032 75.9128 137.047 75.9146 137.062 75.9146Z" fill="white"/>
<path opacity="0.72" d="M118.118 79.5104C118.126 79.5104 118.134 79.5093 118.143 79.5074C118.194 79.4938 118.225 79.4409 118.212 79.3891C117.29 75.853 115.673 73.3973 113.406 72.0895C111.756 71.138 110.212 71.0496 108.849 70.9714C107.535 70.8958 106.4 70.8304 105.487 70.0184C103.599 68.3396 103.709 64.3032 105.812 58.0212C105.829 57.9706 105.802 57.9158 105.751 57.8988C105.7 57.8818 105.646 57.9094 105.628 57.9601C103.498 64.3222 103.407 68.4277 105.359 70.1628C106.322 71.0198 107.488 71.0871 108.838 71.1646C110.179 71.2417 111.699 71.329 113.309 72.2573C115.53 73.5379 117.116 75.954 118.024 79.4383C118.036 79.4817 118.075 79.5104 118.118 79.5104Z" fill="white"/>
<path opacity="0.72" d="M107.58 49.747C107.59 49.747 107.601 49.7456 107.611 49.7421C107.662 49.7252 107.689 49.67 107.672 49.6193C106.939 47.4397 104.828 47.7637 102.592 48.1075C101.176 48.3252 99.713 48.5492 98.4717 48.1819C97.5455 47.9073 96.9954 47.4818 96.8362 46.9168C96.5645 45.9551 97.516 44.8827 97.5254 44.8718C97.5614 44.8322 97.558 44.7709 97.5183 44.7354C97.479 44.6996 97.4174 44.7029 97.382 44.7426C97.3396 44.7895 96.3499 45.9038 96.6497 46.969C96.828 47.602 97.4225 48.0724 98.4165 48.3672C99.7002 48.7473 101.185 48.5194 102.621 48.2988C104.866 47.9541 106.807 47.6553 107.488 49.6814C107.502 49.7217 107.54 49.747 107.58 49.747Z" fill="white"/>
<path d="M128.908 27.7297C128.908 17.7522 137.36 9.66494 147.502 9.66628C157.345 9.66748 165.113 17.3289 165.113 26.7785C165.113 36.2282 157.345 44.2977 147.502 44.8161C137.36 45.3503 128.908 37.7072 128.908 27.7297Z" fill="#E1E1E1"/>
<path d="M130.605 27.6852C130.605 18.6427 138.264 11.3135 147.456 11.3145C156.377 11.3157 163.416 18.259 163.416 26.8231C163.416 35.3871 156.377 42.7004 147.456 43.1702C138.264 43.6544 130.605 36.7275 130.605 27.6852Z" fill="#F2F2F2"/>
<path d="M141.997 26.6597H140.487V20.6414C140.487 18.2776 142.256 16.28 144.603 15.9948L147.69 15.6195C149.019 15.458 150.357 15.8745 151.359 16.7623C152.361 17.6501 152.936 18.9272 152.936 20.2661V25.5202H151.426V20.2661C151.426 19.3592 151.036 18.4941 150.358 17.8928C149.679 17.2915 148.773 17.0093 147.873 17.1187L144.785 17.494C143.195 17.6871 141.997 19.0402 141.997 20.6414L141.997 26.6597Z" fill="#D7D7D7"/>
<path d="M140.04 25.3085L153.279 24.5751C153.816 24.5453 154.269 24.9733 154.269 25.5118V35.9994C154.269 36.5175 153.849 36.9375 153.33 36.9375H140.41C139.904 36.9375 139.489 36.5358 139.472 36.0299L139.154 26.2758C139.138 25.7662 139.531 25.3367 140.04 25.3085Z" fill="#D7D7D7"/>
<path d="M148.869 33.9331L148.068 31.6295C147.972 31.3525 148.037 31.0429 148.243 30.8342C148.654 30.4181 148.899 29.8379 148.87 29.2008C148.819 28.0771 147.901 27.166 146.777 27.1228C145.533 27.075 144.509 28.0693 144.509 29.3025C144.509 29.9867 144.824 30.5971 145.317 30.9969C145.573 31.2043 145.678 31.5452 145.57 31.856L144.847 33.9331C144.672 34.4383 145.047 34.9658 145.582 34.9658H148.135C148.67 34.9658 149.045 34.4382 148.869 33.9331Z" fill="white"/>
<path d="M42.0238 143.422C42.082 143.287 42.0521 143.128 41.9492 143.025L39.0137 140.108C39.3779 138.166 39.4499 136.148 39.197 134.128L42.3007 131.429C42.4096 131.334 42.449 131.177 42.3991 131.038L40.6894 126.276C40.6394 126.137 40.511 126.046 40.3696 126.05L36.3372 126.162C35.2562 124.467 33.933 122.999 32.4375 121.79L32.8102 117.569C32.8232 117.421 32.7455 117.28 32.6166 117.219L28.2044 115.113C28.0753 115.052 27.9236 115.083 27.8266 115.191L25.0556 118.267C23.206 117.879 21.2849 117.799 19.3615 118.06L16.7844 114.794C16.694 114.679 16.5445 114.637 16.4121 114.689L11.8819 116.474C11.7496 116.526 11.6634 116.661 11.6675 116.809L11.7837 121.045C10.1727 122.176 8.77822 123.562 7.63052 125.13L3.61092 124.728C3.47011 124.714 3.33643 124.796 3.27816 124.931L1.28387 129.56C1.22554 129.695 1.25553 129.855 1.3584 129.957L4.2939 132.875C3.92957 134.817 3.85764 136.834 4.11071 138.855L1.0069 141.554C0.898056 141.648 0.858536 141.805 0.908414 141.944L2.61818 146.707C2.66812 146.846 2.79654 146.937 2.93804 146.933L6.97054 146.821C8.0514 148.516 9.37466 149.984 10.8702 151.193L10.4975 155.413C10.4844 155.561 10.5622 155.702 10.6911 155.764L15.1033 157.869C15.2323 157.931 15.384 157.9 15.4811 157.792L18.2521 154.716C20.1017 155.103 22.0228 155.183 23.9462 154.922L26.5232 158.189C26.6135 158.303 26.7631 158.345 26.8955 158.293L31.4256 156.509C31.558 156.457 31.6441 156.322 31.64 156.173L31.5238 151.938C33.1347 150.807 34.5292 149.42 35.677 147.852L39.6965 148.254C39.8374 148.268 39.9709 148.187 40.0293 148.051L42.0238 143.422Z" fill="#D0D0D0"/>
<path opacity="0.7" d="M26.0127 134.227C27.0699 136.461 26.4385 139.233 24.4347 140.694C22.2319 142.299 19.1928 141.719 17.6593 139.402C16.9162 138.279 16.6336 136.921 16.8628 135.578C17.0919 134.235 17.8057 133.066 18.8728 132.289C21.0756 130.684 24.1147 131.264 25.6482 133.581C25.7864 133.79 25.9079 134.006 26.0127 134.227ZM18.3089 138.222C18.3906 138.395 18.4845 138.562 18.5911 138.723C19.7667 140.5 22.0973 140.944 23.7858 139.713C25.4746 138.483 25.8929 136.036 24.7164 134.26C23.5409 132.483 21.2104 132.039 19.5217 133.269C18.7035 133.865 18.1563 134.761 17.9805 135.791C17.8378 136.628 17.9544 137.473 18.3089 138.222Z" fill="white"/>
<path opacity="0.7" d="M32.2617 130.859C32.4432 131.243 32.6075 131.638 32.7534 132.045C32.7994 132.172 32.8433 132.301 32.8853 132.431C33.0923 133.068 33.2507 133.722 33.3581 134.383C33.3595 134.392 33.361 134.401 33.3625 134.41C33.3666 134.435 33.3706 134.461 33.3744 134.486C33.3822 134.536 33.3894 134.586 33.3966 134.636C33.4153 134.767 33.3498 134.89 33.2427 134.946C33.2166 134.96 33.188 134.969 33.1578 134.974C33.0028 134.998 32.8587 134.885 32.8352 134.723C32.7159 133.884 32.5096 133.054 32.2222 132.254C30.7965 128.281 27.5652 125.563 23.8773 124.742C21.8261 124.285 19.6335 124.415 17.5315 125.243C17.1629 125.388 16.804 125.552 16.4561 125.733C14.1147 126.951 12.2607 128.963 11.169 131.497C9.91474 134.408 9.81613 137.661 10.8913 140.656C13.1123 146.84 19.7013 149.983 25.582 147.667C25.9446 147.524 26.299 147.363 26.6435 147.183C28.1371 146.406 29.4513 145.293 30.4881 143.921C30.515 143.885 30.5478 143.858 30.5841 143.839C30.6794 143.79 30.7978 143.799 30.8868 143.873C31.0095 143.976 31.0308 144.163 30.933 144.292C29.8444 145.733 28.4647 146.901 26.8967 147.717C26.5349 147.906 26.163 148.075 25.7825 148.225C19.6083 150.657 12.6894 147.353 10.36 140.865C9.23119 137.721 9.33482 134.307 10.6515 131.25C11.7977 128.59 13.7439 126.478 16.202 125.199C16.5673 125.009 16.944 124.837 17.3308 124.685C20.3218 123.507 23.5731 123.623 26.4859 125.014C29.0225 126.224 31.0379 128.274 32.2617 130.859Z" fill="white"/>
<path d="M65.4112 165.297C65.4502 165.207 65.4302 165.1 65.3613 165.032L63.397 163.079C63.6408 161.78 63.6889 160.43 63.5196 159.078L65.5965 157.272C65.6694 157.208 65.6958 157.103 65.6624 157.01L64.5184 153.823C64.4849 153.73 64.399 153.67 64.3043 153.672L61.606 153.747C60.8827 152.613 59.9972 151.631 58.9965 150.822L59.246 147.997C59.2547 147.898 59.2026 147.804 59.1163 147.763L56.1639 146.354C56.0775 146.313 55.9761 146.334 55.9111 146.406L54.0569 148.464C52.8192 148.205 51.5337 148.151 50.2466 148.326L48.5222 146.14C48.4617 146.064 48.3617 146.036 48.2731 146.07L45.2417 147.264C45.1531 147.299 45.0955 147.389 45.0983 147.489L45.176 150.323C44.098 151.08 43.1649 152.008 42.3969 153.057L39.7072 152.788C39.6129 152.779 39.5235 152.833 39.4845 152.924L38.15 156.021C38.111 156.112 38.1311 156.218 38.1999 156.287L40.1642 158.239C39.9203 159.539 39.8723 160.889 40.0416 162.241L37.9646 164.047C37.8918 164.11 37.8653 164.215 37.8987 164.308L39.0428 167.495C39.0762 167.588 39.1621 167.649 39.2568 167.646L41.9551 167.571C42.6784 168.705 43.5638 169.688 44.5646 170.497L44.3152 173.321C44.3064 173.42 44.3585 173.514 44.4448 173.555L47.3972 174.964C47.4835 175.006 47.585 174.985 47.65 174.913L49.5042 172.854C50.7419 173.113 52.0274 173.167 53.3145 172.992L55.039 175.178C55.0994 175.255 55.1995 175.283 55.2881 175.248L58.3194 174.054C58.4079 174.019 58.4656 173.929 58.4628 173.83L58.3851 170.995C59.4631 170.238 60.3962 169.311 61.1642 168.262L63.8539 168.53C63.9482 168.54 64.0376 168.485 64.0766 168.395L65.4112 165.297Z" fill="#D0D0D0"/>
<path opacity="0.7" d="M54.7521 159.121C55.0671 159.787 55.1707 160.538 55.0439 161.282C54.8877 162.197 54.4014 162.992 53.6745 163.522C52.1748 164.615 50.1046 164.22 49.0596 162.642C48.0164 161.06 48.3862 158.89 49.8864 157.797C50.6132 157.267 51.4936 157.067 52.3651 157.233C53.2369 157.399 53.9957 157.912 54.5016 158.677C54.5959 158.82 54.6797 158.968 54.7521 159.121ZM49.5965 161.794C49.649 161.905 49.7098 162.013 49.779 162.118C50.5476 163.279 52.0704 163.569 53.1739 162.765C53.7083 162.375 54.0664 161.79 54.1809 161.117C54.2957 160.444 54.1535 159.764 53.782 159.201C53.4098 158.638 52.8516 158.261 52.2106 158.139C51.5692 158.017 50.9216 158.164 50.3869 158.554C49.3832 159.285 49.0667 160.675 49.5965 161.794Z" fill="white"/>
<path opacity="0.7" d="M59.1046 156.783C59.2282 157.044 59.3401 157.314 59.4403 157.592C59.6389 158.145 59.7842 158.719 59.8723 159.301C59.8761 159.327 59.8798 159.353 59.8836 159.38C59.9126 159.582 59.8114 159.773 59.646 159.859C59.6057 159.88 59.5616 159.895 59.5149 159.902C59.2755 159.939 59.0534 159.764 59.0168 159.514C58.9395 158.97 58.8058 158.432 58.6201 157.916L58.62 157.916C58.6099 157.887 58.5993 157.859 58.5889 157.831C58.1388 156.612 57.4169 155.557 56.4921 154.734C55.9901 154.287 55.4279 153.908 54.8159 153.609C54.811 153.606 54.806 153.604 54.801 153.601C54.7855 153.594 54.7706 153.587 54.7552 153.579C52.9589 152.722 50.954 152.65 49.1097 153.377C48.871 153.47 48.6389 153.576 48.4135 153.694C46.8978 154.482 45.6976 155.785 44.9906 157.426C44.1787 159.31 44.1152 161.416 44.8112 163.354C45.5075 165.291 46.8798 166.833 48.6759 167.69C50.4722 168.547 52.4772 168.62 54.3214 167.893C54.5561 167.801 54.7855 167.696 55.0084 167.58C55.9755 167.077 56.8262 166.357 57.4973 165.468C57.5388 165.414 57.5895 165.371 57.6455 165.343C57.7927 165.266 57.9755 165.28 58.113 165.395C58.3023 165.554 58.3349 165.843 58.1843 166.042C57.4333 167.036 56.4814 167.842 55.3999 168.405C55.1501 168.535 54.8937 168.652 54.6312 168.755C52.5676 169.568 50.3245 169.487 48.3147 168.528C46.3053 167.569 44.7688 165.848 43.991 163.677C43.2122 161.508 43.2834 159.153 44.1922 157.044C44.9828 155.209 46.3256 153.752 48.0215 152.869C48.2733 152.738 48.5332 152.619 48.8001 152.514C52.7951 150.941 57.2415 152.847 59.1046 156.783Z" fill="white"/>
<defs>
<linearGradient id="paint0_linear_1803_3014" x1="119.877" y1="177.37" x2="96.0751" y2="116.095" gradientUnits="userSpaceOnUse">
<stop stop-color="#FEBBBA"/>
<stop offset="1" stop-color="#FF928E"/>
</linearGradient>
<linearGradient id="paint1_linear_1803_3014" x1="120.239" y1="374.465" x2="41.5696" y2="-544.983" gradientUnits="userSpaceOnUse">
<stop stop-color="#FEBBBA"/>
<stop offset="1" stop-color="#FF928E"/>
</linearGradient>
<linearGradient id="paint2_linear_1803_3014" x1="117.411" y1="80.4335" x2="107.322" y2="80.4335" gradientUnits="userSpaceOnUse">
<stop stop-color="#FEBBBA"/>
<stop offset="1" stop-color="#FF928E"/>
</linearGradient>
<linearGradient id="paint3_linear_1803_3014" x1="106.393" y1="57.9225" x2="99.227" y2="57.9225" gradientUnits="userSpaceOnUse">
<stop stop-color="#FEBBBA"/>
<stop offset="1" stop-color="#FF928E"/>
</linearGradient>
<linearGradient id="paint4_linear_1803_3014" x1="64.3511" y1="62.0078" x2="126.324" y2="97.5112" gradientUnits="userSpaceOnUse">
<stop stop-color="#FEBBBA"/>
<stop offset="1" stop-color="#FF928E"/>
</linearGradient>
<linearGradient id="paint5_linear_1803_3014" x1="58.1933" y1="72.7566" x2="120.167" y2="108.26" gradientUnits="userSpaceOnUse">
<stop stop-color="#FEBBBA"/>
<stop offset="1" stop-color="#FF928E"/>
</linearGradient>
<linearGradient id="paint6_linear_1803_3014" x1="94.4579" y1="57.9197" x2="108.383" y2="37.5582" gradientUnits="userSpaceOnUse">
<stop stop-color="#FEBBBA"/>
<stop offset="1" stop-color="#FF928E"/>
</linearGradient>
</defs>
</svg>
