<svg width="220" height="250" viewBox="0 0 220 250" fill="none" xmlns="http://www.w3.org/2000/svg">
<path d="M173.499 87.1488C194.363 87.1488 211.277 70.2349 211.277 49.3707C211.277 28.5065 194.363 11.5927 173.499 11.5927C152.635 11.5927 135.721 28.5065 135.721 49.3707C135.721 70.2349 152.635 87.1488 173.499 87.1488Z" fill="#E0E0E0"/>
<path d="M170.632 87.1488C191.496 87.1488 208.41 70.2349 208.41 49.3707C208.41 28.5065 191.496 11.5927 170.632 11.5927C149.767 11.5927 132.854 28.5065 132.854 49.3707C132.854 70.2349 149.767 87.1488 170.632 87.1488Z" fill="#F5F5F5"/>
<path d="M195.315 74.0574C208.948 60.4238 208.948 38.3193 195.315 24.6857C181.681 11.0521 159.576 11.0521 145.943 24.6857C132.309 38.3194 132.309 60.4238 145.943 74.0574C159.576 87.6911 181.681 87.6911 195.315 74.0574Z" fill="white"/>
<path d="M170.631 51.0634C170.197 51.0634 169.765 50.8984 169.434 50.5676L149.004 30.1379C148.344 29.4771 148.344 28.4055 149.004 27.7447C149.666 27.0832 150.737 27.0832 151.398 27.7447L170.631 46.9767L181.847 35.7616C182.508 35.1001 183.579 35.1001 184.241 35.7616C184.902 36.4225 184.902 37.494 184.241 38.1548L171.828 50.5676C171.497 50.8984 171.065 51.0634 170.631 51.0634Z" fill="#EBEBEB"/>
<path opacity="0.2" d="M108.836 181.174C108.836 181.174 55.874 212.44 55.874 242.066H161.797C161.797 212.44 108.836 181.174 108.836 181.174Z" fill="#407BFF"/>
<path opacity="0.2" d="M108.836 218.481C108.836 218.481 59.936 230.591 59.936 242.066H157.737C157.737 230.591 108.836 218.481 108.836 218.481Z" fill="#407BFF"/>
<path opacity="0.3" d="M115.266 189.81C125.205 199.584 144.536 221.256 144.536 242.066H131.286C131.286 221.255 120.703 199.584 115.266 189.81Z" fill="white"/>
<path opacity="0.2" d="M108.836 181.174C108.836 181.174 55.874 149.907 55.874 120.281H161.797C161.797 149.907 108.836 181.174 108.836 181.174Z" fill="#407BFF"/>
<path opacity="0.2" d="M108.837 178.317C108.837 178.317 81.7959 165.33 81.7959 153.024H135.877C135.877 165.33 108.837 178.317 108.837 178.317Z" fill="#407BFF"/>
<path opacity="0.3" d="M103.062 172.538C93.1216 162.763 73.7915 141.092 73.7915 120.282H87.0417C87.0417 141.092 97.6248 162.763 103.062 172.538Z" fill="white"/>
<path opacity="0.3" d="M115.266 172.538C125.205 162.763 144.052 138.585 144.536 120.282H141.001C139.345 142.596 123.132 163.08 115.266 172.538Z" fill="white"/>
<path d="M154.615 109.826H148.609V110.547H154.615V109.826Z" fill="#39A7EA"/>
<path d="M174.991 119.727H174.271C174.271 114.665 170.152 110.547 165.091 110.547H158.758V109.826H165.091C170.55 109.826 174.991 114.267 174.991 119.727Z" fill="#39A7EA"/>
<path d="M165.091 128.215H52.5826C48.5248 128.215 45.2041 124.895 45.2041 120.837V119.726C45.2041 115.668 48.524 112.348 52.5826 112.348H165.092C169.15 112.348 172.47 115.667 172.47 119.726V120.837C172.47 124.895 169.15 128.215 165.091 128.215Z" fill="#A0D2F4"/>
<path d="M165.091 234.132H52.5826C48.5248 234.132 45.2041 237.452 45.2041 241.511V242.621C45.2041 246.679 48.524 250 52.5826 250H165.092C169.15 250 172.47 246.68 172.47 242.621V241.511C172.47 237.452 169.15 234.132 165.091 234.132Z" fill="#A0D2F4"/>
<path d="M15.9686 169.492L11.0835 165.156L19.4103 152.36L24.2947 156.697L15.9686 169.492Z" fill="#FF8B7B"/>
<path d="M12.091 162.404L18.305 166.714C18.5313 166.871 18.5925 167.147 18.4534 167.377L15.3439 172.502C15.0211 173.034 14.2082 173.185 13.6937 172.814C11.5563 171.277 10.7326 170.531 8.14271 168.444C6.5494 167.16 2.75459 164.071 0.794484 162.036C-1.1231 160.046 0.902578 158.119 1.91506 158.808C4.31186 160.437 8.49005 162.226 10.9027 162.083C11.338 162.057 11.7603 162.174 12.091 162.404Z" fill="#39A7EA"/>
<path opacity="0.2" d="M24.2939 156.702L19.4066 152.363L15.3999 158.526L20.4068 162.68L24.2939 156.702Z" fill="black"/>
<path d="M73.9983 92.8036C73.9983 92.8036 41.2119 90.566 37.1454 101.677C27.9019 126.937 15.8711 153.741 15.8711 153.741L25.5635 160.735C25.5635 160.735 45.9983 129.501 52.2072 109.444C64.8182 112.504 87.6181 115.125 94.9649 106.694C101.231 99.5032 96.5409 92.8043 96.5409 92.8043L73.9983 92.8036Z" fill="#39A7EA"/>
<path opacity="0.3" d="M45.9138 112.444C45.1514 115.523 43.9933 124.362 43.2734 130.222C44.8617 127.137 46.3801 124.009 47.7428 120.952L45.9138 112.444Z" fill="black"/>
<path d="M24.9199 163.9L13.9541 155.309L16.196 150.498L28.4531 159.859L24.9199 163.9Z" fill="#A0D2F4"/>
<path d="M9.46195 162.008C9.97288 162.362 10.6113 162.649 11.0733 162.832C11.1309 162.855 11.1965 162.842 11.2405 162.799C11.2851 162.755 11.2988 162.69 11.2779 162.632C11.1864 162.387 10.3627 160.23 9.50375 160.027C9.30485 159.98 9.11316 160.034 8.9503 160.184C8.68151 160.432 8.5727 160.705 8.62675 160.996C8.69521 161.365 9.03318 161.711 9.46195 162.008ZM10.8484 162.4C9.72209 161.91 9.01517 161.374 8.93446 160.938C8.90131 160.757 8.97553 160.586 9.16217 160.414C9.24865 160.335 9.33367 160.309 9.43024 160.332C9.89288 160.442 10.4903 161.546 10.8484 162.4Z" fill="#407BFF"/>
<path d="M11.0417 162.815C11.0619 162.829 11.0857 162.838 11.1109 162.842C11.1642 162.849 11.2175 162.828 11.2521 162.786C11.304 162.723 12.532 161.218 12.3468 160.293C12.297 160.044 12.1543 159.856 11.9252 159.734C11.6492 159.588 11.3869 159.611 11.1873 159.799C10.641 160.314 10.6648 162.041 10.9884 162.751C11.0006 162.778 11.0186 162.799 11.0417 162.815ZM11.8409 160.049C11.9482 160.123 12.0131 160.223 12.039 160.354C12.15 160.906 11.5634 161.849 11.1837 162.363C10.9848 161.623 11.0439 160.366 11.402 160.028C11.4698 159.963 11.575 159.903 11.7782 160.011C11.8012 160.023 11.8221 160.036 11.8409 160.049Z" fill="#407BFF"/>
<path d="M59.0478 177.054L52.7409 178.316L51.5742 161.428L57.982 161.631L59.0478 177.054Z" fill="#FF8B7B"/>
<path d="M51.884 176.008L59.0723 172.971C59.3339 172.861 59.6077 172.959 59.7316 173.207L62.4823 178.748C62.7677 179.322 62.4498 180.115 61.8431 180.359C59.3223 181.373 58.0648 181.731 54.9034 183.066C52.9585 183.888 47.7174 186.269 44.8875 186.97C42.1195 187.655 41.4443 184.851 42.5814 184.302C45.2744 183.001 49.7409 179.049 50.9479 176.867C51.1663 176.473 51.5014 176.17 51.884 176.008Z" fill="#39A7EA"/>
<path d="M50.0871 178.081C50.678 177.831 51.2805 177.433 51.6956 177.132C51.7474 177.094 51.7719 177.03 51.759 176.967C51.7453 176.905 51.6963 176.856 51.6343 176.843C51.3698 176.787 49.0357 176.314 48.3836 176.951C48.2322 177.098 48.1739 177.294 48.2149 177.519C48.2819 177.89 48.4599 178.136 48.7432 178.249C49.1035 178.394 49.5913 178.29 50.0871 178.081ZM51.194 177.088C50.1455 177.8 49.2879 178.12 48.8635 177.95C48.6877 177.879 48.5796 177.72 48.5327 177.462C48.5111 177.343 48.5356 177.254 48.6091 177.183C48.9601 176.84 50.2521 176.929 51.194 177.088Z" fill="#407BFF"/>
<path d="M51.6635 177.15C51.6866 177.14 51.7082 177.125 51.7248 177.104C51.7601 177.062 51.7716 177.003 51.7543 176.95C51.7276 176.869 51.0942 174.968 50.1855 174.619C49.9405 174.524 49.6984 174.545 49.4656 174.678C49.186 174.838 49.0613 175.079 49.1154 175.358C49.2624 176.118 50.7807 177.05 51.5785 177.161C51.608 177.165 51.6368 177.161 51.6635 177.15ZM49.6933 174.925C49.8173 174.873 49.9405 174.871 50.0688 174.921C50.6107 175.129 51.1086 176.16 51.3472 176.776C50.5927 176.541 49.529 175.794 49.4324 175.296C49.4137 175.2 49.4195 175.076 49.6249 174.958C49.6486 174.946 49.671 174.935 49.6933 174.925Z" fill="#407BFF"/>
<path opacity="0.2" d="M57.9837 161.635L51.5723 161.432L52.1855 170.251L58.5739 170.135L57.9837 161.635Z" fill="black"/>
<path d="M89.929 92.8035C89.929 92.8035 43.0681 97.2339 44.7745 111.339C47.2354 131.683 49.0384 167.301 49.0384 167.301L60.9814 167.77C60.9814 167.77 65.4579 136.451 62.8392 115.619C74.9666 115.619 101.309 116.257 105.944 109.993C111.447 102.556 108.899 92.8035 108.899 92.8035H89.929Z" fill="#39A7EA"/>
<path d="M62.3004 168.505L47.9664 167.794L47.4512 161.556L63.1702 162.641L62.3004 168.505Z" fill="#A0D2F4"/>
<path d="M79.5253 51.5049C79.4222 52.7941 79.312 53.942 79.1542 55.1462C79.0043 56.336 78.8385 57.5221 78.6576 58.7075C78.306 61.0806 77.8354 63.4406 77.3021 65.81C76.7393 68.1737 76.1124 70.546 75.288 72.9255C74.4477 75.3028 73.5044 77.7003 72.0236 80.1368C71.2676 81.3517 70.3885 82.5927 69.1194 83.8004C68.7793 84.1247 68.4882 84.3517 68.1934 84.5838C67.8965 84.828 67.5989 85.032 67.3006 85.2431C66.7053 85.6618 66.1058 86.0322 65.504 86.3615C63.1022 87.6882 60.7191 88.5911 58.3324 89.2974C57.1433 89.6584 55.9507 89.9589 54.7595 90.2219C53.5705 90.4914 52.38 90.7192 51.1874 90.9058C48.792 91.2906 46.4528 91.5443 43.976 91.6271C42.6141 91.6725 41.4726 90.6053 41.4272 89.2433C41.3897 88.1249 42.1031 87.1549 43.1135 86.8191L43.21 86.7874C47.4221 85.3901 51.7379 83.8761 55.6207 82.0601C57.557 81.1456 59.4133 80.1533 60.9418 79.0479C61.3223 78.7712 61.6797 78.4909 62.0047 78.2134C62.1647 78.0729 62.3333 77.936 62.4673 77.7947C62.6136 77.6535 62.7642 77.5087 62.8327 77.4243C63.2052 77.0021 63.6506 76.3247 64.052 75.5442C64.867 73.9653 65.5768 72.0182 66.1512 70.0033C66.7334 67.9813 67.2386 65.8684 67.658 63.7188C68.1041 61.5735 68.4514 59.3849 68.8045 57.1921C69.1454 55.0179 69.4228 52.7364 69.6707 50.6452L69.6844 50.5277C70.0065 47.8153 72.466 45.8783 75.1777 46.1997C77.8253 46.5131 79.7328 48.8725 79.5253 51.5049Z" fill="#A0D2F4"/>
<path d="M44.1408 85.5374L40.5298 85.7658L43.4145 92.3963C43.4145 92.3963 49.6493 92.2543 49.5203 89.1844L48.394 87.7173C47.4291 86.459 45.8581 85.6541 44.1408 85.5374Z" fill="#FF8B7B"/>
<path d="M36.5918 86.2979L39.7071 92.3959H43.4147L40.53 85.7654L36.5918 86.2979Z" fill="#FF8B7B"/>
<path d="M79.0078 41.2866L85.9792 39.8591L91.523 39.0563C92.3171 38.941 93.1228 38.8783 93.9219 38.9511C98.2306 39.3417 101.933 42.3524 103.107 46.6185C104.494 51.6593 105.75 57.8495 106.714 63.3356C108.054 70.9519 108.752 82.3983 108.899 92.8027H75.8594C75.1676 73.9619 71.1328 61.8079 69.7708 54.2874C68.9241 49.6135 71.3137 44.9525 75.6014 42.9095L79.0078 41.2866Z" fill="#A0D2F4"/>
<path d="M75.8589 45.4298C75.9374 48.5285 76.5651 59.5792 79.8987 65.8552C80.4868 59.9713 87.4689 42.0565 87.4689 42.0565L75.8589 45.4298Z" fill="#F5F5F5"/>
<path opacity="0.3" d="M107.463 68.5048C107.464 68.5055 107.465 68.5062 107.466 68.5077C107.452 68.3902 107.437 68.2778 107.423 68.1618C107.401 67.9845 107.379 67.8123 107.356 67.6372C107.32 67.3583 107.284 67.0816 107.247 66.8085C107.212 66.549 107.178 66.291 107.141 66.0374C107.105 65.7852 107.068 65.5394 107.031 65.293C107 65.089 106.971 64.8822 106.939 64.6833C106.867 64.2243 106.793 63.7746 106.718 63.3401C106.48 61.9896 106.223 60.5952 105.953 59.1878C105.946 59.1482 105.938 59.1086 105.931 59.0689C105.659 57.6608 105.374 56.2405 105.075 54.831C105.068 54.8 105.061 54.769 105.055 54.7373C104.927 54.137 104.797 53.541 104.664 52.9487C104.614 52.7253 104.564 52.5048 104.513 52.2828C104.426 51.8987 104.338 51.5182 104.249 51.1399C104.178 50.8394 104.108 50.5403 104.036 50.2434C104.021 50.1829 104.007 50.1202 103.992 50.0597H103.991C103.703 48.8735 103.409 47.7162 103.106 46.6194L98.0976 43.9819C98.6734 46.1971 99.2239 48.6264 99.7435 51.1219C99.1202 51.4476 98.5869 51.8389 98.0998 52.2943C96.905 53.3645 96.9439 55.6359 98.1408 58.3202C101.547 65.961 103.228 74.2684 103.592 82.6262C103.739 86.021 103.834 89.4591 103.878 92.7964L108.901 92.8036C108.78 84.5445 108.318 75.639 107.463 68.5048Z" fill="#42B3FF"/>
<path d="M83.3812 27.3995L80.5549 31.7132L76.7089 37.5928C76.9727 37.7304 77.56 38.6528 77.898 39.3331C78.6006 40.7491 79.1814 41.8084 76.2088 43.8348C75.5725 44.2687 75.5502 44.9561 75.6943 45.7128C75.8694 46.6309 76.4077 47.5958 79.6167 47.0286C83.3329 46.3729 85.8206 44.4085 87.6697 42.5586C88.7384 41.4899 88.4934 40.685 87.4636 39.5781C84.5458 36.4434 83.6731 31.4372 83.3812 27.3995Z" fill="#FF8B7B"/>
<path d="M76.5786 47.1367L78.623 48.4179L81.9365 47.012C81.1294 46.2856 80.2372 45.6745 79.0179 45.5081C78.0501 45.7877 77.2863 46.4153 76.5786 47.1367Z" fill="black"/>
<path d="M79.0176 45.5082C80.5374 46.1358 81.3027 47.5475 81.9909 49.1805C81.9909 49.1805 89.2793 43.6547 89.4321 40.017C89.0401 38.7811 87.2161 38.9973 87.2161 38.9973C87.2161 38.9973 84.9988 42.8404 79.0176 45.5082Z" fill="white"/>
<path d="M79.0168 45.5082C77.497 46.1358 76.7072 47.487 76.7072 49.1214C76.7072 49.1214 73.4665 45.315 76.1047 42.4419C76.7072 42.0103 78.3646 41.593 78.3646 41.593C78.3646 41.593 77.5748 43.1741 79.0168 45.5082Z" fill="white"/>
<path d="M79.2598 47.8207C79.2598 47.8207 78.7021 47.8207 78.3281 47.8207C78.0319 48.3431 77.6082 55.0997 77.4453 58.6935C77.9325 60.8683 78.568 62.9934 79.3939 64.8145C79.4076 64.8354 79.4148 64.8642 79.4292 64.8851C79.4782 64.9982 79.5279 65.1114 79.5841 65.2166C79.6828 65.4356 79.7888 65.6475 79.9019 65.8522C80.0569 64.3129 80.6507 61.9334 81.4484 59.2721C80.4741 55.1069 79.2598 47.8207 79.2598 47.8207Z" fill="black"/>
<path opacity="0.2" d="M77.6549 36.148L80.015 31.9583C80.0632 32.0627 80.1195 32.1831 80.1757 32.3034C80.3601 32.7531 80.5446 33.3145 80.6815 33.909C81.1154 35.7711 79.6698 38.428 78.0808 39.6963C78.0167 39.576 77.9605 39.4556 77.8963 39.3353C77.5994 38.7249 77.0935 37.9229 76.8046 37.6656C76.7729 37.6332 76.7404 37.6094 76.708 37.5935L77.6549 36.148Z" fill="black"/>
<path d="M66.1386 27.1436C65.5678 24.5796 69.6387 21.0464 69.6387 21.0464L64.8177 19.3616C62.6435 20.939 64.0552 25.4026 66.1386 27.1436Z" fill="#263238"/>
<path d="M82.3844 19.7631C83.5201 26.1572 84.5052 29.8309 82.1394 33.9342C78.5802 40.1056 70.1979 39.3662 67.1972 33.5039C64.4963 28.2268 63.0932 18.6569 68.5851 14.4578C73.9949 10.3207 81.2487 13.369 82.3844 19.7631Z" fill="#FF8B7B"/>
<path d="M82.4705 26.2336L79.4468 25.4049V21.5099C79.4468 21.5099 75.6188 19.3177 76.2155 16.6457C76.4785 14.8441 77.4456 12.1814 77.4456 12.1814C77.4456 12.1814 83.5118 11.7915 85.3538 12.5669C85.0338 13.0224 83.7929 14.0233 83.7929 14.0233C83.7929 14.0233 86.1825 15.6245 87.4688 17.7864C86.5536 17.8664 85.3927 18.7874 85.3927 18.7874C85.3927 18.7874 86.194 24.112 82.4705 26.2336Z" fill="#263238"/>
<path d="M75.5068 8.03033C77.7329 9.42402 76.4422 11.9916 76.4422 11.9916L82.404 12.1192C82.0869 10.2347 76.9207 7.93304 75.5068 8.03033Z" fill="#263238"/>
<path d="M77.8311 17.9565C77.4074 19.1585 72.5813 20.625 68.179 20.7691C65.2165 20.8664 61.7518 19.5621 61.7518 19.5621C61.7518 19.5621 62.53 18.6872 63.936 18.0264C61.274 17.3656 57.9058 15.0301 56.9819 13.1341C59.3867 12.2801 61.2034 12.4142 62.9754 12.7118C60.7234 10.7899 60.6932 8.23816 60.6932 8.23816C60.6932 8.23816 71.9594 12.7082 76.2976 10.8547C81.0156 8.83916 84.5949 12.6196 81.4962 15.5049C78.3968 18.3903 77.8311 17.9565 77.8311 17.9565Z" fill="#263238"/>
<path d="M85.8284 24.3953C85.8976 25.9302 85.3189 27.3599 84.5392 28.2859C83.3653 29.6789 81.5558 28.5677 81.1364 26.8296C80.7595 25.2651 81.2481 22.8495 82.7845 22.1008C84.2985 21.3651 85.7491 22.6406 85.8284 24.3953Z" fill="#FF8B7B"/>
<path d="M72.635 25.6799C72.7993 26.1801 72.6703 26.6823 72.3475 26.8005C72.0246 26.9187 71.6297 26.6096 71.4654 26.1087C71.3011 25.6086 71.4301 25.1063 71.753 24.9881C72.0758 24.87 72.4707 25.1798 72.635 25.6799Z" fill="#263238"/>
<path d="M67.0491 27.7295C67.2134 28.2296 67.0844 28.7319 66.7615 28.8501C66.4387 28.9683 66.0438 28.6591 65.8795 28.1583C65.7152 27.6582 65.8442 27.1559 66.167 27.0377C66.4899 26.9195 66.8848 27.2294 67.0491 27.7295Z" fill="#263238"/>
<path d="M68.9588 27.4648C68.9588 27.4648 68.997 30.2774 68.4399 31.8909C69.4416 32.2548 70.5463 31.393 70.5463 31.393L68.9588 27.4648Z" fill="#A02724"/>
<path d="M72.3786 33.3164C74.338 32.6383 75.0111 31.0378 75.0413 30.9636C75.0738 30.885 75.0356 30.795 74.957 30.7625C74.8778 30.7301 74.7877 30.7683 74.756 30.8476C74.748 30.8656 73.9842 32.6895 71.7229 33.1802C71.6385 33.1982 71.5866 33.2804 71.6054 33.364C71.6234 33.4476 71.7056 33.5002 71.7891 33.4814C71.9967 33.436 72.1927 33.3806 72.3786 33.3164Z" fill="#263238"/>
<path d="M73.8751 22.7565C73.9198 22.7327 73.9587 22.6974 73.9882 22.6513C74.0805 22.5079 74.0387 22.3162 73.8953 22.224C72.4735 21.3109 71.172 21.9127 71.118 21.9393C70.9659 21.9941 70.8982 22.1966 70.9717 22.3508C71.0452 22.505 71.2289 22.5699 71.3832 22.4971C71.4372 22.4726 72.4446 22.0265 73.5609 22.7435C73.6596 22.8077 73.78 22.8084 73.8751 22.7565Z" fill="#263238"/>
<path d="M65.9435 24.697C65.9492 24.6465 65.9427 24.5939 65.9218 24.5442C65.8563 24.3864 65.6754 24.3114 65.5176 24.377C63.9574 25.0249 63.7102 26.4373 63.7009 26.4971C63.6591 26.6535 63.7866 26.8243 63.956 26.8516C64.1246 26.879 64.2831 26.7652 64.3105 26.5973C64.3213 26.5389 64.5289 25.4565 65.7547 24.9485C65.862 24.9031 65.9305 24.8051 65.9435 24.697Z" fill="#263238"/>
<path d="M101.568 43.5145C102.363 44.4924 103.057 45.3758 103.762 46.3249C104.464 47.2581 105.144 48.2057 105.811 49.1649C107.153 51.0753 108.414 53.0519 109.638 55.0733C110.832 57.1177 111.998 59.196 113.026 61.4184C114.048 63.6408 115.003 65.9591 115.654 68.6124C115.968 69.947 116.21 71.3847 116.217 73.0262C116.205 74.6462 115.947 76.0709 115.579 77.4163C114.83 80.0869 113.728 82.3879 112.469 84.508C111.848 85.5723 111.178 86.5862 110.479 87.5663C109.787 88.5492 109.061 89.4961 108.304 90.4099C106.786 92.2532 105.221 93.9388 103.412 95.5854C102.405 96.5028 100.844 96.4285 99.927 95.4211C99.179 94.5989 99.0904 93.4098 99.6294 92.5019L99.6935 92.3952C101.877 88.7243 104.036 84.8423 105.554 81.0497C106.307 79.153 106.913 77.2541 107.162 75.5355C107.28 74.688 107.331 73.8672 107.261 73.2381C107.204 72.6313 107.037 71.8408 106.766 71.0056C106.22 69.3193 105.399 67.4817 104.428 65.6766C103.468 63.8635 102.384 62.041 101.234 60.2474C100.094 58.4415 98.8735 56.6644 97.6354 54.8917L95.7445 52.2549C95.1118 51.3967 94.4495 50.4851 93.8485 49.6996L93.8046 49.6419C92.145 47.4721 92.5593 44.3684 94.7284 42.7088C96.855 41.0795 99.8867 41.452 101.568 43.5145Z" fill="#A0D2F4"/>
<path d="M32.9127 96.6736L94.2221 93.8985C95.0271 93.8618 95.7153 94.4901 95.752 95.2958L31.5147 98.2035C31.4786 97.3979 32.1077 96.7104 32.9127 96.6736Z" fill="#407BFF"/>
<g opacity="0.6">
<path d="M32.9127 96.6736L94.2221 93.8985C95.0271 93.8618 95.7153 94.4901 95.752 95.2958L31.5147 98.2035C31.4786 97.3979 32.1077 96.7104 32.9127 96.6736Z" fill="white"/>
</g>
<path d="M23.1522 68.2265L66.7711 66.252C67.3043 66.2282 67.8722 66.6353 68.0379 67.1628L76.4116 93.7366C76.5773 94.2634 76.2797 94.7109 75.7465 94.7347L32.1276 96.7092C31.5937 96.7337 31.0265 96.3258 30.8608 95.7983L22.4871 69.2245C22.3206 68.6978 22.6183 68.251 23.1522 68.2265Z" fill="#407BFF"/>
<path opacity="0.6" d="M23.1522 68.2265L66.7711 66.252C67.3043 66.2282 67.8722 66.6353 68.0379 67.1628L76.4116 93.7366C76.5773 94.2634 76.2797 94.7109 75.7465 94.7347L32.1276 96.7092C31.5937 96.7337 31.0265 96.3258 30.8608 95.7983L22.4871 69.2245C22.3206 68.6978 22.6183 68.251 23.1522 68.2265Z" fill="white"/>
<path opacity="0.5" d="M68.0369 67.1626L76.4106 93.7364C76.5763 94.2639 76.2787 94.7107 75.7454 94.7345L66.77 66.2518C67.3033 66.2273 67.8711 66.6351 68.0369 67.1626Z" fill="#407BFF"/>
<path opacity="0.5" d="M78.0995 94.6285L94.2221 93.8985C95.027 93.8618 95.7152 94.4901 95.752 95.2958L76.7022 96.1577C76.6655 95.3527 77.2946 94.6645 78.0995 94.6285Z" fill="#407BFF"/>
<path d="M98.4667 92.2099L94.3433 92.8138L98.5661 98.6825C98.5661 98.6825 105.272 97.6074 104.497 94.6348L103.086 93.44C101.875 92.4145 100.17 91.9605 98.4667 92.2099Z" fill="#FF8B7B"/>
<path d="M89.2993 94.5677L94.4676 99.076L98.5659 98.6825L94.343 92.8137L89.2993 94.5677Z" fill="#FF8B7B"/>
</svg>
