<svg width="113" height="129" viewBox="0 0 113 129" fill="none" xmlns="http://www.w3.org/2000/svg">
<path d="M81.0877 21.295C74.4897 13.6531 67.0649 6.77084 58.9504 0.774927C58.2322 0.270547 57.3767 0 56.5 0C55.6233 0 54.7678 0.270547 54.0497 0.774927C45.9351 6.77084 38.5103 13.6531 31.9123 21.295C17.2501 38.2077 9.5 56.0377 9.5 72.8572C9.5 85.3602 14.4518 97.3512 23.266 106.192C32.0802 115.033 44.0348 120 56.5 120C68.9652 120 80.9198 115.033 89.734 106.192C98.5482 97.3512 103.5 85.3602 103.5 72.8572C103.5 56.0377 95.75 38.2077 81.0877 21.295ZM85.9884 77.891C84.9506 84.0118 82.0402 89.6572 77.6605 94.0446C73.2809 98.4321 67.649 101.344 61.5454 102.378C60.4279 102.566 59.2815 102.302 58.3584 101.643C57.4353 100.983 56.8111 99.9832 56.6231 98.8623C56.4351 97.7414 56.6987 96.5915 57.356 95.6656C58.0133 94.7397 59.0103 94.1136 60.1278 93.925C64.4815 93.188 68.4987 91.1107 71.6227 87.9811C74.7467 84.8515 76.8227 80.8246 77.563 76.4586C77.7523 75.3379 78.3778 74.3386 79.3017 73.6805C80.2257 73.0223 81.3724 72.7593 82.4897 72.9493C83.607 73.1392 84.6033 73.7666 85.2595 74.6933C85.9156 75.6201 86.1778 76.7703 85.9884 77.891Z" fill="url(#paint0_linear_1760_5314)"/>
<path d="M3.04162 73C1.63791 73 0.493978 74.1388 0.557622 75.541C1.18972 89.4687 7.00044 102.696 16.902 112.598C27.4041 123.1 41.6479 129 56.5 129C71.3521 129 85.5959 123.1 96.098 112.598C106 102.696 111.81 89.4687 112.442 75.541C112.506 74.1388 111.362 73 109.958 73C108.555 73 107.423 74.1387 107.353 75.5407C106.725 88.1196 101.452 100.055 92.5036 109.004C82.9548 118.552 70.004 123.917 56.5 123.917C42.996 123.917 30.0451 118.552 20.4964 109.004C11.5482 100.055 6.27455 88.1195 5.64659 75.5406C5.5766 74.1387 4.44531 73 3.04162 73Z" fill="url(#paint1_linear_1760_5314)"/>
<defs>
<linearGradient id="paint0_linear_1760_5314" x1="56.5" y1="0" x2="56.5" y2="120" gradientUnits="userSpaceOnUse">
<stop stop-color="#BEECFF"/>
<stop offset="1" stop-color="#9BE1FF"/>
</linearGradient>
<linearGradient id="paint1_linear_1760_5314" x1="56.5" y1="129" x2="56.5" y2="17" gradientUnits="userSpaceOnUse">
<stop stop-color="#BEECFF"/>
<stop offset="1" stop-color="#9BE1FF"/>
</linearGradient>
</defs>
</svg>
