<svg width="17" height="26" viewBox="0 0 17 26" fill="none" xmlns="http://www.w3.org/2000/svg">
<path d="M16.75 14.2391C16.75 13.835 16.51 13.4653 16.1283 13.2657V9.72223C16.51 9.52264 16.75 9.15295 16.75 8.74902C16.75 8.34363 16.5088 7.97302 16.1251 7.77399C16.0579 6.57629 14.9598 5.62085 13.6196 5.62085H11.4845C10.8733 5.62085 10.3758 5.17096 10.3758 4.6178V3.87274C10.4904 3.87274 10.5831 3.78888 10.5831 3.68524V1.5625C10.5831 1.25232 10.3042 1 9.96138 1H7.78842C7.44559 1 7.16671 1.25232 7.16671 1.5625V3.68524C7.16671 3.78888 7.2594 3.87274 7.37395 3.87274V4.6178C7.37395 5.17096 6.8767 5.62085 6.26531 5.62085H4.13021C2.79025 5.62085 1.69234 6.57629 1.62495 7.77399C1.24144 7.97284 1 8.34363 1 8.74902C1 9.15314 1.24002 9.52264 1.62171 9.72223V13.2657C1.24002 13.4653 1 13.835 1 14.2391C1 14.6432 1.24002 15.0129 1.62171 15.2125V21.5071C1.24002 21.7065 1 22.0762 1 22.4805C1 22.886 1.24184 23.257 1.62616 23.4561C1.69295 24.3176 2.48891 25 3.4579 25H14.2923C15.2613 25 16.0571 24.3176 16.1238 23.4561C16.508 23.257 16.75 22.886 16.75 22.4805C16.75 22.0762 16.51 21.7065 16.1283 21.5071V15.2125C16.51 15.0129 16.75 14.6432 16.75 14.2391ZM7.58119 1.5625C7.58119 1.45905 7.67408 1.375 7.78842 1.375H9.96138C10.0755 1.375 10.1686 1.45905 10.1686 1.5625V3.49774H7.58119V1.5625ZM15.8659 14.91H6.43167V15.285H15.7138V21.4346H11.8844V21.8096H15.866C16.1509 21.9348 16.3355 22.193 16.3355 22.4805C16.3355 22.7776 16.14 23.0472 15.8381 23.1669C15.7624 23.1968 15.7138 23.2642 15.7138 23.3387C15.7138 24.048 15.0763 24.625 14.2923 24.625H3.4579C2.74484 24.625 2.15845 24.1462 2.05713 23.5262H5.70899V23.1512H1.88425C1.5993 23.0258 1.41447 22.7677 1.41447 22.4805C1.41447 22.1829 1.60977 21.9134 1.91192 21.7938C1.98741 21.764 2.03618 21.6966 2.03618 21.6221V15.285H6.43167L6.52632 15L6.43167 14.91H1.88425C1.5993 14.7846 1.41447 14.5263 1.41447 14.2391C1.41447 13.9417 1.60977 13.6722 1.91213 13.5524C1.98741 13.5226 2.03618 13.4552 2.03618 13.3807V9.79474H8.2029V9.41974H1.88425C1.5993 9.29438 1.41447 9.03629 1.41447 8.74902C1.41447 8.46159 1.5993 8.20335 1.88405 8.07812H5.88284V7.70312H2.05713C2.16292 6.74731 3.04659 5.99585 4.13021 5.99585H6.26531C7.10519 5.99585 7.78842 5.37769 7.78842 4.6178V3.87274H9.96138V4.6178C9.96138 5.37769 10.6446 5.99585 11.4845 5.99585H13.6196C14.7744 5.99585 15.7138 6.84583 15.7138 7.89062C15.7138 7.96515 15.7624 8.03253 15.8381 8.06238C16.1404 8.18195 16.3355 8.45148 16.3355 8.74902C16.3355 9.03611 16.1506 9.29436 15.8659 9.41974H8.2029V9.79474H15.7138V13.1932H11.6096V13.5682H15.8659C16.1506 13.6936 16.3355 13.9518 16.3355 14.2391C16.3355 14.5263 16.1506 14.7846 15.8659 14.91Z" fill="#808080"/>
<path d="M6.43167 14.91H15.8659C16.1506 14.7846 16.3355 14.5263 16.3355 14.2391C16.3355 13.9518 16.1506 13.6936 15.8659 13.5682H11.6096V13.1932H15.7138V9.79474H8.2029M6.43167 14.91V15.285M6.43167 14.91H1.88425C1.5993 14.7846 1.41447 14.5263 1.41447 14.2391C1.41447 13.9417 1.60977 13.6722 1.91213 13.5524C1.98741 13.5226 2.03618 13.4552 2.03618 13.3807V9.79474H8.2029M6.43167 14.91L6.52632 15L6.43167 15.285M6.43167 15.285H15.7138V21.4346H11.8844V21.8096H15.866C16.1509 21.9348 16.3355 22.193 16.3355 22.4805C16.3355 22.7776 16.14 23.0472 15.8381 23.1669C15.7624 23.1968 15.7138 23.2642 15.7138 23.3387C15.7138 24.048 15.0763 24.625 14.2923 24.625H3.4579C2.74484 24.625 2.15845 24.1462 2.05713 23.5262H5.70899V23.1512H1.88425C1.5993 23.0258 1.41447 22.7677 1.41447 22.4805C1.41447 22.1829 1.60977 21.9134 1.91192 21.7938C1.98741 21.764 2.03618 21.6966 2.03618 21.6221V15.285H6.43167ZM8.2029 9.79474V9.41974M8.2029 9.41974H1.88425C1.5993 9.29438 1.41447 9.03629 1.41447 8.74902C1.41447 8.46159 1.5993 8.20335 1.88405 8.07812H5.88284V7.70312H2.05713C2.16292 6.74731 3.04659 5.99585 4.13021 5.99585H6.26531C7.10519 5.99585 7.78842 5.37769 7.78842 4.6178V3.87274H9.96138V4.6178C9.96138 5.37769 10.6446 5.99585 11.4845 5.99585H13.6196C14.7744 5.99585 15.7138 6.84583 15.7138 7.89062C15.7138 7.96515 15.7624 8.03253 15.8381 8.06238C16.1404 8.18195 16.3355 8.45148 16.3355 8.74902C16.3355 9.03611 16.1506 9.29436 15.8659 9.41974H8.2029ZM16.75 14.2391C16.75 13.835 16.51 13.4653 16.1283 13.2657V9.72223C16.51 9.52264 16.75 9.15295 16.75 8.74902C16.75 8.34363 16.5088 7.97302 16.1251 7.77399C16.0579 6.57629 14.9597 5.62085 13.6196 5.62085H11.4845C10.8733 5.62085 10.3758 5.17096 10.3758 4.6178V3.87274C10.4904 3.87274 10.5831 3.78888 10.5831 3.68524V1.5625C10.5831 1.25232 10.3042 1 9.96138 1H7.78842C7.44559 1 7.16671 1.25232 7.16671 1.5625V3.68524C7.16671 3.78888 7.2594 3.87274 7.37395 3.87274V4.6178C7.37395 5.17096 6.8767 5.62085 6.26531 5.62085H4.13021C2.79025 5.62085 1.69234 6.57629 1.62495 7.77399C1.24144 7.97284 1 8.34363 1 8.74902C1 9.15314 1.24002 9.52264 1.62171 9.72223V13.2657C1.24002 13.4653 1 13.835 1 14.2391C1 14.6432 1.24002 15.0129 1.62171 15.2125V21.5071C1.24002 21.7065 1 22.0762 1 22.4805C1 22.886 1.24184 23.257 1.62616 23.4561C1.69295 24.3176 2.48891 25 3.4579 25H14.2923C15.2613 25 16.0571 24.3176 16.1238 23.4561C16.508 23.257 16.75 22.886 16.75 22.4805C16.75 22.0762 16.51 21.7065 16.1283 21.5071V15.2125C16.51 15.0129 16.75 14.6432 16.75 14.2391ZM7.58119 1.5625C7.58119 1.45905 7.67408 1.375 7.78842 1.375H9.96138C10.0755 1.375 10.1686 1.45905 10.1686 1.5625V3.49774H7.58119V1.5625Z" stroke="#808080" stroke-width="0.4"/>
<path d="M15.9826 23.1512H5.64001V23.5262L15.9211 23.5L15.9826 23.1512Z" fill="#808080" stroke="#808080" stroke-width="0.4"/>
</svg>
