<svg width="17" height="26" viewBox="0 0 17 26" fill="none" xmlns="http://www.w3.org/2000/svg">
<path d="M12.385 3.85242H9.49524C8.57019 3.85242 7.81763 4.60498 7.81763 5.53003C7.81763 6.00684 8.20563 6.39465 8.68243 6.39465H13.1978C13.6746 6.39465 14.0626 6.00684 14.0626 5.53003C14.0626 4.60498 13.3101 3.85242 12.385 3.85242ZM13.1978 6.01965H8.68243C8.41235 6.01965 8.19263 5.79993 8.19263 5.53003C8.19263 4.81189 8.77692 4.22742 9.49524 4.22742H12.385C13.1033 4.22742 13.6876 4.81189 13.6876 5.53003C13.6876 5.79993 13.4679 6.01965 13.1978 6.01965Z" fill="#808080" stroke="#808080" stroke-width="0.4"/>
<path d="M15.7469 6.03137C15.7211 5.57288 15.5864 4.30432 14.881 3.12402C14.5837 2.62634 14.0311 2.31689 13.4389 2.31689H8.44141C7.84943 2.31689 7.29663 2.62634 6.99908 3.12402C6.86432 3.34961 6.742 3.59424 6.6347 3.85242H6.43402V3.66492C6.53766 3.66492 6.62152 3.58105 6.62152 3.47742V2.95996C6.62152 2.80725 6.5296 2.67542 6.39813 2.61682L6.27014 1.40283C6.24597 1.17322 6.05353 1 5.82263 1H3.29523C3.06433 1 2.87189 1.17322 2.84772 1.40283L2.71973 2.61719C2.58826 2.67542 2.49652 2.80725 2.49652 2.95996V3.47742C2.49652 3.58105 2.58038 3.66492 2.68402 3.66492V3.86194C2.3418 3.91138 2.04919 4.14795 1.93292 4.48083L1.21954 6.52576C1.07379 6.9436 1 7.38013 1 7.82288V21.2518C1 21.6356 1.10693 22.0114 1.30908 22.338L2.57306 24.3789C2.81421 24.7678 3.23132 25 3.68909 25H14.0609C14.5187 25 14.9358 24.7678 15.1769 24.3789L16.4409 22.338C16.6431 22.0114 16.75 21.6356 16.75 21.2518V7.1875C16.75 6.59937 16.3131 6.11157 15.7469 6.03137ZM2.89185 2.95996H3.42303V2.58496H3.10008L3.22052 1.44238C3.22455 1.40393 3.25677 1.375 3.29523 1.375H3.57391H3.94891H4.37152H4.74652H5.16913H5.54413H5.82263C5.86108 1.375 5.89331 1.40393 5.89734 1.44238L6.01778 2.58496H3.42303V2.95996H6.22601H6.24652V3.28992H2.87152L2.89185 2.95996ZM16.375 21.2518C16.375 21.5657 16.2875 21.8733 16.1219 22.1403L14.858 24.1812C14.686 24.4591 14.3879 24.625 14.0609 24.625H3.68909C3.36206 24.625 3.06396 24.4591 2.89203 24.1812L1.62805 22.1403C1.46252 21.8733 1.375 21.5657 1.375 21.2518V7.82288C1.375 7.42224 1.44183 7.02747 1.57367 6.64954L2.28705 4.60461C2.36578 4.37903 2.5791 4.22742 2.81805 4.22742H2.87152C2.97516 4.22742 3.05902 4.14355 3.05902 4.03992V3.66492H6.05902V4.03992C6.05902 4.14355 6.14288 4.22742 6.24652 4.22742H6.76123C6.8385 4.22742 6.90771 4.18018 6.93591 4.1084C7.04669 3.82495 7.17615 3.55872 7.32098 3.31665C7.55133 2.9314 7.98053 2.69189 8.44141 2.69189H13.4389C13.8998 2.69189 14.329 2.9314 14.5591 3.31665C15.3665 4.6676 15.378 6.19214 15.378 6.20715C15.3782 6.31079 15.462 6.39465 15.5655 6.39465H15.5822C16.0194 6.39465 16.375 6.75024 16.375 7.1875V21.2518Z" fill="#808080"/>
<path d="M3.42303 2.95996H2.89185L2.87152 3.28992H6.24652V2.95996H6.22601H3.42303ZM3.42303 2.95996V2.58496M3.42303 2.58496H3.10008L3.22052 1.44238C3.22455 1.40393 3.25677 1.375 3.29523 1.375H3.57391H3.94891H4.37152H4.74652H5.16913H5.54413H5.82263C5.86108 1.375 5.89331 1.40393 5.89734 1.44238L6.01778 2.58496H3.42303ZM15.7469 6.03137C15.7211 5.57288 15.5864 4.30432 14.881 3.12402C14.5837 2.62634 14.0311 2.31689 13.4389 2.31689H8.44141C7.84943 2.31689 7.29663 2.62634 6.99908 3.12402C6.86432 3.34961 6.742 3.59424 6.6347 3.85242H6.43402V3.66492C6.53766 3.66492 6.62152 3.58105 6.62152 3.47742V2.95996C6.62152 2.80725 6.5296 2.67542 6.39813 2.61682L6.27014 1.40283C6.24597 1.17322 6.05353 1 5.82263 1H3.29523C3.06433 1 2.87189 1.17322 2.84772 1.40283L2.71973 2.61719C2.58826 2.67542 2.49652 2.80725 2.49652 2.95996V3.47742C2.49652 3.58105 2.58038 3.66492 2.68402 3.66492V3.86194C2.3418 3.91138 2.04919 4.14795 1.93292 4.48083L1.21954 6.52576C1.07379 6.9436 1 7.38013 1 7.82288V21.2518C1 21.6356 1.10693 22.0114 1.30908 22.338L2.57306 24.3789C2.81421 24.7678 3.23132 25 3.68909 25H14.0609C14.5187 25 14.9358 24.7678 15.1769 24.3789L16.4409 22.338C16.6431 22.0114 16.75 21.6356 16.75 21.2518V7.1875C16.75 6.59937 16.3131 6.11157 15.7469 6.03137ZM16.375 21.2518C16.375 21.5657 16.2875 21.8733 16.1219 22.1403L14.858 24.1812C14.686 24.4591 14.3879 24.625 14.0609 24.625H3.68909C3.36206 24.625 3.06396 24.4591 2.89203 24.1812L1.62805 22.1403C1.46252 21.8733 1.375 21.5657 1.375 21.2518V7.82288C1.375 7.42224 1.44183 7.02747 1.57367 6.64954L2.28705 4.60461C2.36578 4.37903 2.5791 4.22742 2.81805 4.22742H2.87152C2.97516 4.22742 3.05902 4.14355 3.05902 4.03992V3.66492H6.05902V4.03992C6.05902 4.14355 6.14288 4.22742 6.24652 4.22742H6.76123C6.8385 4.22742 6.90771 4.18018 6.93591 4.1084C7.04669 3.82495 7.17615 3.55872 7.32098 3.31665C7.55133 2.9314 7.98053 2.69189 8.44141 2.69189H13.4389C13.8998 2.69189 14.329 2.9314 14.5591 3.31665C15.3665 4.6676 15.378 6.19214 15.378 6.20715C15.3782 6.31079 15.462 6.39465 15.5655 6.39465H15.5822C16.0194 6.39465 16.375 6.75024 16.375 7.1875V21.2518Z" stroke="#808080" stroke-width="0.5"/>
<rect x="3" y="3" width="3" height="0.3" fill="white"/>
</svg>
